<svg xmlns="http://www.w3.org/2000/svg" xmlns:xlink="http://www.w3.org/1999/xlink" width="309.5" height="30" style="width:309.5px;height:30px;font-family:Asana-Math, Asana;background:#FFF;"><g><g><g><g transform="matrix(1,0,0,1,2,25)"><path transform="matrix(0.017,0,0,-0.017,0,0)" d="M105 664L160 662C184 661 195 653 195 635L112 125C95 34 94 31 54 28L13 25L9 -3L51 -2C92 -1 123 0 141 0C158 0 187 -1 227 -2L280 -3L283 25L218 28C192 29 182 37 182 58C182 67 183 74 186 93L284 648C320 654 336 656 355 656C457 656 506 612 506 519C506 411 434 323 346 323C324 323 304 328 267 342L269 311C306 293 326 288 355 288C484 288 594 405 594 541C594 642 531 695 412 692L108 692ZM978 365C981 403 986 435 994 476C983 481 979 482 974 482C943 482 912 458 876 407C837 351 798 291 782 256L814 408C818 425 820 438 820 450C820 470 812 482 797 482C776 482 738 461 664 408L636 388L643 368L675 389C703 407 714 412 723 412C733 412 740 403 740 390C740 332 697 126 657 -2L667 -9C682 -4 698 -1 721 4L734 6L760 126C778 209 801 262 845 319C879 363 906 384 928 384C943 384 953 379 964 365ZM1326 111L1302 94C1249 56 1201 36 1165 36C1118 36 1089 73 1089 133C1089 158 1092 185 1097 214C1114 218 1223 248 1248 259C1333 296 1372 342 1372 404C1372 451 1338 482 1288 482C1220 496 1110 423 1073 349C1043 299 1013 180 1013 113C1013 35 1057 -11 1129 -11C1186 -11 1242 17 1334 92ZM1111 274C1128 343 1148 386 1177 412C1195 428 1226 440 1250 440C1279 440 1298 420 1298 388C1298 344 1263 297 1211 272C1183 258 1147 247 1102 237ZM1655 -20C1699 -19 1766 0 1778 14L1799 46L1789 61C1752 41 1720 32 1684 32C1573 32 1500 118 1500 250C1500 357 1550 417 1640 417C1684 417 1732 397 1750 372L1757 311L1785 311C1785 357 1790 398 1799 434C1759 458 1724 469 1683 469C1635 469 1579 450 1519 412C1449 368 1412 298 1412 210C1412 82 1496 -9 1621 -19L1583 -108L1590 -114C1609 -109 1618 -107 1631 -107C1655 -107 1671 -123 1671 -146C1671 -174 1652 -189 1617 -189C1599 -189 1585 -187 1552 -178L1538 -209C1581 -222 1595 -225 1622 -225C1698 -225 1746 -193 1746 -141C1746 -98 1713 -71 1661 -71C1651 -71 1644 -72 1634 -75ZM1846 152C1846 46 1891 -11 1974 -11C2029 -11 2089 15 2134 57C2196 116 2240 230 2240 331C2240 425 2190 482 2107 482C2003 482 1846 382 1846 152ZM2070 444C2131 444 2164 399 2164 315C2164 219 2133 113 2089 60C2071 39 2045 27 2014 27C1956 27 1922 72 1922 151C1922 264 1961 387 2010 427C2023 438 2046 444 2070 444ZM2955 653C3032 653 3086 639 3142 603L3142 519L3169 519C3174 576 3182 619 3196 665C3113 695 3056 706 2987 706C2895 706 2822 683 2750 632C2633 548 2571 424 2571 274C2571 87 2680 -18 2876 -18C2933 -21 3080 6 3129 37C3149 193 3153 216 3154 219C3156 228 3168 238 3181 240L3213 246L3215 274C3176 270 3141 269 3090 269C3039 269 3003 270 2961 274L2956 246L2990 244C3065 240 3074 236 3074 212C3074 197 3054 84 3049 60C3004 36 2965 27 2911 27C2745 27 2659 120 2659 297C2659 443 2718 653 2955 653ZM3610 365C3613 403 3618 435 3626 476C3615 481 3611 482 3606 482C3575 482 3544 458 3508 407C3469 351 3430 291 3414 256L3446 408C3450 425 3452 438 3452 450C3452 470 3444 482 3429 482C3408 482 3370 461 3296 408L3268 388L3275 368L3307 389C3335 407 3346 412 3355 412C3365 412 3372 403 3372 390C3372 332 3329 126 3289 -2L3299 -9C3314 -4 3330 -1 3353 4L3366 6L3392 126C3410 209 3433 262 3477 319C3511 363 3538 384 3560 384C3575 384 3585 379 3596 365ZM3901 204L3872 77C3868 60 3866 42 3866 26C3866 4 3875 -9 3890 -9C3913 -9 3954 17 4036 85L4029 106C4005 86 3976 59 3954 59C3945 59 3939 68 3939 82C3939 87 3939 90 3940 93L4032 472L4022 481L3989 463C3948 478 3931 482 3904 482C3876 482 3856 477 3829 464C3767 433 3734 403 3709 354C3665 265 3634 145 3634 67C3634 23 3649 -11 3668 -11C3705 -11 3785 41 3901 204ZM3949 414C3927 305 3908 253 3874 201C3817 117 3756 59 3724 59C3712 59 3706 72 3706 99C3706 163 3734 280 3769 360C3793 415 3816 433 3864 433C3887 433 3905 429 3949 414ZM4309 722L4297 733C4252 711 4211 697 4137 691L4133 670L4181 670C4199 670 4215 667 4215 647C4215 641 4215 632 4213 622L4171 388C4151 272 4109 80 4083 2L4090 -9L4159 7C4167 64 4181 164 4221 236C4266 317 4369 414 4411 414C4422 414 4433 407 4433 393C4433 375 4428 342 4418 303L4367 107C4361 85 4354 55 4354 31C4354 6 4364 -9 4385 -9C4417 -9 4485 41 4544 85L4534 103L4508 86C4485 71 4459 56 4447 56C4440 56 4434 65 4434 76C4434 88 4437 101 4441 116L4505 372C4511 398 4516 423 4516 447C4516 464 4510 482 4484 482C4449 482 4372 437 4304 374C4271 343 4245 308 4217 273L4213 275ZM4843 204L4814 77C4810 60 4808 42 4808 26C4808 4 4817 -9 4832 -9C4855 -9 4896 17 4978 85L4971 106C4947 86 4918 59 4896 59C4887 59 4881 68 4881 82C4881 87 4881 90 4882 93L4974 472L4964 481L4931 463C4890 478 4873 482 4846 482C4818 482 4798 477 4771 464C4709 433 4676 403 4651 354C4607 265 4576 145 4576 67C4576 23 4591 -11 4610 -11C4647 -11 4727 41 4843 204ZM4891 414C4869 305 4850 253 4816 201C4759 117 4698 59 4666 59C4654 59 4648 72 4648 99C4648 163 4676 280 4711 360C4735 415 4758 433 4806 433C4829 433 4847 429 4891 414ZM5745 103L5719 86C5690 67 5668 56 5658 56C5651 56 5645 65 5645 76C5645 86 5647 95 5652 116L5727 413C5731 430 5734 446 5734 454C5734 471 5724 482 5708 482C5679 482 5641 464 5580 421C5517 376 5482 341 5433 272L5463 409C5467 429 5470 444 5470 451C5470 470 5460 482 5444 482C5414 482 5368 460 5313 418C5269 384 5249 363 5184 275L5217 408C5221 424 5223 439 5223 451C5223 470 5214 482 5200 482C5179 482 5141 461 5067 408L5039 388L5046 368C5083 391 5118 414 5125 414C5136 414 5143 404 5143 389C5143 338 5102 145 5061 2L5064 -9L5132 6L5154 108C5178 219 5205 278 5260 338C5302 384 5347 414 5375 414C5382 414 5386 406 5386 393C5386 358 5364 244 5323 69L5307 2L5312 -9L5381 6L5402 113C5418 194 5452 269 5496 318C5551 379 5601 414 5633 414C5641 414 5646 405 5646 389C5646 365 5643 351 5621 264C5581 105 5565 84 5565 31C5565 6 5576 -9 5595 -9C5621 -9 5657 12 5755 85Z" stroke="rgb(0,0,0)" stroke-opacity="1" stroke-width="8" fill="rgb(0,0,0)" fill-opacity="1"></path></g></g><g><g transform="matrix(1,0,0,1,109.79998779296875,25)"><path transform="matrix(0.017,0,0,-0.017,0,0)" d="M604 347L604 406L65 406L65 347ZM604 134L604 193L65 193L65 134Z" stroke="rgb(0,0,0)" stroke-opacity="1" stroke-width="8" fill="rgb(0,0,0)" fill-opacity="1"></path></g></g><g><g transform="matrix(1,0,0,1,126.26251220703125,25)"><path transform="matrix(0.017,0,0,-0.017,0,0)" d="" stroke="rgb(0,0,0)" stroke-opacity="1" stroke-width="8" fill="rgb(0,0,0)" fill-opacity="1"></path></g></g><g><g><g><g><g transform="matrix(1,0,0,1,147.5,25)"><path transform="matrix(0.017,0,0,-0.017,0,0)" d="M16 23L16 -3C203 -3 203 0 239 0C275 0 275 -3 468 -3L468 82C353 77 307 81 122 77L304 270C401 373 431 428 431 503C431 618 353 689 226 689C154 689 105 669 56 619L39 483L68 483L81 529C97 587 133 612 200 612C286 612 341 558 341 473C341 398 299 324 186 204ZM515 23L515 -3C702 -3 702 0 738 0C774 0 774 -3 967 -3L967 82C852 77 806 81 621 77L803 270C900 373 930 428 930 503C930 618 852 689 725 689C653 689 604 669 555 619L538 483L567 483L580 529C596 587 632 612 699 612C785 612 840 558 840 473C840 398 798 324 685 204Z" stroke="rgb(0,0,0)" stroke-opacity="1" stroke-width="8" fill="rgb(0,0,0)" fill-opacity="1"></path></g></g><g><g transform="matrix(1,0,0,1,164.4749755859375,25)"><path transform="matrix(0.017,0,0,-0.017,0,0)" d="M204 123C177 114 159 108 106 93C99 17 74 -48 16 -144L30 -155L71 -136C152 -31 190 32 218 109Z" stroke="rgb(0,0,0)" stroke-opacity="1" stroke-width="8" fill="rgb(0,0,0)" fill-opacity="1"></path></g></g><g><g transform="matrix(1,0,0,1,172.11248779296875,25)"><path transform="matrix(0.017,0,0,-0.017,0,0)" d="M459 253C459 366 378 446 264 446C216 446 180 443 127 396L127 605L432 604L432 689L75 690L75 322L95 316C142 363 169 377 218 377C314 377 374 309 374 201C374 90 310 25 201 25C147 25 97 43 83 69L37 151L13 137C36 80 48 48 62 4C90 -11 130 -20 173 -20C301 -20 459 89 459 253Z" stroke="rgb(0,0,0)" stroke-opacity="1" stroke-width="8" fill="rgb(0,0,0)" fill-opacity="1"></path></g></g><g><g transform="matrix(1,0,0,1,184,25)"><path transform="matrix(0.017,0,0,-0.017,0,0)" d="M611 37L376 271L611 505L568 547L335 313L101 547L59 505L293 271L59 37L101 -5L335 229L568 -5Z" stroke="rgb(0,0,0)" stroke-opacity="1" stroke-width="8" fill="rgb(0,0,0)" fill-opacity="1"></path></g></g><g><g transform="matrix(1,0,0,1,198.76251220703125,25)"><path transform="matrix(0.017,0,0,-0.017,0,0)" d="M146 266C146 526 243 632 301 700L282 726C225 675 60 542 60 266C60 159 85 58 133 -32C168 -99 200 -138 282 -215L301 -194C255 -137 146 -15 146 266Z" stroke="rgb(0,0,0)" stroke-opacity="1" stroke-width="8" fill="rgb(0,0,0)" fill-opacity="1"></path></g></g><g><g transform="matrix(1,0,0,1,204.4124755859375,25)"><path transform="matrix(0.017,0,0,-0.017,0,0)" d="M349 664L352 692L238 689C222 689 204 689 161 690L97 692L94 664L141 662C165 661 176 653 176 635L81 55C77 37 65 30 21 23L16 -3L57 -2C88 -1 150 0 170 0L467 -1L500 0C499 25 510 103 523 165L492 165L475 103C466 71 457 54 448 49C435 44 371 39 304 39C255 39 228 40 162 46C165 64 256 605 256 613C263 651 270 658 307 661ZM660 664L715 662C739 661 750 653 750 635L667 125C650 34 649 31 609 28L568 25L564 -3L606 -2C647 -1 678 0 696 0C713 0 742 -1 782 -2L835 -3L838 25L773 28C747 29 737 37 737 58C737 67 738 74 741 93L839 648C875 654 891 656 910 656C1012 656 1061 612 1061 519C1061 411 989 323 901 323C879 323 859 328 822 342L824 311C861 293 881 288 910 288C1039 288 1149 405 1149 541C1149 642 1086 695 967 692L663 692ZM1732 55C1732 39 1717 30 1689 28L1645 25L1645 -3C1747 0 1747 0 1767 0C1787 0 1787 0 1889 -3L1889 25L1863 28C1816 35 1815 35 1807 80L1720 705L1674 705L1301 112C1265 56 1247 40 1213 32L1193 27L1193 -3C1285 0 1285 0 1305 0C1324 0 1326 0 1412 -3L1412 25L1360 28C1344 29 1329 38 1329 47C1329 55 1336 69 1355 102L1457 277L1703 277L1728 89L1728 86C1728 84 1732 69 1732 55ZM1661 601L1698 313L1482 313Z" stroke="rgb(0,0,0)" stroke-opacity="1" stroke-width="8" fill="rgb(0,0,0)" fill-opacity="1"></path></g></g><g><g transform="matrix(1,0,0,1,236.98748779296875,25)"><path transform="matrix(0.017,0,0,-0.017,0,0)" d="M51 726L32 700C87 636 187 526 187 266C187 -10 83 -131 32 -194L51 -215C104 -165 273 -23 273 265C273 542 108 675 51 726Z" stroke="rgb(0,0,0)" stroke-opacity="1" stroke-width="8" fill="rgb(0,0,0)" fill-opacity="1"></path></g></g><g><g transform="matrix(1,0,0,1,246.0374755859375,25)"><path transform="matrix(0.017,0,0,-0.017,0,0)" d="M611 37L376 271L611 505L568 547L335 313L101 547L59 505L293 271L59 37L101 -5L335 229L568 -5Z" stroke="rgb(0,0,0)" stroke-opacity="1" stroke-width="8" fill="rgb(0,0,0)" fill-opacity="1"></path></g></g><g><g transform="matrix(1,0,0,1,260.79998779296875,25)"><path transform="matrix(0.017,0,0,-0.017,0,0)" d="M146 266C146 526 243 632 301 700L282 726C225 675 60 542 60 266C60 159 85 58 133 -32C168 -99 200 -138 282 -215L301 -194C255 -137 146 -15 146 266Z" stroke="rgb(0,0,0)" stroke-opacity="1" stroke-width="8" fill="rgb(0,0,0)" fill-opacity="1"></path></g></g><g><g transform="matrix(1,0,0,1,266.45001220703125,25)"><path transform="matrix(0.017,0,0,-0.017,0,0)" d="M310 96L239 624C237 646 241 661 281 662L323 664L323 692L282 691C245 690 217 689 199 689C181 689 153 690 116 691L75 692L75 664L100 662C144 659 152 651 159 614L247 -8L296 -8L674 611C699 651 707 658 736 662L754 664L754 692L724 691C697 690 674 689 658 689C648 689 621 690 580 691L534 692L534 664L560 662C598 659 617 649 617 630C617 619 613 608 601 588ZM826 664L881 662C905 661 916 653 916 635L833 125C816 34 815 31 775 28L734 25L730 -3L772 -2C813 -1 844 0 862 0C879 0 908 -1 948 -2L1001 -3L1004 25L939 28C913 29 903 37 903 58C903 67 904 74 907 93L1005 648C1041 654 1057 656 1076 656C1178 656 1227 612 1227 519C1227 411 1155 323 1067 323C1045 323 1025 328 988 342L990 311C1027 293 1047 288 1076 288C1205 288 1315 405 1315 541C1315 642 1252 695 1133 692L829 692ZM1898 55C1898 39 1883 30 1855 28L1811 25L1811 -3C1913 0 1913 0 1933 0C1953 0 1953 0 2055 -3L2055 25L2029 28C1982 35 1981 35 1973 80L1886 705L1840 705L1467 112C1431 56 1413 40 1379 32L1359 27L1359 -3C1451 0 1451 0 1471 0C1490 0 1492 0 1578 -3L1578 25L1526 28C1510 29 1495 38 1495 47C1495 55 1502 69 1521 102L1623 277L1869 277L1894 89L1894 86C1894 84 1898 69 1898 55ZM1827 601L1864 313L1648 313Z" stroke="rgb(0,0,0)" stroke-opacity="1" stroke-width="8" fill="rgb(0,0,0)" fill-opacity="1"></path></g></g><g><g transform="matrix(1,0,0,1,301.8499755859375,25)"><path transform="matrix(0.017,0,0,-0.017,0,0)" d="M51 726L32 700C87 636 187 526 187 266C187 -10 83 -131 32 -194L51 -215C104 -165 273 -23 273 265C273 542 108 675 51 726Z" stroke="rgb(0,0,0)" stroke-opacity="1" stroke-width="8" fill="rgb(0,0,0)" fill-opacity="1"></path></g></g></g></g><svg x="130.5" overflow="visible" y="6" height="17" width="177"><polygon points="0.35,9.89 4.79,7.52 9.67,17.87 16.36,0.00 177.00,0.00 177.00,1.05 17.09,1.05 9.18,22.19 3.10,9.45 0.64,10.37" style="fill:rgb(0,0,0);fill-opacity:1;stroke-width:1px;stroke:none;stroke-opacity:1;"></polygon></svg></g></g></g></svg>