<svg xmlns="http://www.w3.org/2000/svg" xmlns:xlink="http://www.w3.org/1999/xlink" width="350.9499969482422" height="51.63750076293945" style="width:350.9499969482422px;height:51.63750076293945px;font-family:Asana-Math, Asana;background:#FFF;"><g><g><g><g transform="matrix(1,0,0,1,2,32.71250915527344)"><path transform="matrix(0.017,0,0,-0.017,0,0)" d="M349 664L352 692L238 689C222 689 204 689 161 690L97 692L94 664L141 662C165 661 176 653 176 635L81 55C77 37 65 30 21 23L16 -3L57 -2C88 -1 150 0 170 0L467 -1L500 0C499 25 510 103 523 165L492 165L475 103C466 71 457 54 448 49C435 44 371 39 304 39C255 39 228 40 162 46C165 64 256 605 256 613C263 651 270 658 307 661ZM660 664L715 662C739 661 750 653 750 635L667 125C650 34 649 31 609 28L568 25L564 -3L606 -2C647 -1 678 0 696 0C713 0 742 -1 782 -2L835 -3L838 25L773 28C747 29 737 37 737 58C737 67 738 74 741 93L839 648C875 654 891 656 910 656C1012 656 1061 612 1061 519C1061 411 989 323 901 323C879 323 859 328 822 342L824 311C861 293 881 288 910 288C1039 288 1149 405 1149 541C1149 642 1086 695 967 692L663 692ZM1732 55C1732 39 1717 30 1689 28L1645 25L1645 -3C1747 0 1747 0 1767 0C1787 0 1787 0 1889 -3L1889 25L1863 28C1816 35 1815 35 1807 80L1720 705L1674 705L1301 112C1265 56 1247 40 1213 32L1193 27L1193 -3C1285 0 1285 0 1305 0C1324 0 1326 0 1412 -3L1412 25L1360 28C1344 29 1329 38 1329 47C1329 55 1336 69 1355 102L1457 277L1703 277L1728 89L1728 86C1728 84 1732 69 1732 55ZM1661 601L1698 313L1482 313ZM2341 -11C2397 -11 2512 62 2555 125C2596 186 2630 296 2630 371C2630 438 2607 482 2571 482C2529 482 2476 456 2424 409C2383 374 2363 348 2327 289L2351 408C2354 425 2356 440 2356 452C2356 471 2348 482 2334 482C2313 482 2275 461 2201 408L2173 388L2180 368L2212 389C2240 407 2251 412 2260 412C2270 412 2277 403 2277 389C2277 381 2275 361 2273 351L2215 8C2205 -52 2186 -143 2166 -233L2158 -270L2165 -276C2186 -269 2206 -264 2238 -259L2280 3C2301 -4 2323 -11 2341 -11ZM2308 165C2330 293 2437 424 2520 424C2546 424 2558 402 2558 356C2558 275 2518 156 2465 80C2445 51 2413 36 2372 36C2341 36 2316 43 2290 59ZM3032 365C3035 403 3040 435 3048 476C3037 481 3033 482 3028 482C2997 482 2966 458 2930 407C2891 351 2852 291 2836 256L2868 408C2872 425 2874 438 2874 450C2874 470 2866 482 2851 482C2830 482 2792 461 2718 408L2690 388L2697 368L2729 389C2757 407 2768 412 2777 412C2787 412 2794 403 2794 390C2794 332 2751 126 2711 -2L2721 -9C2736 -4 2752 -1 2775 4L2788 6L2814 126C2832 209 2855 262 2899 319C2933 363 2960 384 2982 384C2997 384 3007 379 3018 365ZM3069 152C3069 46 3114 -11 3197 -11C3252 -11 3312 15 3357 57C3419 116 3463 230 3463 331C3463 425 3413 482 3330 482C3226 482 3069 382 3069 152ZM3293 444C3354 444 3387 399 3387 315C3387 219 3356 113 3312 60C3294 39 3268 27 3237 27C3179 27 3145 72 3145 151C3145 264 3184 387 3233 427C3246 438 3269 444 3293 444ZM3689 351L3589 -144C3578 -196 3560 -231 3542 -231C3528 -231 3510 -225 3489 -212L3481 -269C3491 -274 3504 -276 3519 -276C3559 -276 3599 -233 3635 -152C3655 -107 3669 -57 3697 70L3773 420C3777 438 3779 451 3779 457C3779 473 3770 482 3754 482C3732 482 3695 461 3620 408L3592 388L3599 368L3631 389C3668 412 3671 414 3678 414C3688 414 3696 404 3696 391C3696 382 3689 356 3689 351ZM3780 712C3751 712 3722 679 3722 645C3722 620 3737 604 3761 604C3792 604 3816 633 3816 671C3816 695 3801 712 3780 712ZM4150 111L4126 94C4073 56 4025 36 3989 36C3942 36 3913 73 3913 133C3913 158 3916 185 3921 214C3938 218 4047 248 4072 259C4157 296 4196 342 4196 404C4196 451 4162 482 4112 482C4044 496 3934 423 3897 349C3867 299 3837 180 3837 113C3837 35 3881 -11 3953 -11C4010 -11 4066 17 4158 92ZM3935 274C3952 343 3972 386 4001 412C4019 428 4050 440 4074 440C4103 440 4122 420 4122 388C4122 344 4087 297 4035 272C4007 258 3971 247 3926 237ZM4335 390L4279 107C4278 99 4266 61 4266 31C4266 6 4277 -9 4296 -9C4331 -9 4366 11 4444 74L4475 99L4465 117L4420 86C4391 66 4371 56 4360 56C4351 56 4346 64 4346 76C4346 102 4360 183 4389 328L4402 390L4509 390L4520 440C4482 436 4448 434 4410 434C4426 528 4437 577 4455 631L4444 646C4424 634 4397 622 4366 610L4341 440C4297 419 4271 408 4253 403L4251 390ZM4813 204L4784 77C4780 60 4778 42 4778 26C4778 4 4787 -9 4802 -9C4825 -9 4866 17 4948 85L4941 106C4917 86 4888 59 4866 59C4857 59 4851 68 4851 82C4851 87 4851 90 4852 93L4944 472L4934 481L4901 463C4860 478 4843 482 4816 482C4788 482 4768 477 4741 464C4679 433 4646 403 4621 354C4577 265 4546 145 4546 67C4546 23 4561 -11 4580 -11C4617 -11 4697 41 4813 204ZM4861 414C4839 305 4820 253 4786 201C4729 117 4668 59 4636 59C4624 59 4618 72 4618 99C4618 163 4646 280 4681 360C4705 415 4728 433 4776 433C4799 433 4817 429 4861 414ZM5468 722L5456 733C5404 707 5368 698 5296 691L5292 670L5340 670C5364 670 5374 663 5374 646C5374 638 5373 629 5372 622L5344 468C5314 477 5287 482 5262 482C5193 482 5099 410 5053 323C5022 265 5002 170 5002 86C5002 21 5017 -11 5046 -11C5073 -11 5110 6 5144 33C5198 77 5231 116 5298 217L5275 126C5264 82 5259 50 5259 24C5259 3 5268 -9 5285 -9C5302 -9 5326 3 5360 28L5441 88L5431 107L5387 76C5373 66 5357 59 5348 59C5340 59 5334 68 5334 82C5334 90 5335 99 5342 128ZM5099 59C5083 59 5074 73 5074 98C5074 224 5120 380 5169 418C5182 428 5201 433 5228 433C5272 433 5301 427 5334 410L5322 351C5285 171 5144 59 5099 59ZM5501 152C5501 46 5546 -11 5629 -11C5684 -11 5744 15 5789 57C5851 116 5895 230 5895 331C5895 425 5845 482 5762 482C5658 482 5501 382 5501 152ZM5725 444C5786 444 5819 399 5819 315C5819 219 5788 113 5744 60C5726 39 5700 27 5669 27C5611 27 5577 72 5577 151C5577 264 5616 387 5665 427C5678 438 5701 444 5725 444ZM6352 -11C6408 -11 6523 62 6566 125C6607 186 6641 296 6641 371C6641 438 6618 482 6582 482C6540 482 6487 456 6435 409C6394 374 6374 348 6338 289L6362 408C6365 425 6367 440 6367 452C6367 471 6359 482 6345 482C6324 482 6286 461 6212 408L6184 388L6191 368L6223 389C6251 407 6262 412 6271 412C6281 412 6288 403 6288 389C6288 381 6286 361 6284 351L6226 8C6216 -52 6197 -143 6177 -233L6169 -270L6176 -276C6197 -269 6217 -264 6249 -259L6291 3C6312 -4 6334 -11 6352 -11ZM6319 165C6341 293 6448 424 6531 424C6557 424 6569 402 6569 356C6569 275 6529 156 6476 80C6456 51 6424 36 6383 36C6352 36 6327 43 6301 59ZM6946 204L6917 77C6913 60 6911 42 6911 26C6911 4 6920 -9 6935 -9C6958 -9 6999 17 7081 85L7074 106C7050 86 7021 59 6999 59C6990 59 6984 68 6984 82C6984 87 6984 90 6985 93L7077 472L7067 481L7034 463C6993 478 6976 482 6949 482C6921 482 6901 477 6874 464C6812 433 6779 403 6754 354C6710 265 6679 145 6679 67C6679 23 6694 -11 6713 -11C6750 -11 6830 41 6946 204ZM6994 414C6972 305 6953 253 6919 201C6862 117 6801 59 6769 59C6757 59 6751 72 6751 99C6751 163 6779 280 6814 360C6838 415 6861 433 6909 433C6932 433 6950 429 6994 414ZM7486 365C7489 403 7494 435 7502 476C7491 481 7487 482 7482 482C7451 482 7420 458 7384 407C7345 351 7306 291 7290 256L7322 408C7326 425 7328 438 7328 450C7328 470 7320 482 7305 482C7284 482 7246 461 7172 408L7144 388L7151 368L7183 389C7211 407 7222 412 7231 412C7241 412 7248 403 7248 390C7248 332 7205 126 7165 -2L7175 -9C7190 -4 7206 -1 7229 4L7242 6L7268 126C7286 209 7309 262 7353 319C7387 363 7414 384 7436 384C7451 384 7461 379 7472 365ZM7777 204L7748 77C7744 60 7742 42 7742 26C7742 4 7751 -9 7766 -9C7789 -9 7830 17 7912 85L7905 106C7881 86 7852 59 7830 59C7821 59 7815 68 7815 82C7815 87 7815 90 7816 93L7908 472L7898 481L7865 463C7824 478 7807 482 7780 482C7752 482 7732 477 7705 464C7643 433 7610 403 7585 354C7541 265 7510 145 7510 67C7510 23 7525 -11 7544 -11C7581 -11 7661 41 7777 204ZM7825 414C7803 305 7784 253 7750 201C7693 117 7632 59 7600 59C7588 59 7582 72 7582 99C7582 163 7610 280 7645 360C7669 415 7692 433 7740 433C7763 433 7781 429 7825 414ZM8215 152C8215 46 8260 -11 8343 -11C8398 -11 8458 15 8503 57C8565 116 8609 230 8609 331C8609 425 8559 482 8476 482C8372 482 8215 382 8215 152ZM8439 444C8500 444 8533 399 8533 315C8533 219 8502 113 8458 60C8440 39 8414 27 8383 27C8325 27 8291 72 8291 151C8291 264 8330 387 8379 427C8392 438 8415 444 8439 444ZM9161 204L9132 77C9128 60 9126 42 9126 26C9126 4 9135 -9 9150 -9C9173 -9 9214 17 9296 85L9289 106C9265 86 9236 59 9214 59C9205 59 9199 68 9199 82C9199 87 9199 90 9200 93L9292 472L9282 481L9249 463C9208 478 9191 482 9164 482C9136 482 9116 477 9089 464C9027 433 8994 403 8969 354C8925 265 8894 145 8894 67C8894 23 8909 -11 8928 -11C8965 -11 9045 41 9161 204ZM9209 414C9187 305 9168 253 9134 201C9077 117 9016 59 8984 59C8972 59 8966 72 8966 99C8966 163 8994 280 9029 360C9053 415 9076 433 9124 433C9147 433 9165 429 9209 414ZM9357 388L9364 368L9396 389C9433 412 9436 414 9443 414C9454 414 9461 404 9461 389C9461 338 9420 145 9379 2L9386 -9C9411 -2 9434 4 9456 8C9475 134 9496 199 9542 268C9596 352 9671 414 9716 414C9727 414 9733 405 9733 390C9733 372 9730 351 9722 319L9670 107C9661 70 9657 47 9657 31C9657 6 9668 -9 9687 -9C9713 -9 9749 12 9847 85L9837 103L9811 86C9782 67 9760 56 9750 56C9743 56 9737 65 9737 76C9737 81 9738 92 9739 96L9805 372C9812 401 9816 429 9816 446C9816 469 9805 482 9785 482C9743 482 9674 444 9615 389C9577 354 9549 320 9497 247L9535 408C9539 426 9541 438 9541 449C9541 470 9533 482 9518 482C9497 482 9458 460 9385 408ZM9905 152C9905 46 9950 -11 10033 -11C10088 -11 10148 15 10193 57C10255 116 10299 230 10299 331C10299 425 10249 482 10166 482C10062 482 9905 382 9905 152ZM10129 444C10190 444 10223 399 10223 315C10223 219 10192 113 10148 60C10130 39 10104 27 10073 27C10015 27 9981 72 9981 151C9981 264 10020 387 10069 427C10082 438 10105 444 10129 444ZM10705 390L10649 107C10648 99 10636 61 10636 31C10636 6 10647 -9 10666 -9C10701 -9 10736 11 10814 74L10845 99L10835 117L10790 86C10761 66 10741 56 10730 56C10721 56 10716 64 10716 76C10716 102 10730 183 10759 328L10772 390L10879 390L10890 440C10852 436 10818 434 10780 434C10796 528 10807 577 10825 631L10814 646C10794 634 10767 622 10736 610L10711 440C10667 419 10641 408 10623 403L10621 390Z" stroke="rgb(0,0,0)" stroke-opacity="1" stroke-width="8" fill="rgb(0,0,0)" fill-opacity="1"></path></g></g><g><g transform="matrix(1,0,0,1,196.8375244140625,32.71250915527344)"><path transform="matrix(0.017,0,0,-0.017,0,0)" d="M604 347L604 406L65 406L65 347ZM604 134L604 193L65 193L65 134Z" stroke="rgb(0,0,0)" stroke-opacity="1" stroke-width="8" fill="rgb(0,0,0)" fill-opacity="1"></path></g></g><g><g transform="matrix(1,0,0,1,213.29998779296875,32.71250915527344)"><path transform="matrix(0.017,0,0,-0.017,0,0)" d="" stroke="rgb(0,0,0)" stroke-opacity="1" stroke-width="8" fill="rgb(0,0,0)" fill-opacity="1"></path></g></g><g><g><g><g><g transform="matrix(1,0,0,1,219.23748779296875,19)"><path transform="matrix(0.017,0,0,-0.017,0,0)" d="M349 664L352 692L238 689C222 689 204 689 161 690L97 692L94 664L141 662C165 661 176 653 176 635L81 55C77 37 65 30 21 23L16 -3L57 -2C88 -1 150 0 170 0L467 -1L500 0C499 25 510 103 523 165L492 165L475 103C466 71 457 54 448 49C435 44 371 39 304 39C255 39 228 40 162 46C165 64 256 605 256 613C263 651 270 658 307 661ZM660 664L715 662C739 661 750 653 750 635L667 125C650 34 649 31 609 28L568 25L564 -3L606 -2C647 -1 678 0 696 0C713 0 742 -1 782 -2L835 -3L838 25L773 28C747 29 737 37 737 58C737 67 738 74 741 93L839 648C875 654 891 656 910 656C1012 656 1061 612 1061 519C1061 411 989 323 901 323C879 323 859 328 822 342L824 311C861 293 881 288 910 288C1039 288 1149 405 1149 541C1149 642 1086 695 967 692L663 692ZM1732 55C1732 39 1717 30 1689 28L1645 25L1645 -3C1747 0 1747 0 1767 0C1787 0 1787 0 1889 -3L1889 25L1863 28C1816 35 1815 35 1807 80L1720 705L1674 705L1301 112C1265 56 1247 40 1213 32L1193 27L1193 -3C1285 0 1285 0 1305 0C1324 0 1326 0 1412 -3L1412 25L1360 28C1344 29 1329 38 1329 47C1329 55 1336 69 1355 102L1457 277L1703 277L1728 89L1728 86C1728 84 1732 69 1732 55ZM1661 601L1698 313L1482 313Z" stroke="rgb(0,0,0)" stroke-opacity="1" stroke-width="8" fill="rgb(0,0,0)" fill-opacity="1"></path></g></g><g><g><g><g><g transform="matrix(1,0,0,1,252.3125,21.2125)"><path transform="matrix(0.0119,0,0,-0.0119,0,0)" d="M125 390L69 107C68 99 56 61 56 31C56 6 67 -9 86 -9C121 -9 156 11 234 74L265 99L255 117L210 86C181 66 161 56 150 56C141 56 136 64 136 76C136 102 150 183 179 328L192 390L299 390L310 440C272 436 238 434 200 434C216 528 227 577 245 631L234 646C214 634 187 622 156 610L131 440C87 419 61 408 43 403L41 390ZM887 243L887 299L383 299L383 243ZM1355 -3L1355 27L1303 30C1248 33 1238 44 1238 96L1238 700L997 598L1004 548L1154 614L1154 96C1154 44 1143 33 1089 30L1033 27L1033 -3C1187 0 1187 0 1198 0C1229 0 1339 -3 1355 -3Z" stroke="rgb(0,0,0)" stroke-opacity="1" stroke-width="8" fill="rgb(0,0,0)" fill-opacity="1"></path></g></g></g></g></g><g><g transform="matrix(1,0,0,1,273.8125,19)"><path transform="matrix(0.017,0,0,-0.017,0,0)" d="M611 37L376 271L611 505L568 547L335 313L101 547L59 505L293 271L59 37L101 -5L335 229L568 -5Z" stroke="rgb(0,0,0)" stroke-opacity="1" stroke-width="8" fill="rgb(0,0,0)" fill-opacity="1"></path></g></g><g><g transform="matrix(1,0,0,1,288.57501220703125,19)"><path transform="matrix(0.017,0,0,-0.017,0,0)" d="M146 266C146 526 243 632 301 700L282 726C225 675 60 542 60 266C60 159 85 58 133 -32C168 -99 200 -138 282 -215L301 -194C255 -137 146 -15 146 266Z" stroke="rgb(0,0,0)" stroke-opacity="1" stroke-width="8" fill="rgb(0,0,0)" fill-opacity="1"></path></g></g><g><g transform="matrix(1,0,0,1,294.22503662109375,19)"><path transform="matrix(0.017,0,0,-0.017,0,0)" d="M418 -3L418 27L366 30C311 33 301 44 301 96L301 700L60 598L67 548L217 614L217 96C217 44 206 33 152 30L96 27L96 -3C250 0 250 0 261 0C292 0 402 -3 418 -3Z" stroke="rgb(0,0,0)" stroke-opacity="1" stroke-width="8" fill="rgb(0,0,0)" fill-opacity="1"></path></g></g><g><g transform="matrix(1,0,0,1,310.35003662109375,19)"><path transform="matrix(0.017,0,0,-0.017,0,0)" d="M604 241L604 300L364 300L364 538L305 538L305 300L65 300L65 241L305 241L305 0L364 0L364 241Z" stroke="rgb(0,0,0)" stroke-opacity="1" stroke-width="8" fill="rgb(0,0,0)" fill-opacity="1"></path></g></g><g><g transform="matrix(1,0,0,1,325.11248779296875,19)"><path transform="matrix(0.017,0,0,-0.017,0,0)" d="M524 482C457 482 304 419 304 259C304 182 349 136 426 136C434 136 445 136 456 137L415 99C399 84 388 66 388 52C388 42 395 31 409 19C340 -4 212 -48 212 -159C212 -230 282 -276 391 -276C520 -276 633 -204 633 -121C633 -85 612 -49 569 -14L509 35C475 62 462 81 462 100C462 114 477 128 489 146C587 170 658 253 658 342C658 357 655 376 654 380C671 378 679 378 688 378C705 378 715 379 738 382L747 427L744 433C716 426 696 424 642 424C642 425 618 482 524 482ZM425 1L502 -58C548 -94 567 -121 567 -154C567 -206 498 -248 415 -248C333 -248 276 -206 276 -145C276 -43 386 -11 425 1ZM499 448C557 448 586 412 586 341C586 238 538 168 468 168C407 168 375 209 375 288C375 383 426 448 499 448Z" stroke="rgb(0,0,0)" stroke-opacity="1" stroke-width="8" fill="rgb(0,0,0)" fill-opacity="1"></path></g></g><g><g><g><g><g transform="matrix(1,0,0,1,338.3375244140625,22.01250305175781)"><path transform="matrix(0.0119,0,0,-0.0119,0,0)" d="M125 390L69 107C68 99 56 61 56 31C56 6 67 -9 86 -9C121 -9 156 11 234 74L265 99L255 117L210 86C181 66 161 56 150 56C141 56 136 64 136 76C136 102 150 183 179 328L192 390L299 390L310 440C272 436 238 434 200 434C216 528 227 577 245 631L234 646C214 634 187 622 156 610L131 440C87 419 61 408 43 403L41 390Z" stroke="rgb(0,0,0)" stroke-opacity="1" stroke-width="8" fill="rgb(0,0,0)" fill-opacity="1"></path></g></g></g></g></g><g><g transform="matrix(1,0,0,1,343.300048828125,19)"><path transform="matrix(0.017,0,0,-0.017,0,0)" d="M51 726L32 700C87 636 187 526 187 266C187 -10 83 -131 32 -194L51 -215C104 -165 273 -23 273 265C273 542 108 675 51 726Z" stroke="rgb(0,0,0)" stroke-opacity="1" stroke-width="8" fill="rgb(0,0,0)" fill-opacity="1"></path></g></g></g></g><g><g><g><g transform="matrix(1,0,0,1,258.85003662109375,46.63751220703125)"><path transform="matrix(0.017,0,0,-0.017,0,0)" d="M146 266C146 526 243 632 301 700L282 726C225 675 60 542 60 266C60 159 85 58 133 -32C168 -99 200 -138 282 -215L301 -194C255 -137 146 -15 146 266Z" stroke="rgb(0,0,0)" stroke-opacity="1" stroke-width="8" fill="rgb(0,0,0)" fill-opacity="1"></path></g></g><g><g transform="matrix(1,0,0,1,264.5,46.63751220703125)"><path transform="matrix(0.017,0,0,-0.017,0,0)" d="M418 -3L418 27L366 30C311 33 301 44 301 96L301 700L60 598L67 548L217 614L217 96C217 44 206 33 152 30L96 27L96 -3C250 0 250 0 261 0C292 0 402 -3 418 -3Z" stroke="rgb(0,0,0)" stroke-opacity="1" stroke-width="8" fill="rgb(0,0,0)" fill-opacity="1"></path></g></g><g><g transform="matrix(1,0,0,1,276.38751220703125,46.63751220703125)"><path transform="matrix(0.017,0,0,-0.017,0,0)" d="M604 241L604 300L364 300L364 538L305 538L305 300L65 300L65 241L305 241L305 0L364 0L364 241Z" stroke="rgb(0,0,0)" stroke-opacity="1" stroke-width="8" fill="rgb(0,0,0)" fill-opacity="1"></path></g></g><g><g transform="matrix(1,0,0,1,291.1500244140625,46.63751220703125)"><path transform="matrix(0.017,0,0,-0.017,0,0)" d="M368 365C371 403 376 435 384 476C373 481 369 482 364 482C333 482 302 458 266 407C227 351 188 291 172 256L204 408C208 425 210 438 210 450C210 470 202 482 187 482C166 482 128 461 54 408L26 388L33 368L65 389C93 407 104 412 113 412C123 412 130 403 130 390C130 332 87 126 47 -2L57 -9C72 -4 88 -1 111 4L124 6L150 126C168 209 191 262 235 319C269 363 296 384 318 384C333 384 343 379 354 365Z" stroke="rgb(0,0,0)" stroke-opacity="1" stroke-width="8" fill="rgb(0,0,0)" fill-opacity="1"></path></g></g><g><g transform="matrix(1,0,0,1,297.75,46.63751220703125)"><path transform="matrix(0.017,0,0,-0.017,0,0)" d="M51 726L32 700C87 636 187 526 187 266C187 -10 83 -131 32 -194L51 -215C104 -165 273 -23 273 265C273 542 108 675 51 726Z" stroke="rgb(0,0,0)" stroke-opacity="1" stroke-width="8" fill="rgb(0,0,0)" fill-opacity="1"></path></g></g><g><g><g><g><g transform="matrix(1,0,0,1,304.375,40.612509155273436)"><path transform="matrix(0.0119,0,0,-0.0119,0,0)" d="M125 390L69 107C68 99 56 61 56 31C56 6 67 -9 86 -9C121 -9 156 11 234 74L265 99L255 117L210 86C181 66 161 56 150 56C141 56 136 64 136 76C136 102 150 183 179 328L192 390L299 390L310 440C272 436 238 434 200 434C216 528 227 577 245 631L234 646C214 634 187 622 156 610L131 440C87 419 61 408 43 403L41 390Z" stroke="rgb(0,0,0)" stroke-opacity="1" stroke-width="8" fill="rgb(0,0,0)" fill-opacity="1"></path></g></g></g></g></g></g></g><line style="fill:none;stroke-width:1px;stroke:rgb(0, 0, 0);" x1="219.23748779296875" y1="28.26251220703125" x2="348.9499969482422" y2="28.26251220703125"></line></g></g></g></svg>