<svg xmlns="http://www.w3.org/2000/svg" xmlns:xlink="http://www.w3.org/1999/xlink" width="327.2874755859375" height="52.42499923706055" style="width:327.2874755859375px;height:52.42499923706055px;font-family:Asana-Math, Asana;background:#FFF;"><g><g><g><g transform="matrix(1,0,0,1,2,32.712493896484375)"><path transform="matrix(0.017,0,0,-0.017,0,0)" d="M349 664L352 692L238 689C222 689 204 689 161 690L97 692L94 664L141 662C165 661 176 653 176 635L81 55C77 37 65 30 21 23L16 -3L57 -2C88 -1 150 0 170 0L467 -1L500 0C499 25 510 103 523 165L492 165L475 103C466 71 457 54 448 49C435 44 371 39 304 39C255 39 228 40 162 46C165 64 256 605 256 613C263 651 270 658 307 661ZM660 664L715 662C739 661 750 653 750 635L667 125C650 34 649 31 609 28L568 25L564 -3L606 -2C647 -1 678 0 696 0C713 0 742 -1 782 -2L835 -3L838 25L773 28C747 29 737 37 737 58C737 67 738 74 741 93L839 648C875 654 891 656 910 656C1012 656 1061 612 1061 519C1061 411 989 323 901 323C879 323 859 328 822 342L824 311C861 293 881 288 910 288C1039 288 1149 405 1149 541C1149 642 1086 695 967 692L663 692ZM1732 55C1732 39 1717 30 1689 28L1645 25L1645 -3C1747 0 1747 0 1767 0C1787 0 1787 0 1889 -3L1889 25L1863 28C1816 35 1815 35 1807 80L1720 705L1674 705L1301 112C1265 56 1247 40 1213 32L1193 27L1193 -3C1285 0 1285 0 1305 0C1324 0 1326 0 1412 -3L1412 25L1360 28C1344 29 1329 38 1329 47C1329 55 1336 69 1355 102L1457 277L1703 277L1728 89L1728 86C1728 84 1732 69 1732 55ZM1661 601L1698 313L1482 313ZM2290 390L2234 107C2233 99 2221 61 2221 31C2221 6 2232 -9 2251 -9C2286 -9 2321 11 2399 74L2430 99L2420 117L2375 86C2346 66 2326 56 2315 56C2306 56 2301 64 2301 76C2301 102 2315 183 2344 328L2357 390L2464 390L2475 440C2437 436 2403 434 2365 434C2381 528 2392 577 2410 631L2399 646C2379 634 2352 622 2321 610L2296 440C2252 419 2226 408 2208 403L2206 390ZM2825 111L2801 94C2748 56 2700 36 2664 36C2617 36 2588 73 2588 133C2588 158 2591 185 2596 214C2613 218 2722 248 2747 259C2832 296 2871 342 2871 404C2871 451 2837 482 2787 482C2719 496 2609 423 2572 349C2542 299 2512 180 2512 113C2512 35 2556 -11 2628 -11C2685 -11 2741 17 2833 92ZM2610 274C2627 343 2647 386 2676 412C2694 428 2725 440 2749 440C2778 440 2797 420 2797 388C2797 344 2762 297 2710 272C2682 258 2646 247 2601 237ZM3253 365C3256 403 3261 435 3269 476C3258 481 3254 482 3249 482C3218 482 3187 458 3151 407C3112 351 3073 291 3057 256L3089 408C3093 425 3095 438 3095 450C3095 470 3087 482 3072 482C3051 482 3013 461 2939 408L2911 388L2918 368L2950 389C2978 407 2989 412 2998 412C3008 412 3015 403 3015 390C3015 332 2972 126 2932 -2L2942 -9C2957 -4 2973 -1 2996 4L3009 6L3035 126C3053 209 3076 262 3120 319C3154 363 3181 384 3203 384C3218 384 3228 379 3239 365ZM4003 103L3977 86C3948 67 3926 56 3916 56C3909 56 3903 65 3903 76C3903 86 3905 95 3910 116L3985 413C3989 430 3992 446 3992 454C3992 471 3982 482 3966 482C3937 482 3899 464 3838 421C3775 376 3740 341 3691 272L3721 409C3725 429 3728 444 3728 451C3728 470 3718 482 3702 482C3672 482 3626 460 3571 418C3527 384 3507 363 3442 275L3475 408C3479 424 3481 439 3481 451C3481 470 3472 482 3458 482C3437 482 3399 461 3325 408L3297 388L3304 368C3341 391 3376 414 3383 414C3394 414 3401 404 3401 389C3401 338 3360 145 3319 2L3322 -9L3390 6L3412 108C3436 219 3463 278 3518 338C3560 384 3605 414 3633 414C3640 414 3644 406 3644 393C3644 358 3622 244 3581 69L3565 2L3570 -9L3639 6L3660 113C3676 194 3710 269 3754 318C3809 379 3859 414 3891 414C3899 414 3904 405 3904 389C3904 365 3901 351 3879 264C3839 105 3823 84 3823 31C3823 6 3834 -9 3853 -9C3879 -9 3915 12 4013 85ZM4084 388L4091 368L4123 389C4160 412 4163 414 4170 414C4180 414 4188 404 4188 391C4188 384 4184 361 4180 347L4114 107C4106 76 4101 49 4101 30C4101 6 4112 -9 4131 -9C4157 -9 4193 12 4291 85L4281 103L4255 86C4226 67 4203 56 4194 56C4187 56 4181 66 4181 76C4181 86 4183 95 4188 116L4265 420C4269 437 4271 448 4271 456C4271 473 4262 482 4246 482C4224 482 4187 461 4112 408ZM4278 712C4249 712 4220 679 4220 645C4220 620 4235 604 4259 604C4290 604 4314 633 4314 671C4314 695 4299 712 4278 712ZM4351 388L4358 368L4390 389C4427 412 4430 414 4437 414C4448 414 4455 404 4455 389C4455 338 4414 145 4373 2L4380 -9C4405 -2 4428 4 4450 8C4469 134 4490 199 4536 268C4590 352 4665 414 4710 414C4721 414 4727 405 4727 390C4727 372 4724 351 4716 319L4664 107C4655 70 4651 47 4651 31C4651 6 4662 -9 4681 -9C4707 -9 4743 12 4841 85L4831 103L4805 86C4776 67 4754 56 4744 56C4737 56 4731 65 4731 76C4731 81 4732 92 4733 96L4799 372C4806 401 4810 429 4810 446C4810 469 4799 482 4779 482C4737 482 4668 444 4609 389C4571 354 4543 320 4491 247L4529 408C4533 426 4535 438 4535 449C4535 470 4527 482 4512 482C4491 482 4452 460 4379 408ZM5153 204L5124 77C5120 60 5118 42 5118 26C5118 4 5127 -9 5142 -9C5165 -9 5206 17 5288 85L5281 106C5257 86 5228 59 5206 59C5197 59 5191 68 5191 82C5191 87 5191 90 5192 93L5284 472L5274 481L5241 463C5200 478 5183 482 5156 482C5128 482 5108 477 5081 464C5019 433 4986 403 4961 354C4917 265 4886 145 4886 67C4886 23 4901 -11 4920 -11C4957 -11 5037 41 5153 204ZM5201 414C5179 305 5160 253 5126 201C5069 117 5008 59 4976 59C4964 59 4958 72 4958 99C4958 163 4986 280 5021 360C5045 415 5068 433 5116 433C5139 433 5157 429 5201 414ZM5576 722L5564 733C5512 707 5476 698 5404 691L5400 670L5448 670C5472 670 5482 663 5482 648C5482 645 5482 640 5479 622C5468 567 5395 182 5380 132C5367 82 5361 52 5361 31C5361 6 5372 -9 5391 -9C5417 -9 5453 12 5551 85L5541 103L5515 86C5486 67 5464 56 5454 56C5447 56 5441 66 5441 76C5441 82 5442 89 5445 104Z" stroke="rgb(0,0,0)" stroke-opacity="1" stroke-width="8" fill="rgb(0,0,0)" fill-opacity="1"></path></g></g><g><g transform="matrix(1,0,0,1,106.57501220703125,32.712493896484375)"><path transform="matrix(0.017,0,0,-0.017,0,0)" d="M604 347L604 406L65 406L65 347ZM604 134L604 193L65 193L65 134Z" stroke="rgb(0,0,0)" stroke-opacity="1" stroke-width="8" fill="rgb(0,0,0)" fill-opacity="1"></path></g></g><g><g transform="matrix(1,0,0,1,123.0374755859375,32.712493896484375)"><path transform="matrix(0.017,0,0,-0.017,0,0)" d="" stroke="rgb(0,0,0)" stroke-opacity="1" stroke-width="8" fill="rgb(0,0,0)" fill-opacity="1"></path></g></g><g><g><g><g><g transform="matrix(1,0,0,1,128.9749755859375,19)"><path transform="matrix(0.017,0,0,-0.017,0,0)" d="M349 664L352 692L238 689C222 689 204 689 161 690L97 692L94 664L141 662C165 661 176 653 176 635L81 55C77 37 65 30 21 23L16 -3L57 -2C88 -1 150 0 170 0L467 -1L500 0C499 25 510 103 523 165L492 165L475 103C466 71 457 54 448 49C435 44 371 39 304 39C255 39 228 40 162 46C165 64 256 605 256 613C263 651 270 658 307 661ZM660 664L715 662C739 661 750 653 750 635L667 125C650 34 649 31 609 28L568 25L564 -3L606 -2C647 -1 678 0 696 0C713 0 742 -1 782 -2L835 -3L838 25L773 28C747 29 737 37 737 58C737 67 738 74 741 93L839 648C875 654 891 656 910 656C1012 656 1061 612 1061 519C1061 411 989 323 901 323C879 323 859 328 822 342L824 311C861 293 881 288 910 288C1039 288 1149 405 1149 541C1149 642 1086 695 967 692L663 692ZM1732 55C1732 39 1717 30 1689 28L1645 25L1645 -3C1747 0 1747 0 1767 0C1787 0 1787 0 1889 -3L1889 25L1863 28C1816 35 1815 35 1807 80L1720 705L1674 705L1301 112C1265 56 1247 40 1213 32L1193 27L1193 -3C1285 0 1285 0 1305 0C1324 0 1326 0 1412 -3L1412 25L1360 28C1344 29 1329 38 1329 47C1329 55 1336 69 1355 102L1457 277L1703 277L1728 89L1728 86C1728 84 1732 69 1732 55ZM1661 601L1698 313L1482 313Z" stroke="rgb(0,0,0)" stroke-opacity="1" stroke-width="8" fill="rgb(0,0,0)" fill-opacity="1"></path></g></g><g><g><g><g><g transform="matrix(1,0,0,1,162.04998779296875,21.2125)"><path transform="matrix(0.0119,0,0,-0.0119,0,0)" d="M125 390L69 107C68 99 56 61 56 31C56 6 67 -9 86 -9C121 -9 156 11 234 74L265 99L255 117L210 86C181 66 161 56 150 56C141 56 136 64 136 76C136 102 150 183 179 328L192 390L299 390L310 440C272 436 238 434 200 434C216 528 227 577 245 631L234 646C214 634 187 622 156 610L131 440C87 419 61 408 43 403L41 390ZM936 347L936 406L397 406L397 347ZM936 134L936 193L397 193L397 134ZM1263 689C1108 689 1029 566 1029 324C1029 207 1050 106 1085 57C1120 8 1176 -20 1238 -20C1389 -20 1465 110 1465 366C1465 585 1400 689 1263 689ZM1245 654C1342 654 1381 556 1381 316C1381 103 1343 15 1251 15C1154 15 1113 116 1113 360C1113 571 1150 654 1245 654Z" stroke="rgb(0,0,0)" stroke-opacity="1" stroke-width="8" fill="rgb(0,0,0)" fill-opacity="1"></path></g></g></g></g></g><g><g transform="matrix(1,0,0,1,180.9000244140625,19)"><path transform="matrix(0.017,0,0,-0.017,0,0)" d="" stroke="rgb(0,0,0)" stroke-opacity="1" stroke-width="8" fill="rgb(0,0,0)" fill-opacity="1"></path></g></g><g><g transform="matrix(1,0,0,1,188.5374755859375,19)"><path transform="matrix(0.017,0,0,-0.017,0,0)" d="M611 37L376 271L611 505L568 547L335 313L101 547L59 505L293 271L59 37L101 -5L335 229L568 -5Z" stroke="rgb(0,0,0)" stroke-opacity="1" stroke-width="8" fill="rgb(0,0,0)" fill-opacity="1"></path></g></g><g><g transform="matrix(1,0,0,1,203.29998779296875,19)"><path transform="matrix(0.017,0,0,-0.017,0,0)" d="" stroke="rgb(0,0,0)" stroke-opacity="1" stroke-width="8" fill="rgb(0,0,0)" fill-opacity="1"></path></g></g><g><g transform="matrix(1,0,0,1,207.5374755859375,19)"><path transform="matrix(0.017,0,0,-0.017,0,0)" d="M146 266C146 526 243 632 301 700L282 726C225 675 60 542 60 266C60 159 85 58 133 -32C168 -99 200 -138 282 -215L301 -194C255 -137 146 -15 146 266Z" stroke="rgb(0,0,0)" stroke-opacity="1" stroke-width="8" fill="rgb(0,0,0)" fill-opacity="1"></path></g></g><g><g transform="matrix(1,0,0,1,213.1875,19)"><path transform="matrix(0.017,0,0,-0.017,0,0)" d="M418 -3L418 27L366 30C311 33 301 44 301 96L301 700L60 598L67 548L217 614L217 96C217 44 206 33 152 30L96 27L96 -3C250 0 250 0 261 0C292 0 402 -3 418 -3Z" stroke="rgb(0,0,0)" stroke-opacity="1" stroke-width="8" fill="rgb(0,0,0)" fill-opacity="1"></path></g></g><g><g transform="matrix(1,0,0,1,229.3125,19)"><path transform="matrix(0.017,0,0,-0.017,0,0)" d="M604 241L604 300L364 300L364 538L305 538L305 300L65 300L65 241L305 241L305 0L364 0L364 241Z" stroke="rgb(0,0,0)" stroke-opacity="1" stroke-width="8" fill="rgb(0,0,0)" fill-opacity="1"></path></g></g><g><g transform="matrix(1,0,0,1,244.07501220703125,19)"><path transform="matrix(0.017,0,0,-0.017,0,0)" d="M524 482C457 482 304 419 304 259C304 182 349 136 426 136C434 136 445 136 456 137L415 99C399 84 388 66 388 52C388 42 395 31 409 19C340 -4 212 -48 212 -159C212 -230 282 -276 391 -276C520 -276 633 -204 633 -121C633 -85 612 -49 569 -14L509 35C475 62 462 81 462 100C462 114 477 128 489 146C587 170 658 253 658 342C658 357 655 376 654 380C671 378 679 378 688 378C705 378 715 379 738 382L747 427L744 433C716 426 696 424 642 424C642 425 618 482 524 482ZM425 1L502 -58C548 -94 567 -121 567 -154C567 -206 498 -248 415 -248C333 -248 276 -206 276 -145C276 -43 386 -11 425 1ZM499 448C557 448 586 412 586 341C586 238 538 168 468 168C407 168 375 209 375 288C375 383 426 448 499 448Z" stroke="rgb(0,0,0)" stroke-opacity="1" stroke-width="8" fill="rgb(0,0,0)" fill-opacity="1"></path></g></g><g><g><g><g><g transform="matrix(1,0,0,1,257.29998779296875,21.2125)"><path transform="matrix(0.0119,0,0,-0.0119,0,0)" d="M176 -11C232 -11 347 62 390 125C431 186 465 296 465 371C465 438 442 482 406 482C364 482 311 456 259 409C218 374 198 348 162 289L186 408C189 425 191 440 191 452C191 471 183 482 169 482C148 482 110 461 36 408L8 388L15 368L47 389C75 407 86 412 95 412C105 412 112 403 112 389C112 381 110 361 108 351L50 8C40 -52 21 -143 1 -233L-7 -270L0 -276C21 -269 41 -264 73 -259L115 3C136 -4 158 -11 176 -11ZM143 165C165 293 272 424 355 424C381 424 393 402 393 356C393 275 353 156 300 80C280 51 248 36 207 36C176 36 151 43 125 59ZM827 111L803 94C750 56 702 36 666 36C619 36 590 73 590 133C590 158 593 185 598 214C615 218 724 248 749 259C834 296 873 342 873 404C873 451 839 482 789 482C721 496 611 423 574 349C544 299 514 180 514 113C514 35 558 -11 630 -11C687 -11 743 17 835 92ZM612 274C629 343 649 386 678 412C696 428 727 440 751 440C780 440 799 420 799 388C799 344 764 297 712 272C684 258 648 247 603 237ZM1255 365C1258 403 1263 435 1271 476C1260 481 1256 482 1251 482C1220 482 1189 458 1153 407C1114 351 1075 291 1059 256L1091 408C1095 425 1097 438 1097 450C1097 470 1089 482 1074 482C1053 482 1015 461 941 408L913 388L920 368L952 389C980 407 991 412 1000 412C1010 412 1017 403 1017 390C1017 332 974 126 934 -2L944 -9C959 -4 975 -1 998 4L1011 6L1037 126C1055 209 1078 262 1122 319C1156 363 1183 384 1205 384C1220 384 1230 379 1241 365ZM1451 -11C1507 -11 1622 62 1665 125C1706 186 1740 296 1740 371C1740 438 1717 482 1681 482C1639 482 1586 456 1534 409C1493 374 1473 348 1437 289L1461 408C1464 425 1466 440 1466 452C1466 471 1458 482 1444 482C1423 482 1385 461 1311 408L1283 388L1290 368L1322 389C1350 407 1361 412 1370 412C1380 412 1387 403 1387 389C1387 381 1385 361 1383 351L1325 8C1315 -52 1296 -143 1276 -233L1268 -270L1275 -276C1296 -269 1316 -264 1348 -259L1390 3C1411 -4 1433 -11 1451 -11ZM1418 165C1440 293 1547 424 1630 424C1656 424 1668 402 1668 356C1668 275 1628 156 1575 80C1555 51 1523 36 1482 36C1451 36 1426 43 1400 59ZM2102 111L2078 94C2025 56 1977 36 1941 36C1894 36 1865 73 1865 133C1865 158 1868 185 1873 214C1890 218 1999 248 2024 259C2109 296 2148 342 2148 404C2148 451 2114 482 2064 482C1996 496 1886 423 1849 349C1819 299 1789 180 1789 113C1789 35 1833 -11 1905 -11C1962 -11 2018 17 2110 92ZM1887 274C1904 343 1924 386 1953 412C1971 428 2002 440 2026 440C2055 440 2074 420 2074 388C2074 344 2039 297 1987 272C1959 258 1923 247 1878 237ZM2287 390L2231 107C2230 99 2218 61 2218 31C2218 6 2229 -9 2248 -9C2283 -9 2318 11 2396 74L2427 99L2417 117L2372 86C2343 66 2323 56 2312 56C2303 56 2298 64 2298 76C2298 102 2312 183 2341 328L2354 390L2461 390L2472 440C2434 436 2400 434 2362 434C2378 528 2389 577 2407 631L2396 646C2376 634 2349 622 2318 610L2293 440C2249 419 2223 408 2205 403L2203 390ZM2986 473L2979 482L2911 465L2901 414C2886 336 2861 268 2830 221C2771 130 2693 59 2653 59C2645 59 2640 68 2640 85C2640 99 2642 112 2647 137L2704 408C2707 424 2709 438 2709 451C2709 470 2700 482 2686 482C2666 482 2628 461 2554 408L2526 388L2533 368L2565 389C2593 407 2604 412 2613 412C2622 412 2630 403 2630 392C2630 388 2629 378 2628 374L2565 77C2563 68 2561 44 2561 30C2561 7 2576 -11 2596 -11C2659 -11 2780 101 2864 239L2827 97C2820 73 2816 46 2816 31C2816 6 2827 -9 2846 -9C2872 -9 2908 12 3006 85L2996 103L2970 86C2946 70 2920 59 2909 59C2901 59 2896 66 2896 76C2896 112 2971 416 2986 473ZM3083 388L3090 368L3122 389C3159 412 3162 414 3169 414C3179 414 3187 404 3187 391C3187 384 3183 361 3179 347L3113 107C3105 76 3100 49 3100 30C3100 6 3111 -9 3130 -9C3156 -9 3192 12 3290 85L3280 103L3254 86C3225 67 3202 56 3193 56C3186 56 3180 66 3180 76C3180 86 3182 95 3187 116L3264 420C3268 437 3270 448 3270 456C3270 473 3261 482 3245 482C3223 482 3186 461 3111 408ZM3277 712C3248 712 3219 679 3219 645C3219 620 3234 604 3258 604C3289 604 3313 633 3313 671C3313 695 3298 712 3277 712ZM3809 722L3797 733C3745 707 3709 698 3637 691L3633 670L3681 670C3705 670 3715 663 3715 646C3715 638 3714 629 3713 622L3685 468C3655 477 3628 482 3603 482C3534 482 3440 410 3394 323C3363 265 3343 170 3343 86C3343 21 3358 -11 3387 -11C3414 -11 3451 6 3485 33C3539 77 3572 116 3639 217L3616 126C3605 82 3600 50 3600 24C3600 3 3609 -9 3626 -9C3643 -9 3667 3 3701 28L3782 88L3772 107L3728 76C3714 66 3698 59 3689 59C3681 59 3675 68 3675 82C3675 90 3676 99 3683 128ZM3440 59C3424 59 3415 73 3415 98C3415 224 3461 380 3510 418C3523 428 3542 433 3569 433C3613 433 3642 427 3675 410L3663 351C3626 171 3485 59 3440 59ZM4096 204L4067 77C4063 60 4061 42 4061 26C4061 4 4070 -9 4085 -9C4108 -9 4149 17 4231 85L4224 106C4200 86 4171 59 4149 59C4140 59 4134 68 4134 82C4134 87 4134 90 4135 93L4227 472L4217 481L4184 463C4143 478 4126 482 4099 482C4071 482 4051 477 4024 464C3962 433 3929 403 3904 354C3860 265 3829 145 3829 67C3829 23 3844 -11 3863 -11C3900 -11 3980 41 4096 204ZM4144 414C4122 305 4103 253 4069 201C4012 117 3951 59 3919 59C3907 59 3901 72 3901 99C3901 163 3929 280 3964 360C3988 415 4011 433 4059 433C4082 433 4100 429 4144 414ZM4751 722L4739 733C4687 707 4651 698 4579 691L4575 670L4623 670C4647 670 4657 663 4657 646C4657 638 4656 629 4655 622L4627 468C4597 477 4570 482 4545 482C4476 482 4382 410 4336 323C4305 265 4285 170 4285 86C4285 21 4300 -11 4329 -11C4356 -11 4393 6 4427 33C4481 77 4514 116 4581 217L4558 126C4547 82 4542 50 4542 24C4542 3 4551 -9 4568 -9C4585 -9 4609 3 4643 28L4724 88L4714 107L4670 76C4656 66 4640 59 4631 59C4623 59 4617 68 4617 82C4617 90 4618 99 4625 128ZM4382 59C4366 59 4357 73 4357 98C4357 224 4403 380 4452 418C4465 428 4484 433 4511 433C4555 433 4584 427 4617 410L4605 351C4568 171 4427 59 4382 59ZM5095 111L5071 94C5018 56 4970 36 4934 36C4887 36 4858 73 4858 133C4858 158 4861 185 4866 214C4883 218 4992 248 5017 259C5102 296 5141 342 5141 404C5141 451 5107 482 5057 482C4989 496 4879 423 4842 349C4812 299 4782 180 4782 113C4782 35 4826 -11 4898 -11C4955 -11 5011 17 5103 92ZM4880 274C4897 343 4917 386 4946 412C4964 428 4995 440 5019 440C5048 440 5067 420 5067 388C5067 344 5032 297 4980 272C4952 258 4916 247 4871 237Z" stroke="rgb(0,0,0)" stroke-opacity="1" stroke-width="8" fill="rgb(0,0,0)" fill-opacity="1"></path></g></g></g></g></g><g><g transform="matrix(1,0,0,1,319.63751220703125,19)"><path transform="matrix(0.017,0,0,-0.017,0,0)" d="M51 726L32 700C87 636 187 526 187 266C187 -10 83 -131 32 -194L51 -215C104 -165 273 -23 273 265C273 542 108 675 51 726Z" stroke="rgb(0,0,0)" stroke-opacity="1" stroke-width="8" fill="rgb(0,0,0)" fill-opacity="1"></path></g></g></g></g><g><g><g><g transform="matrix(1,0,0,1,169.73748779296875,45.712493896484375)"><path transform="matrix(0.017,0,0,-0.017,0,0)" d="M146 266C146 526 243 632 301 700L282 726C225 675 60 542 60 266C60 159 85 58 133 -32C168 -99 200 -138 282 -215L301 -194C255 -137 146 -15 146 266Z" stroke="rgb(0,0,0)" stroke-opacity="1" stroke-width="8" fill="rgb(0,0,0)" fill-opacity="1"></path></g></g><g><g transform="matrix(1,0,0,1,175.38751220703125,45.712493896484375)"><path transform="matrix(0.017,0,0,-0.017,0,0)" d="M368 365C371 403 376 435 384 476C373 481 369 482 364 482C333 482 302 458 266 407C227 351 188 291 172 256L204 408C208 425 210 438 210 450C210 470 202 482 187 482C166 482 128 461 54 408L26 388L33 368L65 389C93 407 104 412 113 412C123 412 130 403 130 390C130 332 87 126 47 -2L57 -9C72 -4 88 -1 111 4L124 6L150 126C168 209 191 262 235 319C269 363 296 384 318 384C333 384 343 379 354 365Z" stroke="rgb(0,0,0)" stroke-opacity="1" stroke-width="8" fill="rgb(0,0,0)" fill-opacity="1"></path></g></g><g><g transform="matrix(1,0,0,1,189.625,45.712493896484375)"><path transform="matrix(0.017,0,0,-0.017,0,0)" d="M555 243L555 299L51 299L51 243Z" stroke="rgb(0,0,0)" stroke-opacity="1" stroke-width="8" fill="rgb(0,0,0)" fill-opacity="1"></path></g></g><g><g transform="matrix(1,0,0,1,203.3125,45.712493896484375)"><path transform="matrix(0.017,0,0,-0.017,0,0)" d="M524 482C457 482 304 419 304 259C304 182 349 136 426 136C434 136 445 136 456 137L415 99C399 84 388 66 388 52C388 42 395 31 409 19C340 -4 212 -48 212 -159C212 -230 282 -276 391 -276C520 -276 633 -204 633 -121C633 -85 612 -49 569 -14L509 35C475 62 462 81 462 100C462 114 477 128 489 146C587 170 658 253 658 342C658 357 655 376 654 380C671 378 679 378 688 378C705 378 715 379 738 382L747 427L744 433C716 426 696 424 642 424C642 425 618 482 524 482ZM425 1L502 -58C548 -94 567 -121 567 -154C567 -206 498 -248 415 -248C333 -248 276 -206 276 -145C276 -43 386 -11 425 1ZM499 448C557 448 586 412 586 341C586 238 538 168 468 168C407 168 375 209 375 288C375 383 426 448 499 448Z" stroke="rgb(0,0,0)" stroke-opacity="1" stroke-width="8" fill="rgb(0,0,0)" fill-opacity="1"></path></g></g><g><g><g><g><g transform="matrix(1,0,0,1,216.5374755859375,47.924993896484374)"><path transform="matrix(0.0119,0,0,-0.0119,0,0)" d="M176 -11C232 -11 347 62 390 125C431 186 465 296 465 371C465 438 442 482 406 482C364 482 311 456 259 409C218 374 198 348 162 289L186 408C189 425 191 440 191 452C191 471 183 482 169 482C148 482 110 461 36 408L8 388L15 368L47 389C75 407 86 412 95 412C105 412 112 403 112 389C112 381 110 361 108 351L50 8C40 -52 21 -143 1 -233L-7 -270L0 -276C21 -269 41 -264 73 -259L115 3C136 -4 158 -11 176 -11ZM143 165C165 293 272 424 355 424C381 424 393 402 393 356C393 275 353 156 300 80C280 51 248 36 207 36C176 36 151 43 125 59ZM827 111L803 94C750 56 702 36 666 36C619 36 590 73 590 133C590 158 593 185 598 214C615 218 724 248 749 259C834 296 873 342 873 404C873 451 839 482 789 482C721 496 611 423 574 349C544 299 514 180 514 113C514 35 558 -11 630 -11C687 -11 743 17 835 92ZM612 274C629 343 649 386 678 412C696 428 727 440 751 440C780 440 799 420 799 388C799 344 764 297 712 272C684 258 648 247 603 237ZM1255 365C1258 403 1263 435 1271 476C1260 481 1256 482 1251 482C1220 482 1189 458 1153 407C1114 351 1075 291 1059 256L1091 408C1095 425 1097 438 1097 450C1097 470 1089 482 1074 482C1053 482 1015 461 941 408L913 388L920 368L952 389C980 407 991 412 1000 412C1010 412 1017 403 1017 390C1017 332 974 126 934 -2L944 -9C959 -4 975 -1 998 4L1011 6L1037 126C1055 209 1078 262 1122 319C1156 363 1183 384 1205 384C1220 384 1230 379 1241 365ZM1451 -11C1507 -11 1622 62 1665 125C1706 186 1740 296 1740 371C1740 438 1717 482 1681 482C1639 482 1586 456 1534 409C1493 374 1473 348 1437 289L1461 408C1464 425 1466 440 1466 452C1466 471 1458 482 1444 482C1423 482 1385 461 1311 408L1283 388L1290 368L1322 389C1350 407 1361 412 1370 412C1380 412 1387 403 1387 389C1387 381 1385 361 1383 351L1325 8C1315 -52 1296 -143 1276 -233L1268 -270L1275 -276C1296 -269 1316 -264 1348 -259L1390 3C1411 -4 1433 -11 1451 -11ZM1418 165C1440 293 1547 424 1630 424C1656 424 1668 402 1668 356C1668 275 1628 156 1575 80C1555 51 1523 36 1482 36C1451 36 1426 43 1400 59ZM2102 111L2078 94C2025 56 1977 36 1941 36C1894 36 1865 73 1865 133C1865 158 1868 185 1873 214C1890 218 1999 248 2024 259C2109 296 2148 342 2148 404C2148 451 2114 482 2064 482C1996 496 1886 423 1849 349C1819 299 1789 180 1789 113C1789 35 1833 -11 1905 -11C1962 -11 2018 17 2110 92ZM1887 274C1904 343 1924 386 1953 412C1971 428 2002 440 2026 440C2055 440 2074 420 2074 388C2074 344 2039 297 1987 272C1959 258 1923 247 1878 237ZM2287 390L2231 107C2230 99 2218 61 2218 31C2218 6 2229 -9 2248 -9C2283 -9 2318 11 2396 74L2427 99L2417 117L2372 86C2343 66 2323 56 2312 56C2303 56 2298 64 2298 76C2298 102 2312 183 2341 328L2354 390L2461 390L2472 440C2434 436 2400 434 2362 434C2378 528 2389 577 2407 631L2396 646C2376 634 2349 622 2318 610L2293 440C2249 419 2223 408 2205 403L2203 390ZM2986 473L2979 482L2911 465L2901 414C2886 336 2861 268 2830 221C2771 130 2693 59 2653 59C2645 59 2640 68 2640 85C2640 99 2642 112 2647 137L2704 408C2707 424 2709 438 2709 451C2709 470 2700 482 2686 482C2666 482 2628 461 2554 408L2526 388L2533 368L2565 389C2593 407 2604 412 2613 412C2622 412 2630 403 2630 392C2630 388 2629 378 2628 374L2565 77C2563 68 2561 44 2561 30C2561 7 2576 -11 2596 -11C2659 -11 2780 101 2864 239L2827 97C2820 73 2816 46 2816 31C2816 6 2827 -9 2846 -9C2872 -9 2908 12 3006 85L2996 103L2970 86C2946 70 2920 59 2909 59C2901 59 2896 66 2896 76C2896 112 2971 416 2986 473ZM3083 388L3090 368L3122 389C3159 412 3162 414 3169 414C3179 414 3187 404 3187 391C3187 384 3183 361 3179 347L3113 107C3105 76 3100 49 3100 30C3100 6 3111 -9 3130 -9C3156 -9 3192 12 3290 85L3280 103L3254 86C3225 67 3202 56 3193 56C3186 56 3180 66 3180 76C3180 86 3182 95 3187 116L3264 420C3268 437 3270 448 3270 456C3270 473 3261 482 3245 482C3223 482 3186 461 3111 408ZM3277 712C3248 712 3219 679 3219 645C3219 620 3234 604 3258 604C3289 604 3313 633 3313 671C3313 695 3298 712 3277 712ZM3809 722L3797 733C3745 707 3709 698 3637 691L3633 670L3681 670C3705 670 3715 663 3715 646C3715 638 3714 629 3713 622L3685 468C3655 477 3628 482 3603 482C3534 482 3440 410 3394 323C3363 265 3343 170 3343 86C3343 21 3358 -11 3387 -11C3414 -11 3451 6 3485 33C3539 77 3572 116 3639 217L3616 126C3605 82 3600 50 3600 24C3600 3 3609 -9 3626 -9C3643 -9 3667 3 3701 28L3782 88L3772 107L3728 76C3714 66 3698 59 3689 59C3681 59 3675 68 3675 82C3675 90 3676 99 3683 128ZM3440 59C3424 59 3415 73 3415 98C3415 224 3461 380 3510 418C3523 428 3542 433 3569 433C3613 433 3642 427 3675 410L3663 351C3626 171 3485 59 3440 59ZM4096 204L4067 77C4063 60 4061 42 4061 26C4061 4 4070 -9 4085 -9C4108 -9 4149 17 4231 85L4224 106C4200 86 4171 59 4149 59C4140 59 4134 68 4134 82C4134 87 4134 90 4135 93L4227 472L4217 481L4184 463C4143 478 4126 482 4099 482C4071 482 4051 477 4024 464C3962 433 3929 403 3904 354C3860 265 3829 145 3829 67C3829 23 3844 -11 3863 -11C3900 -11 3980 41 4096 204ZM4144 414C4122 305 4103 253 4069 201C4012 117 3951 59 3919 59C3907 59 3901 72 3901 99C3901 163 3929 280 3964 360C3988 415 4011 433 4059 433C4082 433 4100 429 4144 414ZM4751 722L4739 733C4687 707 4651 698 4579 691L4575 670L4623 670C4647 670 4657 663 4657 646C4657 638 4656 629 4655 622L4627 468C4597 477 4570 482 4545 482C4476 482 4382 410 4336 323C4305 265 4285 170 4285 86C4285 21 4300 -11 4329 -11C4356 -11 4393 6 4427 33C4481 77 4514 116 4581 217L4558 126C4547 82 4542 50 4542 24C4542 3 4551 -9 4568 -9C4585 -9 4609 3 4643 28L4724 88L4714 107L4670 76C4656 66 4640 59 4631 59C4623 59 4617 68 4617 82C4617 90 4618 99 4625 128ZM4382 59C4366 59 4357 73 4357 98C4357 224 4403 380 4452 418C4465 428 4484 433 4511 433C4555 433 4584 427 4617 410L4605 351C4568 171 4427 59 4382 59ZM5095 111L5071 94C5018 56 4970 36 4934 36C4887 36 4858 73 4858 133C4858 158 4861 185 4866 214C4883 218 4992 248 5017 259C5102 296 5141 342 5141 404C5141 451 5107 482 5057 482C4989 496 4879 423 4842 349C4812 299 4782 180 4782 113C4782 35 4826 -11 4898 -11C4955 -11 5011 17 5103 92ZM4880 274C4897 343 4917 386 4946 412C4964 428 4995 440 5019 440C5048 440 5067 420 5067 388C5067 344 5032 297 4980 272C4952 258 4916 247 4871 237Z" stroke="rgb(0,0,0)" stroke-opacity="1" stroke-width="8" fill="rgb(0,0,0)" fill-opacity="1"></path></g></g></g></g></g><g><g transform="matrix(1,0,0,1,278.875,45.712493896484375)"><path transform="matrix(0.017,0,0,-0.017,0,0)" d="M51 726L32 700C87 636 187 526 187 266C187 -10 83 -131 32 -194L51 -215C104 -165 273 -23 273 265C273 542 108 675 51 726Z" stroke="rgb(0,0,0)" stroke-opacity="1" stroke-width="8" fill="rgb(0,0,0)" fill-opacity="1"></path></g></g></g></g><line style="fill:none;stroke-width:1px;stroke:rgb(0, 0, 0);" x1="128.9749755859375" y1="28.262481689453125" x2="325.2874755859375" y2="28.262481689453125"></line></g></g></g></svg>