<svg xmlns="http://www.w3.org/2000/svg" xmlns:xlink="http://www.w3.org/1999/xlink" width="221.5875244140625" height="46" style="width:221.5875244140625px;height:46px;font-family:Asana-Math, Asana;background:#FFF;"><g><g><g><g transform="matrix(1,0,0,1,2,31)"><path transform="matrix(0.017,0,0,-0.017,0,0)" d="M105 664L160 662C184 661 195 653 195 635L112 125C95 34 94 31 54 28L13 25L9 -3L51 -2C92 -1 123 0 141 0C158 0 187 -1 227 -2L280 -3L283 25L218 28C192 29 182 37 182 58C182 67 183 74 186 93L284 648C320 654 336 656 355 656C457 656 506 612 506 519C506 411 434 323 346 323C324 323 304 328 267 342L269 311C306 293 326 288 355 288C484 288 594 405 594 541C594 642 531 695 412 692L108 692ZM978 365C981 403 986 435 994 476C983 481 979 482 974 482C943 482 912 458 876 407C837 351 798 291 782 256L814 408C818 425 820 438 820 450C820 470 812 482 797 482C776 482 738 461 664 408L636 388L643 368L675 389C703 407 714 412 723 412C733 412 740 403 740 390C740 332 697 126 657 -2L667 -9C682 -4 698 -1 721 4L734 6L760 126C778 209 801 262 845 319C879 363 906 384 928 384C943 384 953 379 964 365ZM1326 111L1302 94C1249 56 1201 36 1165 36C1118 36 1089 73 1089 133C1089 158 1092 185 1097 214C1114 218 1223 248 1248 259C1333 296 1372 342 1372 404C1372 451 1338 482 1288 482C1220 496 1110 423 1073 349C1043 299 1013 180 1013 113C1013 35 1057 -11 1129 -11C1186 -11 1242 17 1334 92ZM1111 274C1128 343 1148 386 1177 412C1195 428 1226 440 1250 440C1279 440 1298 420 1298 388C1298 344 1263 297 1211 272C1183 258 1147 247 1102 237ZM1655 -20C1699 -19 1766 0 1778 14L1799 46L1789 61C1752 41 1720 32 1684 32C1573 32 1500 118 1500 250C1500 357 1550 417 1640 417C1684 417 1732 397 1750 372L1757 311L1785 311C1785 357 1790 398 1799 434C1759 458 1724 469 1683 469C1635 469 1579 450 1519 412C1449 368 1412 298 1412 210C1412 82 1496 -9 1621 -19L1583 -108L1590 -114C1609 -109 1618 -107 1631 -107C1655 -107 1671 -123 1671 -146C1671 -174 1652 -189 1617 -189C1599 -189 1585 -187 1552 -178L1538 -209C1581 -222 1595 -225 1622 -225C1698 -225 1746 -193 1746 -141C1746 -98 1713 -71 1661 -71C1651 -71 1644 -72 1634 -75ZM1846 152C1846 46 1891 -11 1974 -11C2029 -11 2089 15 2134 57C2196 116 2240 230 2240 331C2240 425 2190 482 2107 482C2003 482 1846 382 1846 152ZM2070 444C2131 444 2164 399 2164 315C2164 219 2133 113 2089 60C2071 39 2045 27 2014 27C1956 27 1922 72 1922 151C1922 264 1961 387 2010 427C2023 438 2046 444 2070 444ZM2870 664L2873 692L2759 689C2743 689 2725 689 2682 690L2618 692L2615 664L2662 662C2686 661 2697 653 2697 635L2602 55C2598 37 2586 30 2542 23L2537 -3L2578 -2C2609 -1 2671 0 2691 0L2988 -1L3021 0C3020 25 3031 103 3044 165L3013 165L2996 103C2987 71 2978 54 2969 49C2956 44 2892 39 2825 39C2776 39 2749 40 2683 46C2686 64 2777 605 2777 613C2784 651 2791 658 2828 661ZM3069 -180C3068 -187 3068 -193 3068 -198C3068 -241 3105 -276 3150 -276C3256 -276 3366 -152 3425 33L3566 473L3555 482C3526 471 3503 465 3481 463L3446 331C3434 284 3399 211 3366 162C3331 111 3282 67 3260 67C3248 67 3239 90 3240 115L3256 322C3258 353 3260 391 3260 419C3260 464 3253 482 3236 482C3223 482 3209 475 3161 442L3079 386L3090 368L3140 398C3145 401 3156 410 3165 410C3179 410 3187 391 3187 358C3187 357 3187 351 3186 343L3169 100L3168 60C3168 18 3186 -11 3211 -11C3248 -11 3332 74 3407 187L3358 16C3307 -161 3257 -234 3187 -234C3152 -234 3125 -207 3125 -172C3125 -167 3126 -159 3127 -150L3117 -146ZM3599 388L3606 368L3638 389C3675 412 3678 414 3685 414C3696 414 3703 404 3703 389C3703 338 3662 145 3621 2L3628 -9C3653 -2 3676 4 3698 8C3717 134 3738 199 3784 268C3838 352 3913 414 3958 414C3969 414 3975 405 3975 390C3975 372 3972 351 3964 319L3912 107C3903 70 3899 47 3899 31C3899 6 3910 -9 3929 -9C3955 -9 3991 12 4089 85L4079 103L4053 86C4024 67 4002 56 3992 56C3985 56 3979 65 3979 76C3979 81 3980 92 3981 96L4047 372C4054 401 4058 429 4058 446C4058 469 4047 482 4027 482C3985 482 3916 444 3857 389C3819 354 3791 320 3739 247L3777 408C3781 426 3783 438 3783 449C3783 470 3775 482 3760 482C3739 482 3700 460 3627 408ZM4472 330L4495 330C4503 395 4510 432 4519 458C4495 473 4460 482 4423 482C4378 483 4305 463 4248 400C4194 352 4155 241 4155 136C4155 40 4197 -11 4277 -11C4331 -11 4379 9 4434 54L4484 95L4476 115L4461 105C4389 57 4351 40 4316 40C4260 40 4231 80 4231 159C4231 267 4266 371 4315 409C4336 425 4360 433 4391 433C4436 433 4472 414 4472 390ZM4772 722L4760 733C4715 711 4674 697 4600 691L4596 670L4644 670C4662 670 4678 667 4678 647C4678 641 4678 632 4676 622L4634 388C4614 272 4572 80 4546 2L4553 -9L4622 7C4630 64 4644 164 4684 236C4729 317 4832 414 4874 414C4885 414 4896 407 4896 393C4896 375 4891 342 4881 303L4830 107C4824 85 4817 55 4817 31C4817 6 4827 -9 4848 -9C4880 -9 4948 41 5007 85L4997 103L4971 86C4948 71 4922 56 4910 56C4903 56 4897 65 4897 76C4897 88 4900 101 4904 116L4968 372C4974 398 4979 423 4979 447C4979 464 4973 482 4947 482C4912 482 4835 437 4767 374C4734 343 4708 308 4680 273L4676 275Z" stroke="rgb(0,0,0)" stroke-opacity="1" stroke-width="8" fill="rgb(0,0,0)" fill-opacity="1"></path></g></g><g><g transform="matrix(1,0,0,1,96.9375,31)"><path transform="matrix(0.017,0,0,-0.017,0,0)" d="M604 347L604 406L65 406L65 347ZM604 134L604 193L65 193L65 134Z" stroke="rgb(0,0,0)" stroke-opacity="1" stroke-width="8" fill="rgb(0,0,0)" fill-opacity="1"></path></g></g><g><g transform="matrix(1,0,0,1,113.4000244140625,31)"><path transform="matrix(0.017,0,0,-0.017,0,0)" d="" stroke="rgb(0,0,0)" stroke-opacity="1" stroke-width="8" fill="rgb(0,0,0)" fill-opacity="1"></path></g></g><g><g><g><g><g transform="matrix(1,0,0,1,119.3375244140625,19)"><path transform="matrix(0.017,0,0,-0.017,0,0)" d="M45 284C45 90 152 -18 343 -18C439 -18 510 5 600 67L610 103L600 110C506 53 454 35 376 35C219 35 133 131 133 309C133 447 190 653 418 653C489 653 541 639 597 603L597 519L624 519C629 576 637 619 651 665C575 694 518 706 456 706C276 706 45 578 45 284ZM704 152C704 46 749 -11 832 -11C887 -11 947 15 992 57C1054 116 1098 230 1098 331C1098 425 1048 482 965 482C861 482 704 382 704 152ZM928 444C989 444 1022 399 1022 315C1022 219 991 113 947 60C929 39 903 27 872 27C814 27 780 72 780 151C780 264 819 387 868 427C881 438 904 444 928 444ZM1255 390L1199 107C1198 99 1186 61 1186 31C1186 6 1197 -9 1216 -9C1251 -9 1286 11 1364 74L1395 99L1385 117L1340 86C1311 66 1291 56 1280 56C1271 56 1266 64 1266 76C1266 102 1280 183 1309 328L1322 390L1429 390L1440 440C1402 436 1368 434 1330 434C1346 528 1357 577 1375 631L1364 646C1344 634 1317 622 1286 610L1261 440C1217 419 1191 408 1173 403L1171 390ZM1733 204L1704 77C1700 60 1698 42 1698 26C1698 4 1707 -9 1722 -9C1745 -9 1786 17 1868 85L1861 106C1837 86 1808 59 1786 59C1777 59 1771 68 1771 82C1771 87 1771 90 1772 93L1864 472L1854 481L1821 463C1780 478 1763 482 1736 482C1708 482 1688 477 1661 464C1599 433 1566 403 1541 354C1497 265 1466 145 1466 67C1466 23 1481 -11 1500 -11C1537 -11 1617 41 1733 204ZM1781 414C1759 305 1740 253 1706 201C1649 117 1588 59 1556 59C1544 59 1538 72 1538 99C1538 163 1566 280 1601 360C1625 415 1648 433 1696 433C1719 433 1737 429 1781 414ZM2174 -20C2218 -19 2285 0 2297 14L2318 46L2308 61C2271 41 2239 32 2203 32C2092 32 2019 118 2019 250C2019 357 2069 417 2159 417C2203 417 2251 397 2269 372L2276 311L2304 311C2304 357 2309 398 2318 434C2278 458 2243 469 2202 469C2154 469 2098 450 2038 412C1968 368 1931 298 1931 210C1931 82 2015 -9 2140 -19L2102 -108L2109 -114C2128 -109 2137 -107 2150 -107C2174 -107 2190 -123 2190 -146C2190 -174 2171 -189 2136 -189C2118 -189 2104 -187 2071 -178L2057 -209C2100 -222 2114 -225 2141 -225C2217 -225 2265 -193 2265 -141C2265 -98 2232 -71 2180 -71C2170 -71 2163 -72 2153 -75ZM2672 82L2667 -3C2732 0 2732 0 2745 0C2750 0 2775 -1 2819 -3L2819 27L2780 29C2756 30 2752 38 2752 87L2752 270C2752 416 2710 469 2594 469C2551 469 2511 458 2473 435L2420 403L2420 338L2446 331L2459 362C2480 409 2490 416 2536 416C2630 416 2669 379 2672 288L2573 270C2437 245 2380 198 2380 111C2380 33 2427 -12 2506 -12C2524 -12 2541 -9 2548 -4ZM2672 124C2643 83 2580 45 2541 45C2501 45 2466 82 2466 125C2466 162 2486 197 2516 216C2541 231 2596 245 2672 256ZM2533 635C2478 635 2441 600 2427 535L2456 535C2469 566 2485 580 2509 580C2547 580 2594 535 2648 535C2705 535 2753 582 2757 640L2728 640C2713 603 2697 590 2669 590C2632 590 2586 635 2533 635ZM2864 152C2864 46 2909 -11 2992 -11C3047 -11 3107 15 3152 57C3214 116 3258 230 3258 331C3258 425 3208 482 3125 482C3021 482 2864 382 2864 152ZM3088 444C3149 444 3182 399 3182 315C3182 219 3151 113 3107 60C3089 39 3063 27 3032 27C2974 27 2940 72 2940 151C2940 264 2979 387 3028 427C3041 438 3064 444 3088 444ZM4106 55C4106 39 4091 30 4063 28L4019 25L4019 -3C4121 0 4121 0 4141 0C4161 0 4161 0 4263 -3L4263 25L4237 28C4190 35 4189 35 4181 80L4094 705L4048 705L3675 112C3639 56 3621 40 3587 32L3567 27L3567 -3C3659 0 3659 0 3679 0C3698 0 3700 0 3786 -3L3786 25L3734 28C3718 29 3703 38 3703 47C3703 55 3710 69 3729 102L3831 277L4077 277L4102 89L4102 86C4102 84 4106 69 4106 55ZM4035 601L4072 313L3856 313ZM4415 390L4359 107C4358 99 4346 61 4346 31C4346 6 4357 -9 4376 -9C4411 -9 4446 11 4524 74L4555 99L4545 117L4500 86C4471 66 4451 56 4440 56C4431 56 4426 64 4426 76C4426 102 4440 183 4469 328L4482 390L4589 390L4600 440C4562 436 4528 434 4490 434C4506 528 4517 577 4535 631L4524 646C4504 634 4477 622 4446 610L4421 440C4377 419 4351 408 4333 403L4331 390ZM5114 473L5107 482L5039 465L5029 414C5014 336 4989 268 4958 221C4899 130 4821 59 4781 59C4773 59 4768 68 4768 85C4768 99 4770 112 4775 137L4832 408C4835 424 4837 438 4837 451C4837 470 4828 482 4814 482C4794 482 4756 461 4682 408L4654 388L4661 368L4693 389C4721 407 4732 412 4741 412C4750 412 4758 403 4758 392C4758 388 4757 378 4756 374L4693 77C4691 68 4689 44 4689 30C4689 7 4704 -11 4724 -11C4787 -11 4908 101 4992 239L4955 97C4948 73 4944 46 4944 31C4944 6 4955 -9 4974 -9C5000 -9 5036 12 5134 85L5124 103L5098 86C5074 70 5048 59 5037 59C5029 59 5024 66 5024 76C5024 112 5099 416 5114 473ZM5448 204L5419 77C5415 60 5413 42 5413 26C5413 4 5422 -9 5437 -9C5460 -9 5501 17 5583 85L5576 106C5552 86 5523 59 5501 59C5492 59 5486 68 5486 82C5486 87 5486 90 5487 93L5579 472L5569 481L5536 463C5495 478 5478 482 5451 482C5423 482 5403 477 5376 464C5314 433 5281 403 5256 354C5212 265 5181 145 5181 67C5181 23 5196 -11 5215 -11C5252 -11 5332 41 5448 204ZM5496 414C5474 305 5455 253 5421 201C5364 117 5303 59 5271 59C5259 59 5253 72 5253 99C5253 163 5281 280 5316 360C5340 415 5363 433 5411 433C5434 433 5452 429 5496 414ZM5871 722L5859 733C5807 707 5771 698 5699 691L5695 670L5743 670C5767 670 5777 663 5777 648C5777 645 5777 640 5774 622C5763 567 5690 182 5675 132C5662 82 5656 52 5656 31C5656 6 5667 -9 5686 -9C5712 -9 5748 12 5846 85L5836 103L5810 86C5781 67 5759 56 5749 56C5742 56 5736 66 5736 76C5736 82 5737 89 5740 104Z" stroke="rgb(0,0,0)" stroke-opacity="1" stroke-width="8" fill="rgb(0,0,0)" fill-opacity="1"></path></g></g></g></g><g><g><g><g transform="matrix(1,0,0,1,152.9625244140625,44)"><path transform="matrix(0.017,0,0,-0.017,0,0)" d="M105 664L160 662C184 661 195 653 195 635L112 125C95 34 94 31 54 28L13 25L9 -3L51 -2C92 -1 123 0 141 0C158 0 187 -1 227 -2L280 -3L283 25L218 28C192 29 182 37 182 58C182 67 183 74 186 93L284 648C320 654 336 656 355 656C457 656 506 612 506 519C506 411 434 323 346 323C324 323 304 328 267 342L269 311C306 293 326 288 355 288C484 288 594 405 594 541C594 642 531 695 412 692L108 692ZM831 334L948 334L1080 330L1099 375L1095 382C1014 378 954 376 876 376L839 376L886 646C918 647 1001 650 1023 650C1085 650 1126 641 1127 626L1135 537L1159 537C1162 601 1169 651 1180 689C1159 691 1129 692 1111 692C1108 692 1097 692 1073 691L953 690C944 689 770 691 760 691L715 692L712 664L766 662C790 661 801 653 801 635C801 621 797 589 792 559L705 55C701 37 689 30 645 23L640 -3L681 -2C712 -1 774 0 794 0L1019 -3C1033 -3 1058 -2 1091 -1L1124 0L1128 36C1130 56 1135 86 1144 135L1149 161L1122 161L1106 101C1096 65 1087 53 1065 48C1045 44 972 39 918 39C877 39 850 40 781 46ZM1654 653C1731 653 1785 639 1841 603L1841 519L1868 519C1873 576 1881 619 1895 665C1812 695 1755 706 1686 706C1594 706 1521 683 1449 632C1332 548 1270 424 1270 274C1270 87 1379 -18 1575 -18C1632 -21 1779 6 1828 37C1848 193 1852 216 1853 219C1855 228 1867 238 1880 240L1912 246L1914 274C1875 270 1840 269 1789 269C1738 269 1702 270 1660 274L1655 246L1689 244C1764 240 1773 236 1773 212C1773 197 1753 84 1748 60C1703 36 1664 27 1610 27C1444 27 1358 120 1358 297C1358 443 1417 653 1654 653Z" stroke="rgb(0,0,0)" stroke-opacity="1" stroke-width="8" fill="rgb(0,0,0)" fill-opacity="1"></path></g></g></g></g><line style="fill:none;stroke-width:1px;stroke:rgb(0, 0, 0);" x1="119.3375244140625" y1="26.54998779296875" x2="219.5875244140625" y2="26.54998779296875"></line></g></g></g></svg>