<svg xmlns="http://www.w3.org/2000/svg" xmlns:xlink="http://www.w3.org/1999/xlink" width="325.7749938964844" height="49" style="width:325.7749938964844px;height:49px;font-family:Asana-Math, Asana;background:#FFF;"><g><g><g><g transform="matrix(1,0,0,1,2,31)"><path transform="matrix(0.017,0,0,-0.017,0,0)" d="M105 664L160 662C184 661 195 653 195 635L112 125C95 34 94 31 54 28L13 25L9 -3L51 -2C92 -1 123 0 141 0C158 0 187 -1 227 -2L280 -3L283 25L218 28C192 29 182 37 182 58C182 67 183 74 186 93L284 648C320 654 336 656 355 656C457 656 506 612 506 519C506 411 434 323 346 323C324 323 304 328 267 342L269 311C306 293 326 288 355 288C484 288 594 405 594 541C594 642 531 695 412 692L108 692ZM831 334L948 334L1080 330L1099 375L1095 382C1014 378 954 376 876 376L839 376L886 646C918 647 1001 650 1023 650C1085 650 1126 641 1127 626L1135 537L1159 537C1162 601 1169 651 1180 689C1159 691 1129 692 1111 692C1108 692 1097 692 1073 691L953 690C944 689 770 691 760 691L715 692L712 664L766 662C790 661 801 653 801 635C801 621 797 589 792 559L705 55C701 37 689 30 645 23L640 -3L681 -2C712 -1 774 0 794 0L1019 -3C1033 -3 1058 -2 1091 -1L1124 0L1128 36C1130 56 1135 86 1144 135L1149 161L1122 161L1106 101C1096 65 1087 53 1065 48C1045 44 972 39 918 39C877 39 850 40 781 46ZM1654 653C1731 653 1785 639 1841 603L1841 519L1868 519C1873 576 1881 619 1895 665C1812 695 1755 706 1686 706C1594 706 1521 683 1449 632C1332 548 1270 424 1270 274C1270 87 1379 -18 1575 -18C1632 -21 1779 6 1828 37C1848 193 1852 216 1853 219C1855 228 1867 238 1880 240L1912 246L1914 274C1875 270 1840 269 1789 269C1738 269 1702 270 1660 274L1655 246L1689 244C1764 240 1773 236 1773 212C1773 197 1753 84 1748 60C1703 36 1664 27 1610 27C1444 27 1358 120 1358 297C1358 443 1417 653 1654 653Z" stroke="rgb(0,0,0)" stroke-opacity="1" stroke-width="8" fill="rgb(0,0,0)" fill-opacity="1"></path></g></g><g><g transform="matrix(1,0,0,1,44.33746337890625,31)"><path transform="matrix(0.017,0,0,-0.017,0,0)" d="M604 347L604 406L65 406L65 347ZM604 134L604 193L65 193L65 134Z" stroke="rgb(0,0,0)" stroke-opacity="1" stroke-width="8" fill="rgb(0,0,0)" fill-opacity="1"></path></g></g><g><g><g><g><g transform="matrix(1,0,0,1,177.39996337890625,19)"><path transform="matrix(0.017,0,0,-0.017,0,0)" d="M105 664L160 662C184 661 195 653 195 635L112 125C95 34 94 31 54 28L13 25L9 -3L51 -2C92 -1 123 0 141 0C158 0 187 -1 227 -2L280 -3L283 25L218 28C192 29 182 37 182 58C182 67 183 74 186 93L284 648C320 654 336 656 355 656C457 656 506 612 506 519C506 411 434 323 346 323C324 323 304 328 267 342L269 311C306 293 326 288 355 288C484 288 594 405 594 541C594 642 531 695 412 692L108 692Z" stroke="rgb(0,0,0)" stroke-opacity="1" stroke-width="8" fill="rgb(0,0,0)" fill-opacity="1"></path></g></g><g><g transform="matrix(1,0,0,1,191.17498779296875,19)"><path transform="matrix(0.017,0,0,-0.017,0,0)" d="M297 714L242 714L-37 -169L18 -169Z" stroke="rgb(0,0,0)" stroke-opacity="1" stroke-width="8" fill="rgb(0,0,0)" fill-opacity="1"></path></g></g><g><g transform="matrix(1,0,0,1,199.4375,19)"><path transform="matrix(0.017,0,0,-0.017,0,0)" d="M349 664L352 692L238 689C222 689 204 689 161 690L97 692L94 664L141 662C165 661 176 653 176 635L81 55C77 37 65 30 21 23L16 -3L57 -2C88 -1 150 0 170 0L467 -1L500 0C499 25 510 103 523 165L492 165L475 103C466 71 457 54 448 49C435 44 371 39 304 39C255 39 228 40 162 46C165 64 256 605 256 613C263 651 270 658 307 661Z" stroke="rgb(0,0,0)" stroke-opacity="1" stroke-width="8" fill="rgb(0,0,0)" fill-opacity="1"></path></g></g></g></g><g><g><g><g transform="matrix(1,0,0,1,62.5,44)"><path transform="matrix(0.017,0,0,-0.017,0,0)" d="M105 664L161 662C185 661 196 653 196 635C196 621 192 589 187 559L112 125C96 34 94 32 54 28L13 25L9 -3L51 -2C98 0 117 0 141 0L238 -3L264 -3L267 25L218 28C191 30 182 38 182 58C182 67 183 76 186 93L287 648C316 654 336 656 363 656C450 656 496 617 496 543C496 448 418 378 314 378L270 378L267 367C401 172 432 124 507 -3L592 0C593 0 607 -1 626 -3L639 -3L639 24C599 29 588 37 559 79L375 354C430 364 459 376 495 402C553 444 584 499 584 560C584 646 520 693 409 691L108 691ZM1414 425C1414 603 1310 706 1130 706C893 706 719 523 719 272C719 83 813 -18 989 -18C1261 -18 1414 207 1414 425ZM1326 409C1326 221 1237 24 1026 24C882 24 807 110 807 277C807 425 865 664 1099 664C1215 664 1326 610 1326 409ZM1664 334L1781 334L1913 330L1932 375L1928 382C1847 378 1787 376 1709 376L1672 376L1719 646C1751 647 1834 650 1856 650C1918 650 1959 641 1960 626L1968 537L1992 537C1995 601 2002 651 2013 689C1992 691 1962 692 1944 692C1941 692 1930 692 1906 691L1786 690C1777 689 1603 691 1593 691L1548 692L1545 664L1599 662C1623 661 1634 653 1634 635C1634 621 1630 589 1625 559L1538 55C1534 37 1522 30 1478 23L1473 -3L1514 -2C1545 -1 1607 0 1627 0L1852 -3C1866 -3 1891 -2 1924 -1L1957 0L1961 36C1963 56 1968 86 1977 135L1982 161L1955 161L1939 101C1929 65 1920 53 1898 48C1878 44 1805 39 1751 39C1710 39 1683 40 1614 46Z" stroke="rgb(0,0,0)" stroke-opacity="1" stroke-width="8" fill="rgb(0,0,0)" fill-opacity="1"></path></g></g><g><g transform="matrix(1,0,0,1,100.8125,44)"><path transform="matrix(0.017,0,0,-0.017,0,0)" d="M611 37L376 271L611 505L568 547L335 313L101 547L59 505L293 271L59 37L101 -5L335 229L568 -5Z" stroke="rgb(0,0,0)" stroke-opacity="1" stroke-width="8" fill="rgb(0,0,0)" fill-opacity="1"></path></g></g><g><g transform="matrix(1,0,0,1,115.57501220703125,44)"><path transform="matrix(0.017,0,0,-0.017,0,0)" d="M146 266C146 526 243 632 301 700L282 726C225 675 60 542 60 266C60 159 85 58 133 -32C168 -99 200 -138 282 -215L301 -194C255 -137 146 -15 146 266Z" stroke="rgb(0,0,0)" stroke-opacity="1" stroke-width="8" fill="rgb(0,0,0)" fill-opacity="1"></path></g></g><g><g transform="matrix(1,0,0,1,121.2249755859375,44)"><path transform="matrix(0.017,0,0,-0.017,0,0)" d="M418 -3L418 27L366 30C311 33 301 44 301 96L301 700L60 598L67 548L217 614L217 96C217 44 206 33 152 30L96 27L96 -3C250 0 250 0 261 0C292 0 402 -3 418 -3Z" stroke="rgb(0,0,0)" stroke-opacity="1" stroke-width="8" fill="rgb(0,0,0)" fill-opacity="1"></path></g></g><g><g transform="matrix(1,0,0,1,133.11248779296875,44)"><path transform="matrix(0.017,0,0,-0.017,0,0)" d="M555 243L555 299L51 299L51 243Z" stroke="rgb(0,0,0)" stroke-opacity="1" stroke-width="8" fill="rgb(0,0,0)" fill-opacity="1"></path></g></g><g><g transform="matrix(1,0,0,1,146.79998779296875,44)"><path transform="matrix(0.017,0,0,-0.017,0,0)" d="M105 664L160 662C184 661 195 653 195 635L112 125C95 34 94 31 54 28L13 25L9 -3L51 -2C92 -1 123 0 141 0C158 0 187 -1 227 -2L280 -3L283 25L218 28C192 29 182 37 182 58C182 67 183 74 186 93L284 648C320 654 336 656 355 656C457 656 506 612 506 519C506 411 434 323 346 323C324 323 304 328 267 342L269 311C306 293 326 288 355 288C484 288 594 405 594 541C594 642 531 695 412 692L108 692ZM881 204L852 77C848 60 846 42 846 26C846 4 855 -9 870 -9C893 -9 934 17 1016 85L1009 106C985 86 956 59 934 59C925 59 919 68 919 82C919 87 919 90 920 93L1012 472L1002 481L969 463C928 478 911 482 884 482C856 482 836 477 809 464C747 433 714 403 689 354C645 265 614 145 614 67C614 23 629 -11 648 -11C685 -11 765 41 881 204ZM929 414C907 305 888 253 854 201C797 117 736 59 704 59C692 59 686 72 686 99C686 163 714 280 749 360C773 415 796 433 844 433C867 433 885 429 929 414ZM1046 -180C1045 -187 1045 -193 1045 -198C1045 -241 1082 -276 1127 -276C1233 -276 1343 -152 1402 33L1543 473L1532 482C1503 471 1480 465 1458 463L1423 331C1411 284 1376 211 1343 162C1308 111 1259 67 1237 67C1225 67 1216 90 1217 115L1233 322C1235 353 1237 391 1237 419C1237 464 1230 482 1213 482C1200 482 1186 475 1138 442L1056 386L1067 368L1117 398C1122 401 1133 410 1142 410C1156 410 1164 391 1164 358C1164 357 1164 351 1163 343L1146 100L1145 60C1145 18 1163 -11 1188 -11C1225 -11 1309 74 1384 187L1335 16C1284 -161 1234 -234 1164 -234C1129 -234 1102 -207 1102 -172C1102 -167 1103 -159 1104 -150L1094 -146ZM1569 152C1569 46 1614 -11 1697 -11C1752 -11 1812 15 1857 57C1919 116 1963 230 1963 331C1963 425 1913 482 1830 482C1726 482 1569 382 1569 152ZM1793 444C1854 444 1887 399 1887 315C1887 219 1856 113 1812 60C1794 39 1768 27 1737 27C1679 27 1645 72 1645 151C1645 264 1684 387 1733 427C1746 438 1769 444 1793 444ZM2487 473L2480 482L2412 465L2402 414C2387 336 2362 268 2331 221C2272 130 2194 59 2154 59C2146 59 2141 68 2141 85C2141 99 2143 112 2148 137L2205 408C2208 424 2210 438 2210 451C2210 470 2201 482 2187 482C2167 482 2129 461 2055 408L2027 388L2034 368L2066 389C2094 407 2105 412 2114 412C2123 412 2131 403 2131 392C2131 388 2130 378 2129 374L2066 77C2064 68 2062 44 2062 30C2062 7 2077 -11 2097 -11C2160 -11 2281 101 2365 239L2328 97C2321 73 2317 46 2317 31C2317 6 2328 -9 2347 -9C2373 -9 2409 12 2507 85L2497 103L2471 86C2447 70 2421 59 2410 59C2402 59 2397 66 2397 76C2397 112 2472 416 2487 473ZM2675 390L2619 107C2618 99 2606 61 2606 31C2606 6 2617 -9 2636 -9C2671 -9 2706 11 2784 74L2815 99L2805 117L2760 86C2731 66 2711 56 2700 56C2691 56 2686 64 2686 76C2686 102 2700 183 2729 328L2742 390L2849 390L2860 440C2822 436 2788 434 2750 434C2766 528 2777 577 2795 631L2784 646C2764 634 2737 622 2706 610L2681 440C2637 419 2611 408 2593 403L2591 390Z" stroke="rgb(0,0,0)" stroke-opacity="1" stroke-width="8" fill="rgb(0,0,0)" fill-opacity="1"></path></g></g><g><g transform="matrix(1,0,0,1,195.79998779296875,44)"><path transform="matrix(0.017,0,0,-0.017,0,0)" d="M51 726L32 700C87 636 187 526 187 266C187 -10 83 -131 32 -194L51 -215C104 -165 273 -23 273 265C273 542 108 675 51 726Z" stroke="rgb(0,0,0)" stroke-opacity="1" stroke-width="8" fill="rgb(0,0,0)" fill-opacity="1"></path></g></g><g><g transform="matrix(1,0,0,1,204.8499755859375,44)"><path transform="matrix(0.017,0,0,-0.017,0,0)" d="M604 241L604 300L364 300L364 538L305 538L305 300L65 300L65 241L305 241L305 0L364 0L364 241Z" stroke="rgb(0,0,0)" stroke-opacity="1" stroke-width="8" fill="rgb(0,0,0)" fill-opacity="1"></path></g></g><g><g transform="matrix(1,0,0,1,219.61248779296875,44)"><path transform="matrix(0.017,0,0,-0.017,0,0)" d="M316 -3C388 -3 437 8 489 34C645 114 741 265 741 431C741 529 711 599 650 642C604 675 519 693 424 692L220 689L210 689C201 689 198 689 97 692L94 664L147 662C171 661 182 653 182 635C182 621 178 589 173 559L86 55C81 31 56 29 33 23L28 -3L121 0L176 0C211 0 282 -3 316 -3ZM384 655C566 655 649 579 649 415C649 225 549 41 329 41C285 41 236 46 168 56C168 68 169 75 172 93L268 650C291 650 349 655 384 655ZM811 388L818 368L850 389C887 412 890 414 897 414C907 414 915 404 915 391C915 384 911 361 907 347L841 107C833 76 828 49 828 30C828 6 839 -9 858 -9C884 -9 920 12 1018 85L1008 103L982 86C953 67 930 56 921 56C914 56 908 66 908 76C908 86 910 95 915 116L992 420C996 437 998 448 998 456C998 473 989 482 973 482C951 482 914 461 839 408ZM1005 712C976 712 947 679 947 645C947 620 962 604 986 604C1017 604 1041 633 1041 671C1041 695 1026 712 1005 712ZM1220 420C1241 420 1257 421 1283 424C1172 304 1130 221 1130 121C1130 44 1176 -11 1240 -11C1378 -11 1531 236 1531 384C1531 441 1505 482 1469 482C1456 482 1444 478 1436 470L1386 423L1397 404C1406 410 1415 413 1424 413C1451 413 1467 390 1467 350C1467 202 1370 39 1282 39C1233 39 1202 81 1202 146C1202 251 1241 342 1339 464L1329 482C1309 473 1296 470 1268 470C1240 470 1198 472 1169 475L1157 476C1151 477 1146 477 1145 477C1133 477 1124 475 1113 470C1099 443 1088 407 1075 352L1097 352L1114 394C1121 411 1141 422 1165 422C1198 422 1182 420 1220 420ZM1587 388L1594 368L1626 389C1663 412 1666 414 1673 414C1683 414 1691 404 1691 391C1691 384 1687 361 1683 347L1617 107C1609 76 1604 49 1604 30C1604 6 1615 -9 1634 -9C1660 -9 1696 12 1794 85L1784 103L1758 86C1729 67 1706 56 1697 56C1690 56 1684 66 1684 76C1684 86 1686 95 1691 116L1768 420C1772 437 1774 448 1774 456C1774 473 1765 482 1749 482C1727 482 1690 461 1615 408ZM1781 712C1752 712 1723 679 1723 645C1723 620 1738 604 1762 604C1793 604 1817 633 1817 671C1817 695 1802 712 1781 712ZM2313 722L2301 733C2249 707 2213 698 2141 691L2137 670L2185 670C2209 670 2219 663 2219 646C2219 638 2218 629 2217 622L2189 468C2159 477 2132 482 2107 482C2038 482 1944 410 1898 323C1867 265 1847 170 1847 86C1847 21 1862 -11 1891 -11C1918 -11 1955 6 1989 33C2043 77 2076 116 2143 217L2120 126C2109 82 2104 50 2104 24C2104 3 2113 -9 2130 -9C2147 -9 2171 3 2205 28L2286 88L2276 107L2232 76C2218 66 2202 59 2193 59C2185 59 2179 68 2179 82C2179 90 2180 99 2187 128ZM1944 59C1928 59 1919 73 1919 98C1919 224 1965 380 2014 418C2027 428 2046 433 2073 433C2117 433 2146 427 2179 410L2167 351C2130 171 1989 59 1944 59ZM2657 111L2633 94C2580 56 2532 36 2496 36C2449 36 2420 73 2420 133C2420 158 2423 185 2428 214C2445 218 2554 248 2579 259C2664 296 2703 342 2703 404C2703 451 2669 482 2619 482C2551 496 2441 423 2404 349C2374 299 2344 180 2344 113C2344 35 2388 -11 2460 -11C2517 -11 2573 17 2665 92ZM2442 274C2459 343 2479 386 2508 412C2526 428 2557 440 2581 440C2610 440 2629 420 2629 388C2629 344 2594 297 2542 272C2514 258 2478 247 2433 237ZM2741 388L2748 368L2780 389C2817 412 2820 414 2827 414C2838 414 2845 404 2845 389C2845 338 2804 145 2763 2L2770 -9C2795 -2 2818 4 2840 8C2859 134 2880 199 2926 268C2980 352 3055 414 3100 414C3111 414 3117 405 3117 390C3117 372 3114 351 3106 319L3054 107C3045 70 3041 47 3041 31C3041 6 3052 -9 3071 -9C3097 -9 3133 12 3231 85L3221 103L3195 86C3166 67 3144 56 3134 56C3127 56 3121 65 3121 76C3121 81 3122 92 3123 96L3189 372C3196 401 3200 429 3200 446C3200 469 3189 482 3169 482C3127 482 3058 444 2999 389C2961 354 2933 320 2881 247L2919 408C2923 426 2925 438 2925 449C2925 470 2917 482 2902 482C2881 482 2842 460 2769 408ZM3755 722L3743 733C3691 707 3655 698 3583 691L3579 670L3627 670C3651 670 3661 663 3661 646C3661 638 3660 629 3659 622L3631 468C3601 477 3574 482 3549 482C3480 482 3386 410 3340 323C3309 265 3289 170 3289 86C3289 21 3304 -11 3333 -11C3360 -11 3397 6 3431 33C3485 77 3518 116 3585 217L3562 126C3551 82 3546 50 3546 24C3546 3 3555 -9 3572 -9C3589 -9 3613 3 3647 28L3728 88L3718 107L3674 76C3660 66 3644 59 3635 59C3627 59 3621 68 3621 82C3621 90 3622 99 3629 128ZM3386 59C3370 59 3361 73 3361 98C3361 224 3407 380 3456 418C3469 428 3488 433 3515 433C3559 433 3588 427 3621 410L3609 351C3572 171 3431 59 3386 59ZM4072 647L4075 623C4098 632 4109 635 4120 635C4167 635 4203 589 4244 477C4268 410 4307 273 4306 257C4306 257 4306 254 4305 251L4284 125C4267 34 4266 31 4226 28L4178 25L4174 -3L4227 -2C4274 -1 4297 0 4313 0L4410 -3L4436 -3L4439 25L4390 28C4363 30 4354 37 4354 57C4354 63 4355 73 4356 78L4382 246C4391 301 4456 419 4530 512C4588 586 4630 616 4689 626L4695 697C4622 678 4569 636 4494 536C4433 452 4394 384 4366 310C4291 616 4243 704 4151 705C4148 702 4110 672 4087 658ZM4720 388L4727 368L4759 389C4796 412 4799 414 4806 414C4816 414 4824 404 4824 391C4824 384 4820 361 4816 347L4750 107C4742 76 4737 49 4737 30C4737 6 4748 -9 4767 -9C4793 -9 4829 12 4927 85L4917 103L4891 86C4862 67 4839 56 4830 56C4823 56 4817 66 4817 76C4817 86 4819 95 4824 116L4901 420C4905 437 4907 448 4907 456C4907 473 4898 482 4882 482C4860 482 4823 461 4748 408ZM4914 712C4885 712 4856 679 4856 645C4856 620 4871 604 4895 604C4926 604 4950 633 4950 671C4950 695 4935 712 4914 712ZM5291 111L5267 94C5214 56 5166 36 5130 36C5083 36 5054 73 5054 133C5054 158 5057 185 5062 214C5079 218 5188 248 5213 259C5298 296 5337 342 5337 404C5337 451 5303 482 5253 482C5185 496 5075 423 5038 349C5008 299 4978 180 4978 113C4978 35 5022 -11 5094 -11C5151 -11 5207 17 5299 92ZM5076 274C5093 343 5113 386 5142 412C5160 428 5191 440 5215 440C5244 440 5263 420 5263 388C5263 344 5228 297 5176 272C5148 258 5112 247 5067 237ZM5602 722L5590 733C5538 707 5502 698 5430 691L5426 670L5474 670C5498 670 5508 663 5508 648C5508 645 5508 640 5505 622C5494 567 5421 182 5406 132C5393 82 5387 52 5387 31C5387 6 5398 -9 5417 -9C5443 -9 5479 12 5577 85L5567 103L5541 86C5512 67 5490 56 5480 56C5473 56 5467 66 5467 76C5467 82 5468 89 5471 104ZM6111 722L6099 733C6047 707 6011 698 5939 691L5935 670L5983 670C6007 670 6017 663 6017 646C6017 638 6016 629 6015 622L5987 468C5957 477 5930 482 5905 482C5836 482 5742 410 5696 323C5665 265 5645 170 5645 86C5645 21 5660 -11 5689 -11C5716 -11 5753 6 5787 33C5841 77 5874 116 5941 217L5918 126C5907 82 5902 50 5902 24C5902 3 5911 -9 5928 -9C5945 -9 5969 3 6003 28L6084 88L6074 107L6030 76C6016 66 6000 59 5991 59C5983 59 5977 68 5977 82C5977 90 5978 99 5985 128ZM5742 59C5726 59 5717 73 5717 98C5717 224 5763 380 5812 418C5825 428 5844 433 5871 433C5915 433 5944 427 5977 410L5965 351C5928 171 5787 59 5742 59Z" stroke="rgb(0,0,0)" stroke-opacity="1" stroke-width="8" fill="rgb(0,0,0)" fill-opacity="1"></path></g></g></g></g><line style="fill:none;stroke-width:1px;stroke:rgb(0, 0, 0);" x1="62.5" y1="26.54998779296875" x2="323.7749938964844" y2="26.54998779296875"></line></g></g></g></svg>