<svg xmlns="http://www.w3.org/2000/svg" xmlns:xlink="http://www.w3.org/1999/xlink" width="380.5" height="46" style="width:380.5px;height:46px;font-family:Asana-Math, Asana;background:#FFF;"><g><g><g><g transform="matrix(1,0,0,1,2,31)"><path transform="matrix(0.017,0,0,-0.017,0,0)" d="M105 664L160 662C184 661 195 653 195 635L112 125C95 34 94 31 54 28L13 25L9 -3L51 -2C92 -1 123 0 141 0C158 0 187 -1 227 -2L280 -3L283 25L218 28C192 29 182 37 182 58C182 67 183 74 186 93L284 648C320 654 336 656 355 656C457 656 506 612 506 519C506 411 434 323 346 323C324 323 304 328 267 342L269 311C306 293 326 288 355 288C484 288 594 405 594 541C594 642 531 695 412 692L108 692ZM831 334L948 334L1080 330L1099 375L1095 382C1014 378 954 376 876 376L839 376L886 646C918 647 1001 650 1023 650C1085 650 1126 641 1127 626L1135 537L1159 537C1162 601 1169 651 1180 689C1159 691 1129 692 1111 692C1108 692 1097 692 1073 691L953 690C944 689 770 691 760 691L715 692L712 664L766 662C790 661 801 653 801 635C801 621 797 589 792 559L705 55C701 37 689 30 645 23L640 -3L681 -2C712 -1 774 0 794 0L1019 -3C1033 -3 1058 -2 1091 -1L1124 0L1128 36C1130 56 1135 86 1144 135L1149 161L1122 161L1106 101C1096 65 1087 53 1065 48C1045 44 972 39 918 39C877 39 850 40 781 46ZM1654 653C1731 653 1785 639 1841 603L1841 519L1868 519C1873 576 1881 619 1895 665C1812 695 1755 706 1686 706C1594 706 1521 683 1449 632C1332 548 1270 424 1270 274C1270 87 1379 -18 1575 -18C1632 -21 1779 6 1828 37C1848 193 1852 216 1853 219C1855 228 1867 238 1880 240L1912 246L1914 274C1875 270 1840 269 1789 269C1738 269 1702 270 1660 274L1655 246L1689 244C1764 240 1773 236 1773 212C1773 197 1753 84 1748 60C1703 36 1664 27 1610 27C1444 27 1358 120 1358 297C1358 443 1417 653 1654 653Z" stroke="rgb(0,0,0)" stroke-opacity="1" stroke-width="8" fill="rgb(0,0,0)" fill-opacity="1"></path></g></g><g><g transform="matrix(1,0,0,1,44.33746337890625,31)"><path transform="matrix(0.017,0,0,-0.017,0,0)" d="M604 347L604 406L65 406L65 347ZM604 134L604 193L65 193L65 134Z" stroke="rgb(0,0,0)" stroke-opacity="1" stroke-width="8" fill="rgb(0,0,0)" fill-opacity="1"></path></g></g><g><g><g><g><g transform="matrix(1,0,0,1,204.762451171875,19)"><path transform="matrix(0.017,0,0,-0.017,0,0)" d="M105 664L160 662C184 661 195 653 195 635L112 125C95 34 94 31 54 28L13 25L9 -3L51 -2C92 -1 123 0 141 0C158 0 187 -1 227 -2L280 -3L283 25L218 28C192 29 182 37 182 58C182 67 183 74 186 93L284 648C320 654 336 656 355 656C457 656 506 612 506 519C506 411 434 323 346 323C324 323 304 328 267 342L269 311C306 293 326 288 355 288C484 288 594 405 594 541C594 642 531 695 412 692L108 692Z" stroke="rgb(0,0,0)" stroke-opacity="1" stroke-width="8" fill="rgb(0,0,0)" fill-opacity="1"></path></g></g><g><g transform="matrix(1,0,0,1,218.5374755859375,19)"><path transform="matrix(0.017,0,0,-0.017,0,0)" d="M297 714L242 714L-37 -169L18 -169Z" stroke="rgb(0,0,0)" stroke-opacity="1" stroke-width="8" fill="rgb(0,0,0)" fill-opacity="1"></path></g></g><g><g transform="matrix(1,0,0,1,226.79998779296875,19)"><path transform="matrix(0.017,0,0,-0.017,0,0)" d="M349 664L352 692L238 689C222 689 204 689 161 690L97 692L94 664L141 662C165 661 176 653 176 635L81 55C77 37 65 30 21 23L16 -3L57 -2C88 -1 150 0 170 0L467 -1L500 0C499 25 510 103 523 165L492 165L475 103C466 71 457 54 448 49C435 44 371 39 304 39C255 39 228 40 162 46C165 64 256 605 256 613C263 651 270 658 307 661Z" stroke="rgb(0,0,0)" stroke-opacity="1" stroke-width="8" fill="rgb(0,0,0)" fill-opacity="1"></path></g></g></g></g><g><g><g><g transform="matrix(1,0,0,1,62.5,44)"><path transform="matrix(0.017,0,0,-0.017,0,0)" d="M45 284C45 90 152 -18 343 -18C439 -18 510 5 600 67L610 103L600 110C506 53 454 35 376 35C219 35 133 131 133 309C133 447 190 653 418 653C489 653 541 639 597 603L597 519L624 519C629 576 637 619 651 665C575 694 518 706 456 706C276 706 45 578 45 284ZM1055 365C1058 403 1063 435 1071 476C1060 481 1056 482 1051 482C1020 482 989 458 953 407C914 351 875 291 859 256L891 408C895 425 897 438 897 450C897 470 889 482 874 482C853 482 815 461 741 408L713 388L720 368L752 389C780 407 791 412 800 412C810 412 817 403 817 390C817 332 774 126 734 -2L744 -9C759 -4 775 -1 798 4L811 6L837 126C855 209 878 262 922 319C956 363 983 384 1005 384C1020 384 1030 379 1041 365ZM1403 111L1379 94C1326 56 1278 36 1242 36C1195 36 1166 73 1166 133C1166 158 1169 185 1174 214C1191 218 1300 248 1325 259C1410 296 1449 342 1449 404C1449 451 1415 482 1365 482C1297 496 1187 423 1150 349C1120 299 1090 180 1090 113C1090 35 1134 -11 1206 -11C1263 -11 1319 17 1411 92ZM1188 274C1205 343 1225 386 1254 412C1272 428 1303 440 1327 440C1356 440 1375 420 1375 388C1375 344 1340 297 1288 272C1260 258 1224 247 1179 237ZM1494 148C1489 97 1483 62 1472 16C1510 -2 1544 -11 1579 -11C1628 -11 1674 7 1725 47C1776 87 1797 124 1797 174C1797 228 1765 257 1691 271L1648 279C1588 290 1569 307 1569 348C1569 401 1614 442 1671 442C1712 442 1750 424 1766 397L1766 342L1789 342C1793 377 1797 404 1808 455C1769 474 1741 482 1708 482C1656 482 1595 452 1547 404C1521 377 1510 352 1510 316C1510 260 1541 228 1607 215L1670 203C1714 195 1730 177 1730 138C1730 73 1684 29 1613 29C1578 29 1547 40 1519 64L1519 148ZM2193 330L2216 330C2224 395 2231 432 2240 458C2216 473 2181 482 2144 482C2099 483 2026 463 1969 400C1915 352 1876 241 1876 136C1876 40 1918 -11 1998 -11C2052 -11 2100 9 2155 54L2205 95L2197 115L2182 105C2110 57 2072 40 2037 40C1981 40 1952 80 1952 159C1952 267 1987 371 2036 409C2057 425 2081 433 2112 433C2157 433 2193 414 2193 390ZM2291 388L2298 368L2330 389C2367 412 2370 414 2377 414C2387 414 2395 404 2395 391C2395 384 2391 361 2387 347L2321 107C2313 76 2308 49 2308 30C2308 6 2319 -9 2338 -9C2364 -9 2400 12 2498 85L2488 103L2462 86C2433 67 2410 56 2401 56C2394 56 2388 66 2388 76C2388 86 2390 95 2395 116L2472 420C2476 437 2478 448 2478 456C2478 473 2469 482 2453 482C2431 482 2394 461 2319 408ZM2485 712C2456 712 2427 679 2427 645C2427 620 2442 604 2466 604C2497 604 2521 633 2521 671C2521 695 2506 712 2485 712ZM3264 103L3238 86C3209 67 3187 56 3177 56C3170 56 3164 65 3164 76C3164 86 3166 95 3171 116L3246 413C3250 430 3253 446 3253 454C3253 471 3243 482 3227 482C3198 482 3160 464 3099 421C3036 376 3001 341 2952 272L2982 409C2986 429 2989 444 2989 451C2989 470 2979 482 2963 482C2933 482 2887 460 2832 418C2788 384 2768 363 2703 275L2736 408C2740 424 2742 439 2742 451C2742 470 2733 482 2719 482C2698 482 2660 461 2586 408L2558 388L2565 368C2602 391 2637 414 2644 414C2655 414 2662 404 2662 389C2662 338 2621 145 2580 2L2583 -9L2651 6L2673 108C2697 219 2724 278 2779 338C2821 384 2866 414 2894 414C2901 414 2905 406 2905 393C2905 358 2883 244 2842 69L2826 2L2831 -9L2900 6L2921 113C2937 194 2971 269 3015 318C3070 379 3120 414 3152 414C3160 414 3165 405 3165 389C3165 365 3162 351 3140 264C3100 105 3084 84 3084 31C3084 6 3095 -9 3114 -9C3140 -9 3176 12 3274 85ZM3639 111L3615 94C3562 56 3514 36 3478 36C3431 36 3402 73 3402 133C3402 158 3405 185 3410 214C3427 218 3536 248 3561 259C3646 296 3685 342 3685 404C3685 451 3651 482 3601 482C3533 496 3423 423 3386 349C3356 299 3326 180 3326 113C3326 35 3370 -11 3442 -11C3499 -11 3555 17 3647 92ZM3424 274C3441 343 3461 386 3490 412C3508 428 3539 440 3563 440C3592 440 3611 420 3611 388C3611 344 3576 297 3524 272C3496 258 3460 247 3415 237ZM3723 388L3730 368L3762 389C3799 412 3802 414 3809 414C3820 414 3827 404 3827 389C3827 338 3786 145 3745 2L3752 -9C3777 -2 3800 4 3822 8C3841 134 3862 199 3908 268C3962 352 4037 414 4082 414C4093 414 4099 405 4099 390C4099 372 4096 351 4088 319L4036 107C4027 70 4023 47 4023 31C4023 6 4034 -9 4053 -9C4079 -9 4115 12 4213 85L4203 103L4177 86C4148 67 4126 56 4116 56C4109 56 4103 65 4103 76C4103 81 4104 92 4105 96L4171 372C4178 401 4182 429 4182 446C4182 469 4171 482 4151 482C4109 482 4040 444 3981 389C3943 354 3915 320 3863 247L3901 408C3905 426 3907 438 3907 449C3907 470 3899 482 3884 482C3863 482 3824 460 3751 408ZM4379 390L4323 107C4322 99 4310 61 4310 31C4310 6 4321 -9 4340 -9C4375 -9 4410 11 4488 74L4519 99L4509 117L4464 86C4435 66 4415 56 4404 56C4395 56 4390 64 4390 76C4390 102 4404 183 4433 328L4446 390L4553 390L4564 440C4526 436 4492 434 4454 434C4470 528 4481 577 4499 631L4488 646C4468 634 4441 622 4410 610L4385 440C4341 419 4315 408 4297 403L4295 390ZM4603 152C4603 46 4648 -11 4731 -11C4786 -11 4846 15 4891 57C4953 116 4997 230 4997 331C4997 425 4947 482 4864 482C4760 482 4603 382 4603 152ZM4827 444C4888 444 4921 399 4921 315C4921 219 4890 113 4846 60C4828 39 4802 27 4771 27C4713 27 4679 72 4679 151C4679 264 4718 387 4767 427C4780 438 4803 444 4827 444ZM5383 664L5439 662C5463 661 5474 653 5474 635C5474 621 5470 589 5465 559L5390 125C5374 34 5372 32 5332 28L5291 25L5287 -3L5329 -2C5376 0 5395 0 5419 0L5516 -3L5542 -3L5545 25L5496 28C5469 30 5460 38 5460 58C5460 67 5461 76 5464 93L5565 648C5594 654 5614 656 5641 656C5728 656 5774 617 5774 543C5774 448 5696 378 5592 378L5548 378L5545 367C5679 172 5710 124 5785 -3L5870 0C5871 0 5885 -1 5904 -3L5917 -3L5917 24C5877 29 5866 37 5837 79L5653 354C5708 364 5737 376 5773 402C5831 444 5862 499 5862 560C5862 646 5798 693 5687 691L5386 691ZM6272 111L6248 94C6195 56 6147 36 6111 36C6064 36 6035 73 6035 133C6035 158 6038 185 6043 214C6060 218 6169 248 6194 259C6279 296 6318 342 6318 404C6318 451 6284 482 6234 482C6166 496 6056 423 6019 349C5989 299 5959 180 5959 113C5959 35 6003 -11 6075 -11C6132 -11 6188 17 6280 92ZM6057 274C6074 343 6094 386 6123 412C6141 428 6172 440 6196 440C6225 440 6244 420 6244 388C6244 344 6209 297 6157 272C6129 258 6093 247 6048 237ZM6674 330L6697 330C6705 395 6712 432 6721 458C6697 473 6662 482 6625 482C6580 483 6507 463 6450 400C6396 352 6357 241 6357 136C6357 40 6399 -11 6479 -11C6533 -11 6581 9 6636 54L6686 95L6678 115L6663 105C6591 57 6553 40 6518 40C6462 40 6433 80 6433 159C6433 267 6468 371 6517 409C6538 425 6562 433 6593 433C6638 433 6674 414 6674 390ZM7066 111L7042 94C6989 56 6941 36 6905 36C6858 36 6829 73 6829 133C6829 158 6832 185 6837 214C6854 218 6963 248 6988 259C7073 296 7112 342 7112 404C7112 451 7078 482 7028 482C6960 496 6850 423 6813 349C6783 299 6753 180 6753 113C6753 35 6797 -11 6869 -11C6926 -11 6982 17 7074 92ZM6851 274C6868 343 6888 386 6917 412C6935 428 6966 440 6990 440C7019 440 7038 420 7038 388C7038 344 7003 297 6951 272C6923 258 6887 247 6842 237ZM7160 388L7167 368L7199 389C7236 412 7239 414 7246 414C7256 414 7264 404 7264 391C7264 384 7260 361 7256 347L7190 107C7182 76 7177 49 7177 30C7177 6 7188 -9 7207 -9C7233 -9 7269 12 7367 85L7357 103L7331 86C7302 67 7279 56 7270 56C7263 56 7257 66 7257 76C7257 86 7259 95 7264 116L7341 420C7345 437 7347 448 7347 456C7347 473 7338 482 7322 482C7300 482 7263 461 7188 408ZM7354 712C7325 712 7296 679 7296 645C7296 620 7311 604 7335 604C7366 604 7390 633 7390 671C7390 695 7375 712 7354 712ZM7528 390L7472 107C7471 99 7459 61 7459 31C7459 6 7470 -9 7489 -9C7524 -9 7559 11 7637 74L7668 99L7658 117L7613 86C7584 66 7564 56 7553 56C7544 56 7539 64 7539 76C7539 102 7553 183 7582 328L7595 390L7702 390L7713 440C7675 436 7641 434 7603 434C7619 528 7630 577 7648 631L7637 646C7617 634 7590 622 7559 610L7534 440C7490 419 7464 408 7446 403L7444 390ZM8006 204L7977 77C7973 60 7971 42 7971 26C7971 4 7980 -9 7995 -9C8018 -9 8059 17 8141 85L8134 106C8110 86 8081 59 8059 59C8050 59 8044 68 8044 82C8044 87 8044 90 8045 93L8137 472L8127 481L8094 463C8053 478 8036 482 8009 482C7981 482 7961 477 7934 464C7872 433 7839 403 7814 354C7770 265 7739 145 7739 67C7739 23 7754 -11 7773 -11C7810 -11 7890 41 8006 204ZM8054 414C8032 305 8013 253 7979 201C7922 117 7861 59 7829 59C7817 59 7811 72 7811 99C7811 163 7839 280 7874 360C7898 415 7921 433 7969 433C7992 433 8010 429 8054 414ZM8209 148C8204 97 8198 62 8187 16C8225 -2 8259 -11 8294 -11C8343 -11 8389 7 8440 47C8491 87 8512 124 8512 174C8512 228 8480 257 8406 271L8363 279C8303 290 8284 307 8284 348C8284 401 8329 442 8386 442C8427 442 8465 424 8481 397L8481 342L8504 342C8508 377 8512 404 8523 455C8484 474 8456 482 8423 482C8371 482 8310 452 8262 404C8236 377 8225 352 8225 316C8225 260 8256 228 8322 215L8385 203C8429 195 8445 177 8445 138C8445 73 8399 29 8328 29C8293 29 8262 40 8234 64L8234 148ZM9274 253C9274 366 9193 446 9079 446C9031 446 8995 443 8942 396L8942 605L9247 604L9247 689L8890 690L8890 322L8910 316C8957 363 8984 377 9033 377C9129 377 9189 309 9189 201C9189 90 9125 25 9016 25C8962 25 8912 43 8898 69L8852 151L8828 137C8851 80 8863 48 8877 4C8905 -11 8945 -20 8988 -20C9116 -20 9274 89 9274 253ZM9834 204L9805 77C9801 60 9799 42 9799 26C9799 4 9808 -9 9823 -9C9846 -9 9887 17 9969 85L9962 106C9938 86 9909 59 9887 59C9878 59 9872 68 9872 82C9872 87 9872 90 9873 93L9965 472L9955 481L9922 463C9881 478 9864 482 9837 482C9809 482 9789 477 9762 464C9700 433 9667 403 9642 354C9598 265 9567 145 9567 67C9567 23 9582 -11 9601 -11C9638 -11 9718 41 9834 204ZM9882 414C9860 305 9841 253 9807 201C9750 117 9689 59 9657 59C9645 59 9639 72 9639 99C9639 163 9667 280 9702 360C9726 415 9749 433 9797 433C9820 433 9838 429 9882 414ZM10030 388L10037 368L10069 389C10106 412 10109 414 10116 414C10127 414 10134 404 10134 389C10134 338 10093 145 10052 2L10059 -9C10084 -2 10107 4 10129 8C10148 134 10169 199 10215 268C10269 352 10344 414 10389 414C10400 414 10406 405 10406 390C10406 372 10403 351 10395 319L10343 107C10334 70 10330 47 10330 31C10330 6 10341 -9 10360 -9C10386 -9 10422 12 10520 85L10510 103L10484 86C10455 67 10433 56 10423 56C10416 56 10410 65 10410 76C10410 81 10411 92 10412 96L10478 372C10485 401 10489 429 10489 446C10489 469 10478 482 10458 482C10416 482 10347 444 10288 389C10250 354 10222 320 10170 247L10208 408C10212 426 10214 438 10214 449C10214 470 10206 482 10191 482C10170 482 10131 460 10058 408ZM10578 152C10578 46 10623 -11 10706 -11C10761 -11 10821 15 10866 57C10928 116 10972 230 10972 331C10972 425 10922 482 10839 482C10735 482 10578 382 10578 152ZM10802 444C10863 444 10896 399 10896 315C10896 219 10865 113 10821 60C10803 39 10777 27 10746 27C10688 27 10654 72 10654 151C10654 264 10693 387 10742 427C10755 438 10778 444 10802 444ZM11035 148C11030 97 11024 62 11013 16C11051 -2 11085 -11 11120 -11C11169 -11 11215 7 11266 47C11317 87 11338 124 11338 174C11338 228 11306 257 11232 271L11189 279C11129 290 11110 307 11110 348C11110 401 11155 442 11212 442C11253 442 11291 424 11307 397L11307 342L11330 342C11334 377 11338 404 11349 455C11310 474 11282 482 11249 482C11197 482 11136 452 11088 404C11062 377 11051 352 11051 316C11051 260 11082 228 11148 215L11211 203C11255 195 11271 177 11271 138C11271 73 11225 29 11154 29C11119 29 11088 40 11060 64L11060 148Z" stroke="rgb(0,0,0)" stroke-opacity="1" stroke-width="8" fill="rgb(0,0,0)" fill-opacity="1"></path></g></g><g><g transform="matrix(1,0,0,1,259.574951171875,44)"><path transform="matrix(0.017,0,0,-0.017,0,0)" d="M604 241L604 300L364 300L364 538L305 538L305 300L65 300L65 241L305 241L305 0L364 0L364 241Z" stroke="rgb(0,0,0)" stroke-opacity="1" stroke-width="8" fill="rgb(0,0,0)" fill-opacity="1"></path></g></g><g><g transform="matrix(1,0,0,1,274.33746337890625,44)"><path transform="matrix(0.017,0,0,-0.017,0,0)" d="M316 -3C388 -3 437 8 489 34C645 114 741 265 741 431C741 529 711 599 650 642C604 675 519 693 424 692L220 689L210 689C201 689 198 689 97 692L94 664L147 662C171 661 182 653 182 635C182 621 178 589 173 559L86 55C81 31 56 29 33 23L28 -3L121 0L176 0C211 0 282 -3 316 -3ZM384 655C566 655 649 579 649 415C649 225 549 41 329 41C285 41 236 46 168 56C168 68 169 75 172 93L268 650C291 650 349 655 384 655ZM811 388L818 368L850 389C887 412 890 414 897 414C907 414 915 404 915 391C915 384 911 361 907 347L841 107C833 76 828 49 828 30C828 6 839 -9 858 -9C884 -9 920 12 1018 85L1008 103L982 86C953 67 930 56 921 56C914 56 908 66 908 76C908 86 910 95 915 116L992 420C996 437 998 448 998 456C998 473 989 482 973 482C951 482 914 461 839 408ZM1005 712C976 712 947 679 947 645C947 620 962 604 986 604C1017 604 1041 633 1041 671C1041 695 1026 712 1005 712ZM1220 420C1241 420 1257 421 1283 424C1172 304 1130 221 1130 121C1130 44 1176 -11 1240 -11C1378 -11 1531 236 1531 384C1531 441 1505 482 1469 482C1456 482 1444 478 1436 470L1386 423L1397 404C1406 410 1415 413 1424 413C1451 413 1467 390 1467 350C1467 202 1370 39 1282 39C1233 39 1202 81 1202 146C1202 251 1241 342 1339 464L1329 482C1309 473 1296 470 1268 470C1240 470 1198 472 1169 475L1157 476C1151 477 1146 477 1145 477C1133 477 1124 475 1113 470C1099 443 1088 407 1075 352L1097 352L1114 394C1121 411 1141 422 1165 422C1198 422 1182 420 1220 420ZM1587 388L1594 368L1626 389C1663 412 1666 414 1673 414C1683 414 1691 404 1691 391C1691 384 1687 361 1683 347L1617 107C1609 76 1604 49 1604 30C1604 6 1615 -9 1634 -9C1660 -9 1696 12 1794 85L1784 103L1758 86C1729 67 1706 56 1697 56C1690 56 1684 66 1684 76C1684 86 1686 95 1691 116L1768 420C1772 437 1774 448 1774 456C1774 473 1765 482 1749 482C1727 482 1690 461 1615 408ZM1781 712C1752 712 1723 679 1723 645C1723 620 1738 604 1762 604C1793 604 1817 633 1817 671C1817 695 1802 712 1781 712ZM2313 722L2301 733C2249 707 2213 698 2141 691L2137 670L2185 670C2209 670 2219 663 2219 646C2219 638 2218 629 2217 622L2189 468C2159 477 2132 482 2107 482C2038 482 1944 410 1898 323C1867 265 1847 170 1847 86C1847 21 1862 -11 1891 -11C1918 -11 1955 6 1989 33C2043 77 2076 116 2143 217L2120 126C2109 82 2104 50 2104 24C2104 3 2113 -9 2130 -9C2147 -9 2171 3 2205 28L2286 88L2276 107L2232 76C2218 66 2202 59 2193 59C2185 59 2179 68 2179 82C2179 90 2180 99 2187 128ZM1944 59C1928 59 1919 73 1919 98C1919 224 1965 380 2014 418C2027 428 2046 433 2073 433C2117 433 2146 427 2179 410L2167 351C2130 171 1989 59 1944 59ZM2657 111L2633 94C2580 56 2532 36 2496 36C2449 36 2420 73 2420 133C2420 158 2423 185 2428 214C2445 218 2554 248 2579 259C2664 296 2703 342 2703 404C2703 451 2669 482 2619 482C2551 496 2441 423 2404 349C2374 299 2344 180 2344 113C2344 35 2388 -11 2460 -11C2517 -11 2573 17 2665 92ZM2442 274C2459 343 2479 386 2508 412C2526 428 2557 440 2581 440C2610 440 2629 420 2629 388C2629 344 2594 297 2542 272C2514 258 2478 247 2433 237ZM2741 388L2748 368L2780 389C2817 412 2820 414 2827 414C2838 414 2845 404 2845 389C2845 338 2804 145 2763 2L2770 -9C2795 -2 2818 4 2840 8C2859 134 2880 199 2926 268C2980 352 3055 414 3100 414C3111 414 3117 405 3117 390C3117 372 3114 351 3106 319L3054 107C3045 70 3041 47 3041 31C3041 6 3052 -9 3071 -9C3097 -9 3133 12 3231 85L3221 103L3195 86C3166 67 3144 56 3134 56C3127 56 3121 65 3121 76C3121 81 3122 92 3123 96L3189 372C3196 401 3200 429 3200 446C3200 469 3189 482 3169 482C3127 482 3058 444 2999 389C2961 354 2933 320 2881 247L2919 408C2923 426 2925 438 2925 449C2925 470 2917 482 2902 482C2881 482 2842 460 2769 408ZM3755 722L3743 733C3691 707 3655 698 3583 691L3579 670L3627 670C3651 670 3661 663 3661 646C3661 638 3660 629 3659 622L3631 468C3601 477 3574 482 3549 482C3480 482 3386 410 3340 323C3309 265 3289 170 3289 86C3289 21 3304 -11 3333 -11C3360 -11 3397 6 3431 33C3485 77 3518 116 3585 217L3562 126C3551 82 3546 50 3546 24C3546 3 3555 -9 3572 -9C3589 -9 3613 3 3647 28L3728 88L3718 107L3674 76C3660 66 3644 59 3635 59C3627 59 3621 68 3621 82C3621 90 3622 99 3629 128ZM3386 59C3370 59 3361 73 3361 98C3361 224 3407 380 3456 418C3469 428 3488 433 3515 433C3559 433 3588 427 3621 410L3609 351C3572 171 3431 59 3386 59ZM4072 647L4075 623C4098 632 4109 635 4120 635C4167 635 4203 589 4244 477C4268 410 4307 273 4306 257C4306 257 4306 254 4305 251L4284 125C4267 34 4266 31 4226 28L4178 25L4174 -3L4227 -2C4274 -1 4297 0 4313 0L4410 -3L4436 -3L4439 25L4390 28C4363 30 4354 37 4354 57C4354 63 4355 73 4356 78L4382 246C4391 301 4456 419 4530 512C4588 586 4630 616 4689 626L4695 697C4622 678 4569 636 4494 536C4433 452 4394 384 4366 310C4291 616 4243 704 4151 705C4148 702 4110 672 4087 658ZM4720 388L4727 368L4759 389C4796 412 4799 414 4806 414C4816 414 4824 404 4824 391C4824 384 4820 361 4816 347L4750 107C4742 76 4737 49 4737 30C4737 6 4748 -9 4767 -9C4793 -9 4829 12 4927 85L4917 103L4891 86C4862 67 4839 56 4830 56C4823 56 4817 66 4817 76C4817 86 4819 95 4824 116L4901 420C4905 437 4907 448 4907 456C4907 473 4898 482 4882 482C4860 482 4823 461 4748 408ZM4914 712C4885 712 4856 679 4856 645C4856 620 4871 604 4895 604C4926 604 4950 633 4950 671C4950 695 4935 712 4914 712ZM5291 111L5267 94C5214 56 5166 36 5130 36C5083 36 5054 73 5054 133C5054 158 5057 185 5062 214C5079 218 5188 248 5213 259C5298 296 5337 342 5337 404C5337 451 5303 482 5253 482C5185 496 5075 423 5038 349C5008 299 4978 180 4978 113C4978 35 5022 -11 5094 -11C5151 -11 5207 17 5299 92ZM5076 274C5093 343 5113 386 5142 412C5160 428 5191 440 5215 440C5244 440 5263 420 5263 388C5263 344 5228 297 5176 272C5148 258 5112 247 5067 237ZM5602 722L5590 733C5538 707 5502 698 5430 691L5426 670L5474 670C5498 670 5508 663 5508 648C5508 645 5508 640 5505 622C5494 567 5421 182 5406 132C5393 82 5387 52 5387 31C5387 6 5398 -9 5417 -9C5443 -9 5479 12 5577 85L5567 103L5541 86C5512 67 5490 56 5480 56C5473 56 5467 66 5467 76C5467 82 5468 89 5471 104ZM6111 722L6099 733C6047 707 6011 698 5939 691L5935 670L5983 670C6007 670 6017 663 6017 646C6017 638 6016 629 6015 622L5987 468C5957 477 5930 482 5905 482C5836 482 5742 410 5696 323C5665 265 5645 170 5645 86C5645 21 5660 -11 5689 -11C5716 -11 5753 6 5787 33C5841 77 5874 116 5941 217L5918 126C5907 82 5902 50 5902 24C5902 3 5911 -9 5928 -9C5945 -9 5969 3 6003 28L6084 88L6074 107L6030 76C6016 66 6000 59 5991 59C5983 59 5977 68 5977 82C5977 90 5978 99 5985 128ZM5742 59C5726 59 5717 73 5717 98C5717 224 5763 380 5812 418C5825 428 5844 433 5871 433C5915 433 5944 427 5977 410L5965 351C5928 171 5787 59 5742 59Z" stroke="rgb(0,0,0)" stroke-opacity="1" stroke-width="8" fill="rgb(0,0,0)" fill-opacity="1"></path></g></g></g></g><line style="fill:none;stroke-width:1px;stroke:rgb(0, 0, 0);" x1="62.5" y1="26.550003051757812" x2="378.5" y2="26.550003051757812"></line></g></g></g></svg>