<svg xmlns="http://www.w3.org/2000/svg" xmlns:xlink="http://www.w3.org/1999/xlink" width="380.6875114440918" height="51.63750076293945" style="width:380.6875114440918px;height:51.63750076293945px;font-family:Asana-Math, Asana;background:transparent;"><g><g><g><g transform="matrix(1,0,0,1,2,32.712493896484375)"><path transform="matrix(0.017,0,0,-0.017,0,0)" d="M582 103L237 692L75 692L70 664L105 662C150 660 184 615 185 606L92 102C80 40 74 32 38 28L7 25L2 -3L113 0C125 0 126 0 223 -3L228 25L186 28C146 31 137 39 137 72C137 80 138 91 140 102L220 566L558 -11L608 -11L702 542C723 655 725 659 762 662L799 664L802 691L589 692L584 664L631 662C657 661 667 654 667 638C667 631 584 116 582 103ZM882 664L937 662C961 661 972 653 972 635L889 125C872 34 871 31 831 28L790 25L786 -3L828 -2C869 -1 900 0 918 0C935 0 964 -1 1004 -2L1057 -3L1060 25L995 28C969 29 959 37 959 58C959 67 960 74 963 93L1061 648C1097 654 1113 656 1132 656C1234 656 1283 612 1283 519C1283 411 1211 323 1123 323C1101 323 1081 328 1044 342L1046 311C1083 293 1103 288 1132 288C1261 288 1371 405 1371 541C1371 642 1308 695 1189 692L885 692ZM1697 96L1626 624C1624 646 1628 661 1668 662L1710 664L1710 692L1669 691C1632 690 1604 689 1586 689C1568 689 1540 690 1503 691L1462 692L1462 664L1487 662C1531 659 1539 651 1546 614L1634 -8L1683 -8L2061 611C2086 651 2094 658 2123 662L2141 664L2141 692L2111 691C2084 690 2061 689 2045 689C2035 689 2008 690 1967 691L1921 692L1921 664L1947 662C1985 659 2004 649 2004 630C2004 619 2000 608 1988 588Z" stroke="rgb(0,0,0)" stroke-opacity="1" stroke-width="8" fill="rgb(0,0,0)" fill-opacity="1"></path></g></g><g><g transform="matrix(1,0,0,1,42.07501220703125,32.712493896484375)"><path transform="matrix(0.017,0,0,-0.017,0,0)" d="M146 266C146 526 243 632 301 700L282 726C225 675 60 542 60 266C60 159 85 58 133 -32C168 -99 200 -138 282 -215L301 -194C255 -137 146 -15 146 266Z" stroke="rgb(0,0,0)" stroke-opacity="1" stroke-width="8" fill="rgb(0,0,0)" fill-opacity="1"></path></g></g><g><g transform="matrix(1,0,0,1,47.72503662109375,32.712493896484375)"><path transform="matrix(0.017,0,0,-0.017,0,0)" d="M310 96L239 624C237 646 241 661 281 662L323 664L323 692L282 691C245 690 217 689 199 689C181 689 153 690 116 691L75 692L75 664L100 662C144 659 152 651 159 614L247 -8L296 -8L674 611C699 651 707 658 736 662L754 664L754 692L724 691C697 690 674 689 658 689C648 689 621 690 580 691L534 692L534 664L560 662C598 659 617 649 617 630C617 619 613 608 601 588ZM992 204L963 77C959 60 957 42 957 26C957 4 966 -9 981 -9C1004 -9 1045 17 1127 85L1120 106C1096 86 1067 59 1045 59C1036 59 1030 68 1030 82C1030 87 1030 90 1031 93L1123 472L1113 481L1080 463C1039 478 1022 482 995 482C967 482 947 477 920 464C858 433 825 403 800 354C756 265 725 145 725 67C725 23 740 -11 759 -11C796 -11 876 41 992 204ZM1040 414C1018 305 999 253 965 201C908 117 847 59 815 59C803 59 797 72 797 99C797 163 825 280 860 360C884 415 907 433 955 433C978 433 996 429 1040 414ZM1415 722L1403 733C1351 707 1315 698 1243 691L1239 670L1287 670C1311 670 1321 663 1321 648C1321 645 1321 640 1318 622C1307 567 1234 182 1219 132C1206 82 1200 52 1200 31C1200 6 1211 -9 1230 -9C1256 -9 1292 12 1390 85L1380 103L1354 86C1325 67 1303 56 1293 56C1286 56 1280 66 1280 76C1280 82 1281 89 1284 104ZM1458 152C1458 46 1503 -11 1586 -11C1641 -11 1701 15 1746 57C1808 116 1852 230 1852 331C1852 425 1802 482 1719 482C1615 482 1458 382 1458 152ZM1682 444C1743 444 1776 399 1776 315C1776 219 1745 113 1701 60C1683 39 1657 27 1626 27C1568 27 1534 72 1534 151C1534 264 1573 387 1622 427C1635 438 1658 444 1682 444ZM2252 365C2255 403 2260 435 2268 476C2257 481 2253 482 2248 482C2217 482 2186 458 2150 407C2111 351 2072 291 2056 256L2088 408C2092 425 2094 438 2094 450C2094 470 2086 482 2071 482C2050 482 2012 461 1938 408L1910 388L1917 368L1949 389C1977 407 1988 412 1997 412C2007 412 2014 403 2014 390C2014 332 1971 126 1931 -2L1941 -9C1956 -4 1972 -1 1995 4L2008 6L2034 126C2052 209 2075 262 2119 319C2153 363 2180 384 2202 384C2217 384 2227 379 2238 365ZM2626 664L2681 662C2705 661 2716 653 2716 635L2633 125C2616 34 2615 31 2575 28L2534 25L2530 -3L2572 -2C2613 -1 2644 0 2662 0C2679 0 2708 -1 2748 -2L2801 -3L2804 25L2739 28C2713 29 2703 37 2703 58C2703 67 2704 74 2707 93L2805 648C2841 654 2857 656 2876 656C2978 656 3027 612 3027 519C3027 411 2955 323 2867 323C2845 323 2825 328 2788 342L2790 311C2827 293 2847 288 2876 288C3005 288 3115 405 3115 541C3115 642 3052 695 2933 692L2629 692ZM3499 365C3502 403 3507 435 3515 476C3504 481 3500 482 3495 482C3464 482 3433 458 3397 407C3358 351 3319 291 3303 256L3335 408C3339 425 3341 438 3341 450C3341 470 3333 482 3318 482C3297 482 3259 461 3185 408L3157 388L3164 368L3196 389C3224 407 3235 412 3244 412C3254 412 3261 403 3261 390C3261 332 3218 126 3178 -2L3188 -9C3203 -4 3219 -1 3242 4L3255 6L3281 126C3299 209 3322 262 3366 319C3400 363 3427 384 3449 384C3464 384 3474 379 3485 365ZM3847 111L3823 94C3770 56 3722 36 3686 36C3639 36 3610 73 3610 133C3610 158 3613 185 3618 214C3635 218 3744 248 3769 259C3854 296 3893 342 3893 404C3893 451 3859 482 3809 482C3741 496 3631 423 3594 349C3564 299 3534 180 3534 113C3534 35 3578 -11 3650 -11C3707 -11 3763 17 3855 92ZM3632 274C3649 343 3669 386 3698 412C3716 428 3747 440 3771 440C3800 440 3819 420 3819 388C3819 344 3784 297 3732 272C3704 258 3668 247 3623 237ZM3938 148C3933 97 3927 62 3916 16C3954 -2 3988 -11 4023 -11C4072 -11 4118 7 4169 47C4220 87 4241 124 4241 174C4241 228 4209 257 4135 271L4092 279C4032 290 4013 307 4013 348C4013 401 4058 442 4115 442C4156 442 4194 424 4210 397L4210 342L4233 342C4237 377 4241 404 4252 455C4213 474 4185 482 4152 482C4100 482 4039 452 3991 404C3965 377 3954 352 3954 316C3954 260 3985 228 4051 215L4114 203C4158 195 4174 177 4174 138C4174 73 4128 29 4057 29C4022 29 3991 40 3963 64L3963 148ZM4623 111L4599 94C4546 56 4498 36 4462 36C4415 36 4386 73 4386 133C4386 158 4389 185 4394 214C4411 218 4520 248 4545 259C4630 296 4669 342 4669 404C4669 451 4635 482 4585 482C4517 496 4407 423 4370 349C4340 299 4310 180 4310 113C4310 35 4354 -11 4426 -11C4483 -11 4539 17 4631 92ZM4408 274C4425 343 4445 386 4474 412C4492 428 4523 440 4547 440C4576 440 4595 420 4595 388C4595 344 4560 297 4508 272C4480 258 4444 247 4399 237ZM4707 388L4714 368L4746 389C4783 412 4786 414 4793 414C4804 414 4811 404 4811 389C4811 338 4770 145 4729 2L4736 -9C4761 -2 4784 4 4806 8C4825 134 4846 199 4892 268C4946 352 5021 414 5066 414C5077 414 5083 405 5083 390C5083 372 5080 351 5072 319L5020 107C5011 70 5007 47 5007 31C5007 6 5018 -9 5037 -9C5063 -9 5099 12 5197 85L5187 103L5161 86C5132 67 5110 56 5100 56C5093 56 5087 65 5087 76C5087 81 5088 92 5089 96L5155 372C5162 401 5166 429 5166 446C5166 469 5155 482 5135 482C5093 482 5024 444 4965 389C4927 354 4899 320 4847 247L4885 408C4889 426 4891 438 4891 449C4891 470 4883 482 4868 482C4847 482 4808 460 4735 408ZM5363 390L5307 107C5306 99 5294 61 5294 31C5294 6 5305 -9 5324 -9C5359 -9 5394 11 5472 74L5503 99L5493 117L5448 86C5419 66 5399 56 5388 56C5379 56 5374 64 5374 76C5374 102 5388 183 5417 328L5430 390L5537 390L5548 440C5510 436 5476 434 5438 434C5454 528 5465 577 5483 631L5472 646C5452 634 5425 622 5394 610L5369 440C5325 419 5299 408 5281 403L5279 390ZM5898 111L5874 94C5821 56 5773 36 5737 36C5690 36 5661 73 5661 133C5661 158 5664 185 5669 214C5686 218 5795 248 5820 259C5905 296 5944 342 5944 404C5944 451 5910 482 5860 482C5792 496 5682 423 5645 349C5615 299 5585 180 5585 113C5585 35 5629 -11 5701 -11C5758 -11 5814 17 5906 92ZM5683 274C5700 343 5720 386 5749 412C5767 428 5798 440 5822 440C5851 440 5870 420 5870 388C5870 344 5835 297 5783 272C5755 258 5719 247 5674 237Z" stroke="rgb(0,0,0)" stroke-opacity="1" stroke-width="8" fill="rgb(0,0,0)" fill-opacity="1"></path></g></g><g><g transform="matrix(1,0,0,1,149.01251220703125,32.712493896484375)"><path transform="matrix(0.017,0,0,-0.017,0,0)" d="M51 726L32 700C87 636 187 526 187 266C187 -10 83 -131 32 -194L51 -215C104 -165 273 -23 273 265C273 542 108 675 51 726Z" stroke="rgb(0,0,0)" stroke-opacity="1" stroke-width="8" fill="rgb(0,0,0)" fill-opacity="1"></path></g></g><g><g transform="matrix(1,0,0,1,154.66253662109375,32.712493896484375)"><path transform="matrix(0.017,0,0,-0.017,0,0)" d="M732 722L720 733C668 707 632 698 560 691L556 670L604 670C628 670 638 663 638 646C638 638 637 629 636 622L608 468C578 477 551 482 526 482C457 482 363 410 317 323C286 265 266 170 266 86C266 21 281 -11 310 -11C337 -11 374 6 408 33C462 77 495 116 562 217L539 126C528 82 523 50 523 24C523 3 532 -9 549 -9C566 -9 590 3 624 28L705 88L695 107L651 76C637 66 621 59 612 59C604 59 598 68 598 82C598 90 599 99 606 128ZM363 59C347 59 338 73 338 98C338 224 384 380 433 418C446 428 465 433 492 433C536 433 565 427 598 410L586 351C549 171 408 59 363 59ZM765 152C765 46 810 -11 893 -11C948 -11 1008 15 1053 57C1115 116 1159 230 1159 331C1159 425 1109 482 1026 482C922 482 765 382 765 152ZM989 444C1050 444 1083 399 1083 315C1083 219 1052 113 1008 60C990 39 964 27 933 27C875 27 841 72 841 151C841 264 880 387 929 427C942 438 965 444 989 444ZM1789 664L1792 692L1678 689C1662 689 1644 689 1601 690L1537 692L1534 664L1581 662C1605 661 1616 653 1616 635L1521 55C1517 37 1505 30 1461 23L1456 -3L1497 -2C1528 -1 1590 0 1610 0L1907 -1L1940 0C1939 25 1950 103 1963 165L1932 165L1915 103C1906 71 1897 54 1888 49C1875 44 1811 39 1744 39C1695 39 1668 40 1602 46C1605 64 1696 605 1696 613C1703 651 1710 658 1747 661ZM2100 664L2155 662C2179 661 2190 653 2190 635L2107 125C2090 34 2089 31 2049 28L2008 25L2004 -3L2046 -2C2087 -1 2118 0 2136 0C2153 0 2182 -1 2222 -2L2275 -3L2278 25L2213 28C2187 29 2177 37 2177 58C2177 67 2178 74 2181 93L2279 648C2315 654 2331 656 2350 656C2452 656 2501 612 2501 519C2501 411 2429 323 2341 323C2319 323 2299 328 2262 342L2264 311C2301 293 2321 288 2350 288C2479 288 2589 405 2589 541C2589 642 2526 695 2407 692L2103 692ZM3172 55C3172 39 3157 30 3129 28L3085 25L3085 -3C3187 0 3187 0 3207 0C3227 0 3227 0 3329 -3L3329 25L3303 28C3256 35 3255 35 3247 80L3160 705L3114 705L2741 112C2705 56 2687 40 2653 32L2633 27L2633 -3C2725 0 2725 0 2745 0C2764 0 2766 0 2852 -3L2852 25L2800 28C2784 29 2769 38 2769 47C2769 55 2776 69 2795 102L2897 277L3143 277L3168 89L3168 86C3168 84 3172 69 3172 55ZM3101 601L3138 313L2922 313ZM3781 -11C3837 -11 3952 62 3995 125C4036 186 4070 296 4070 371C4070 438 4047 482 4011 482C3969 482 3916 456 3864 409C3823 374 3803 348 3767 289L3791 408C3794 425 3796 440 3796 452C3796 471 3788 482 3774 482C3753 482 3715 461 3641 408L3613 388L3620 368L3652 389C3680 407 3691 412 3700 412C3710 412 3717 403 3717 389C3717 381 3715 361 3713 351L3655 8C3645 -52 3626 -143 3606 -233L3598 -270L3605 -276C3626 -269 3646 -264 3678 -259L3720 3C3741 -4 3763 -11 3781 -11ZM3748 165C3770 293 3877 424 3960 424C3986 424 3998 402 3998 356C3998 275 3958 156 3905 80C3885 51 3853 36 3812 36C3781 36 3756 43 3730 59ZM4375 204L4346 77C4342 60 4340 42 4340 26C4340 4 4349 -9 4364 -9C4387 -9 4428 17 4510 85L4503 106C4479 86 4450 59 4428 59C4419 59 4413 68 4413 82C4413 87 4413 90 4414 93L4506 472L4496 481L4463 463C4422 478 4405 482 4378 482C4350 482 4330 477 4303 464C4241 433 4208 403 4183 354C4139 265 4108 145 4108 67C4108 23 4123 -11 4142 -11C4179 -11 4259 41 4375 204ZM4423 414C4401 305 4382 253 4348 201C4291 117 4230 59 4198 59C4186 59 4180 72 4180 99C4180 163 4208 280 4243 360C4267 415 4290 433 4338 433C4361 433 4379 429 4423 414ZM4915 365C4918 403 4923 435 4931 476C4920 481 4916 482 4911 482C4880 482 4849 458 4813 407C4774 351 4735 291 4719 256L4751 408C4755 425 4757 438 4757 450C4757 470 4749 482 4734 482C4713 482 4675 461 4601 408L4573 388L4580 368L4612 389C4640 407 4651 412 4660 412C4670 412 4677 403 4677 390C4677 332 4634 126 4594 -2L4604 -9C4619 -4 4635 -1 4658 4L4671 6L4697 126C4715 209 4738 262 4782 319C4816 363 4843 384 4865 384C4880 384 4890 379 4901 365ZM5206 204L5177 77C5173 60 5171 42 5171 26C5171 4 5180 -9 5195 -9C5218 -9 5259 17 5341 85L5334 106C5310 86 5281 59 5259 59C5250 59 5244 68 5244 82C5244 87 5244 90 5245 93L5337 472L5327 481L5294 463C5253 478 5236 482 5209 482C5181 482 5161 477 5134 464C5072 433 5039 403 5014 354C4970 265 4939 145 4939 67C4939 23 4954 -11 4973 -11C5010 -11 5090 41 5206 204ZM5254 414C5232 305 5213 253 5179 201C5122 117 5061 59 5029 59C5017 59 5011 72 5011 99C5011 163 5039 280 5074 360C5098 415 5121 433 5169 433C5192 433 5210 429 5254 414ZM5644 152C5644 46 5689 -11 5772 -11C5827 -11 5887 15 5932 57C5994 116 6038 230 6038 331C6038 425 5988 482 5905 482C5801 482 5644 382 5644 152ZM5868 444C5929 444 5962 399 5962 315C5962 219 5931 113 5887 60C5869 39 5843 27 5812 27C5754 27 5720 72 5720 151C5720 264 5759 387 5808 427C5821 438 5844 444 5868 444ZM6590 204L6561 77C6557 60 6555 42 6555 26C6555 4 6564 -9 6579 -9C6602 -9 6643 17 6725 85L6718 106C6694 86 6665 59 6643 59C6634 59 6628 68 6628 82C6628 87 6628 90 6629 93L6721 472L6711 481L6678 463C6637 478 6620 482 6593 482C6565 482 6545 477 6518 464C6456 433 6423 403 6398 354C6354 265 6323 145 6323 67C6323 23 6338 -11 6357 -11C6394 -11 6474 41 6590 204ZM6638 414C6616 305 6597 253 6563 201C6506 117 6445 59 6413 59C6401 59 6395 72 6395 99C6395 163 6423 280 6458 360C6482 415 6505 433 6553 433C6576 433 6594 429 6638 414ZM6786 388L6793 368L6825 389C6862 412 6865 414 6872 414C6883 414 6890 404 6890 389C6890 338 6849 145 6808 2L6815 -9C6840 -2 6863 4 6885 8C6904 134 6925 199 6971 268C7025 352 7100 414 7145 414C7156 414 7162 405 7162 390C7162 372 7159 351 7151 319L7099 107C7090 70 7086 47 7086 31C7086 6 7097 -9 7116 -9C7142 -9 7178 12 7276 85L7266 103L7240 86C7211 67 7189 56 7179 56C7172 56 7166 65 7166 76C7166 81 7167 92 7168 96L7234 372C7241 401 7245 429 7245 446C7245 469 7234 482 7214 482C7172 482 7103 444 7044 389C7006 354 6978 320 6926 247L6964 408C6968 426 6970 438 6970 449C6970 470 6962 482 6947 482C6926 482 6887 460 6814 408ZM7334 152C7334 46 7379 -11 7462 -11C7517 -11 7577 15 7622 57C7684 116 7728 230 7728 331C7728 425 7678 482 7595 482C7491 482 7334 382 7334 152ZM7558 444C7619 444 7652 399 7652 315C7652 219 7621 113 7577 60C7559 39 7533 27 7502 27C7444 27 7410 72 7410 151C7410 264 7449 387 7498 427C7511 438 7534 444 7558 444ZM8134 390L8078 107C8077 99 8065 61 8065 31C8065 6 8076 -9 8095 -9C8130 -9 8165 11 8243 74L8274 99L8264 117L8219 86C8190 66 8170 56 8159 56C8150 56 8145 64 8145 76C8145 102 8159 183 8188 328L8201 390L8308 390L8319 440C8281 436 8247 434 8209 434C8225 528 8236 577 8254 631L8243 646C8223 634 8196 622 8165 610L8140 440C8096 419 8070 408 8052 403L8050 390Z" stroke="rgb(0,0,0)" stroke-opacity="1" stroke-width="8" fill="rgb(0,0,0)" fill-opacity="1"></path></g></g><g><g transform="matrix(1,0,0,1,305.79998779296875,32.712493896484375)"><path transform="matrix(0.017,0,0,-0.017,0,0)" d="M604 347L604 406L65 406L65 347ZM604 134L604 193L65 193L65 134Z" stroke="rgb(0,0,0)" stroke-opacity="1" stroke-width="8" fill="rgb(0,0,0)" fill-opacity="1"></path></g></g><g><g transform="matrix(1,0,0,1,322.26251220703125,32.712493896484375)"><path transform="matrix(0.017,0,0,-0.017,0,0)" d="" stroke="rgb(0,0,0)" stroke-opacity="1" stroke-width="8" fill="rgb(0,0,0)" fill-opacity="1"></path></g></g><g><g><g><g><g transform="matrix(1,0,0,1,334.42498779296875,19)"><path transform="matrix(0.017,0,0,-0.017,0,0)" d="M349 664L352 692L238 689C222 689 204 689 161 690L97 692L94 664L141 662C165 661 176 653 176 635L81 55C77 37 65 30 21 23L16 -3L57 -2C88 -1 150 0 170 0L467 -1L500 0C499 25 510 103 523 165L492 165L475 103C466 71 457 54 448 49C435 44 371 39 304 39C255 39 228 40 162 46C165 64 256 605 256 613C263 651 270 658 307 661ZM660 664L715 662C739 661 750 653 750 635L667 125C650 34 649 31 609 28L568 25L564 -3L606 -2C647 -1 678 0 696 0C713 0 742 -1 782 -2L835 -3L838 25L773 28C747 29 737 37 737 58C737 67 738 74 741 93L839 648C875 654 891 656 910 656C1012 656 1061 612 1061 519C1061 411 989 323 901 323C879 323 859 328 822 342L824 311C861 293 881 288 910 288C1039 288 1149 405 1149 541C1149 642 1086 695 967 692L663 692ZM1732 55C1732 39 1717 30 1689 28L1645 25L1645 -3C1747 0 1747 0 1767 0C1787 0 1787 0 1889 -3L1889 25L1863 28C1816 35 1815 35 1807 80L1720 705L1674 705L1301 112C1265 56 1247 40 1213 32L1193 27L1193 -3C1285 0 1285 0 1305 0C1324 0 1326 0 1412 -3L1412 25L1360 28C1344 29 1329 38 1329 47C1329 55 1336 69 1355 102L1457 277L1703 277L1728 89L1728 86C1728 84 1732 69 1732 55ZM1661 601L1698 313L1482 313Z" stroke="rgb(0,0,0)" stroke-opacity="1" stroke-width="8" fill="rgb(0,0,0)" fill-opacity="1"></path></g></g><g><g><g><g><g transform="matrix(1,0,0,1,367.5,22.012518310546874)"><path transform="matrix(0.0119,0,0,-0.0119,0,0)" d="M125 390L69 107C68 99 56 61 56 31C56 6 67 -9 86 -9C121 -9 156 11 234 74L265 99L255 117L210 86C181 66 161 56 150 56C141 56 136 64 136 76C136 102 150 183 179 328L192 390L299 390L310 440C272 436 238 434 200 434C216 528 227 577 245 631L234 646C214 634 187 622 156 610L131 440C87 419 61 408 43 403L41 390Z" stroke="rgb(0,0,0)" stroke-opacity="1" stroke-width="8" fill="rgb(0,0,0)" fill-opacity="1"></path></g></g></g></g></g></g></g><g><g><g><g transform="matrix(1,0,0,1,328.20001220703125,46.63751220703125)"><path transform="matrix(0.017,0,0,-0.017,0,0)" d="M146 266C146 526 243 632 301 700L282 726C225 675 60 542 60 266C60 159 85 58 133 -32C168 -99 200 -138 282 -215L301 -194C255 -137 146 -15 146 266Z" stroke="rgb(0,0,0)" stroke-opacity="1" stroke-width="8" fill="rgb(0,0,0)" fill-opacity="1"></path></g></g><g><g transform="matrix(1,0,0,1,333.85003662109375,46.63751220703125)"><path transform="matrix(0.017,0,0,-0.017,0,0)" d="M418 -3L418 27L366 30C311 33 301 44 301 96L301 700L60 598L67 548L217 614L217 96C217 44 206 33 152 30L96 27L96 -3C250 0 250 0 261 0C292 0 402 -3 418 -3Z" stroke="rgb(0,0,0)" stroke-opacity="1" stroke-width="8" fill="rgb(0,0,0)" fill-opacity="1"></path></g></g><g><g transform="matrix(1,0,0,1,345.737548828125,46.63751220703125)"><path transform="matrix(0.017,0,0,-0.017,0,0)" d="M604 241L604 300L364 300L364 538L305 538L305 300L65 300L65 241L305 241L305 0L364 0L364 241Z" stroke="rgb(0,0,0)" stroke-opacity="1" stroke-width="8" fill="rgb(0,0,0)" fill-opacity="1"></path></g></g><g><g transform="matrix(1,0,0,1,360.5,46.63751220703125)"><path transform="matrix(0.017,0,0,-0.017,0,0)" d="M368 365C371 403 376 435 384 476C373 481 369 482 364 482C333 482 302 458 266 407C227 351 188 291 172 256L204 408C208 425 210 438 210 450C210 470 202 482 187 482C166 482 128 461 54 408L26 388L33 368L65 389C93 407 104 412 113 412C123 412 130 403 130 390C130 332 87 126 47 -2L57 -9C72 -4 88 -1 111 4L124 6L150 126C168 209 191 262 235 319C269 363 296 384 318 384C333 384 343 379 354 365Z" stroke="rgb(0,0,0)" stroke-opacity="1" stroke-width="8" fill="rgb(0,0,0)" fill-opacity="1"></path></g></g><g><g transform="matrix(1,0,0,1,367.0999755859375,46.63751220703125)"><path transform="matrix(0.017,0,0,-0.017,0,0)" d="M51 726L32 700C87 636 187 526 187 266C187 -10 83 -131 32 -194L51 -215C104 -165 273 -23 273 265C273 542 108 675 51 726Z" stroke="rgb(0,0,0)" stroke-opacity="1" stroke-width="8" fill="rgb(0,0,0)" fill-opacity="1"></path></g></g><g><g><g><g><g transform="matrix(1,0,0,1,373.7249755859375,40.612493896484374)"><path transform="matrix(0.0119,0,0,-0.0119,0,0)" d="M125 390L69 107C68 99 56 61 56 31C56 6 67 -9 86 -9C121 -9 156 11 234 74L265 99L255 117L210 86C181 66 161 56 150 56C141 56 136 64 136 76C136 102 150 183 179 328L192 390L299 390L310 440C272 436 238 434 200 434C216 528 227 577 245 631L234 646C214 634 187 622 156 610L131 440C87 419 61 408 43 403L41 390Z" stroke="rgb(0,0,0)" stroke-opacity="1" stroke-width="8" fill="rgb(0,0,0)" fill-opacity="1"></path></g></g></g></g></g></g></g><line style="fill:none;stroke-width:1px;stroke:rgb(0, 0, 0);" x1="328.20001220703125" y1="28.26251220703125" x2="378.6875114440918" y2="28.26251220703125"></line></g></g></g></svg>