<svg xmlns="http://www.w3.org/2000/svg" xmlns:xlink="http://www.w3.org/1999/xlink" width="266.5124969482422" height="49.92499923706055" style="width:266.5124969482422px;height:49.92499923706055px;font-family:Asana-Math, Asana;background:transparent;"><g><g><g><g transform="matrix(1,0,0,1,2,31)"><path transform="matrix(0.017,0,0,-0.017,0,0)" d="M582 103L237 692L75 692L70 664L105 662C150 660 184 615 185 606L92 102C80 40 74 32 38 28L7 25L2 -3L113 0C125 0 126 0 223 -3L228 25L186 28C146 31 137 39 137 72C137 80 138 91 140 102L220 566L558 -11L608 -11L702 542C723 655 725 659 762 662L799 664L802 691L589 692L584 664L631 662C657 661 667 654 667 638C667 631 584 116 582 103ZM882 664L937 662C961 661 972 653 972 635L889 125C872 34 871 31 831 28L790 25L786 -3L828 -2C869 -1 900 0 918 0C935 0 964 -1 1004 -2L1057 -3L1060 25L995 28C969 29 959 37 959 58C959 67 960 74 963 93L1061 648C1097 654 1113 656 1132 656C1234 656 1283 612 1283 519C1283 411 1211 323 1123 323C1101 323 1081 328 1044 342L1046 311C1083 293 1103 288 1132 288C1261 288 1371 405 1371 541C1371 642 1308 695 1189 692L885 692ZM1697 96L1626 624C1624 646 1628 661 1668 662L1710 664L1710 692L1669 691C1632 690 1604 689 1586 689C1568 689 1540 690 1503 691L1462 692L1462 664L1487 662C1531 659 1539 651 1546 614L1634 -8L1683 -8L2061 611C2086 651 2094 658 2123 662L2141 664L2141 692L2111 691C2084 690 2061 689 2045 689C2035 689 2008 690 1967 691L1921 692L1921 664L1947 662C1985 659 2004 649 2004 630C2004 619 2000 608 1988 588ZM2482 390L2426 107C2425 99 2413 61 2413 31C2413 6 2424 -9 2443 -9C2478 -9 2513 11 2591 74L2622 99L2612 117L2567 86C2538 66 2518 56 2507 56C2498 56 2493 64 2493 76C2493 102 2507 183 2536 328L2549 390L2656 390L2667 440C2629 436 2595 434 2557 434C2573 528 2584 577 2602 631L2591 646C2571 634 2544 622 2513 610L2488 440C2444 419 2418 408 2400 403L2398 390ZM3017 111L2993 94C2940 56 2892 36 2856 36C2809 36 2780 73 2780 133C2780 158 2783 185 2788 214C2805 218 2914 248 2939 259C3024 296 3063 342 3063 404C3063 451 3029 482 2979 482C2911 496 2801 423 2764 349C2734 299 2704 180 2704 113C2704 35 2748 -11 2820 -11C2877 -11 2933 17 3025 92ZM2802 274C2819 343 2839 386 2868 412C2886 428 2917 440 2941 440C2970 440 2989 420 2989 388C2989 344 2954 297 2902 272C2874 258 2838 247 2793 237ZM3445 365C3448 403 3453 435 3461 476C3450 481 3446 482 3441 482C3410 482 3379 458 3343 407C3304 351 3265 291 3249 256L3281 408C3285 425 3287 438 3287 450C3287 470 3279 482 3264 482C3243 482 3205 461 3131 408L3103 388L3110 368L3142 389C3170 407 3181 412 3190 412C3200 412 3207 403 3207 390C3207 332 3164 126 3124 -2L3134 -9C3149 -4 3165 -1 3188 4L3201 6L3227 126C3245 209 3268 262 3312 319C3346 363 3373 384 3395 384C3410 384 3420 379 3431 365ZM4195 103L4169 86C4140 67 4118 56 4108 56C4101 56 4095 65 4095 76C4095 86 4097 95 4102 116L4177 413C4181 430 4184 446 4184 454C4184 471 4174 482 4158 482C4129 482 4091 464 4030 421C3967 376 3932 341 3883 272L3913 409C3917 429 3920 444 3920 451C3920 470 3910 482 3894 482C3864 482 3818 460 3763 418C3719 384 3699 363 3634 275L3667 408C3671 424 3673 439 3673 451C3673 470 3664 482 3650 482C3629 482 3591 461 3517 408L3489 388L3496 368C3533 391 3568 414 3575 414C3586 414 3593 404 3593 389C3593 338 3552 145 3511 2L3514 -9L3582 6L3604 108C3628 219 3655 278 3710 338C3752 384 3797 414 3825 414C3832 414 3836 406 3836 393C3836 358 3814 244 3773 69L3757 2L3762 -9L3831 6L3852 113C3868 194 3902 269 3946 318C4001 379 4051 414 4083 414C4091 414 4096 405 4096 389C4096 365 4093 351 4071 264C4031 105 4015 84 4015 31C4015 6 4026 -9 4045 -9C4071 -9 4107 12 4205 85ZM4276 388L4283 368L4315 389C4352 412 4355 414 4362 414C4372 414 4380 404 4380 391C4380 384 4376 361 4372 347L4306 107C4298 76 4293 49 4293 30C4293 6 4304 -9 4323 -9C4349 -9 4385 12 4483 85L4473 103L4447 86C4418 67 4395 56 4386 56C4379 56 4373 66 4373 76C4373 86 4375 95 4380 116L4457 420C4461 437 4463 448 4463 456C4463 473 4454 482 4438 482C4416 482 4379 461 4304 408ZM4470 712C4441 712 4412 679 4412 645C4412 620 4427 604 4451 604C4482 604 4506 633 4506 671C4506 695 4491 712 4470 712ZM4543 388L4550 368L4582 389C4619 412 4622 414 4629 414C4640 414 4647 404 4647 389C4647 338 4606 145 4565 2L4572 -9C4597 -2 4620 4 4642 8C4661 134 4682 199 4728 268C4782 352 4857 414 4902 414C4913 414 4919 405 4919 390C4919 372 4916 351 4908 319L4856 107C4847 70 4843 47 4843 31C4843 6 4854 -9 4873 -9C4899 -9 4935 12 5033 85L5023 103L4997 86C4968 67 4946 56 4936 56C4929 56 4923 65 4923 76C4923 81 4924 92 4925 96L4991 372C4998 401 5002 429 5002 446C5002 469 4991 482 4971 482C4929 482 4860 444 4801 389C4763 354 4735 320 4683 247L4721 408C4725 426 4727 438 4727 449C4727 470 4719 482 4704 482C4683 482 4644 460 4571 408ZM5345 204L5316 77C5312 60 5310 42 5310 26C5310 4 5319 -9 5334 -9C5357 -9 5398 17 5480 85L5473 106C5449 86 5420 59 5398 59C5389 59 5383 68 5383 82C5383 87 5383 90 5384 93L5476 472L5466 481L5433 463C5392 478 5375 482 5348 482C5320 482 5300 477 5273 464C5211 433 5178 403 5153 354C5109 265 5078 145 5078 67C5078 23 5093 -11 5112 -11C5149 -11 5229 41 5345 204ZM5393 414C5371 305 5352 253 5318 201C5261 117 5200 59 5168 59C5156 59 5150 72 5150 99C5150 163 5178 280 5213 360C5237 415 5260 433 5308 433C5331 433 5349 429 5393 414ZM5768 722L5756 733C5704 707 5668 698 5596 691L5592 670L5640 670C5664 670 5674 663 5674 648C5674 645 5674 640 5671 622C5660 567 5587 182 5572 132C5559 82 5553 52 5553 31C5553 6 5564 -9 5583 -9C5609 -9 5645 12 5743 85L5733 103L5707 86C5678 67 5656 56 5646 56C5639 56 5633 66 5633 76C5633 82 5634 89 5637 104Z" stroke="rgb(0,0,0)" stroke-opacity="1" stroke-width="8" fill="rgb(0,0,0)" fill-opacity="1"></path></g></g><g><g transform="matrix(1,0,0,1,109.83746337890625,31)"><path transform="matrix(0.017,0,0,-0.017,0,0)" d="M604 347L604 406L65 406L65 347ZM604 134L604 193L65 193L65 134Z" stroke="rgb(0,0,0)" stroke-opacity="1" stroke-width="8" fill="rgb(0,0,0)" fill-opacity="1"></path></g></g><g><g transform="matrix(1,0,0,1,126.29998779296875,31)"><path transform="matrix(0.017,0,0,-0.017,0,0)" d="" stroke="rgb(0,0,0)" stroke-opacity="1" stroke-width="8" fill="rgb(0,0,0)" fill-opacity="1"></path></g></g><g><g><g><g><g transform="matrix(1,0,0,1,150.75,19)"><path transform="matrix(0.017,0,0,-0.017,0,0)" d="M349 664L352 692L238 689C222 689 204 689 161 690L97 692L94 664L141 662C165 661 176 653 176 635L81 55C77 37 65 30 21 23L16 -3L57 -2C88 -1 150 0 170 0L467 -1L500 0C499 25 510 103 523 165L492 165L475 103C466 71 457 54 448 49C435 44 371 39 304 39C255 39 228 40 162 46C165 64 256 605 256 613C263 651 270 658 307 661ZM660 664L715 662C739 661 750 653 750 635L667 125C650 34 649 31 609 28L568 25L564 -3L606 -2C647 -1 678 0 696 0C713 0 742 -1 782 -2L835 -3L838 25L773 28C747 29 737 37 737 58C737 67 738 74 741 93L839 648C875 654 891 656 910 656C1012 656 1061 612 1061 519C1061 411 989 323 901 323C879 323 859 328 822 342L824 311C861 293 881 288 910 288C1039 288 1149 405 1149 541C1149 642 1086 695 967 692L663 692ZM1732 55C1732 39 1717 30 1689 28L1645 25L1645 -3C1747 0 1747 0 1767 0C1787 0 1787 0 1889 -3L1889 25L1863 28C1816 35 1815 35 1807 80L1720 705L1674 705L1301 112C1265 56 1247 40 1213 32L1193 27L1193 -3C1285 0 1285 0 1305 0C1324 0 1326 0 1412 -3L1412 25L1360 28C1344 29 1329 38 1329 47C1329 55 1336 69 1355 102L1457 277L1703 277L1728 89L1728 86C1728 84 1732 69 1732 55ZM1661 601L1698 313L1482 313ZM2290 390L2234 107C2233 99 2221 61 2221 31C2221 6 2232 -9 2251 -9C2286 -9 2321 11 2399 74L2430 99L2420 117L2375 86C2346 66 2326 56 2315 56C2306 56 2301 64 2301 76C2301 102 2315 183 2344 328L2357 390L2464 390L2475 440C2437 436 2403 434 2365 434C2381 528 2392 577 2410 631L2399 646C2379 634 2352 622 2321 610L2296 440C2252 419 2226 408 2208 403L2206 390ZM2825 111L2801 94C2748 56 2700 36 2664 36C2617 36 2588 73 2588 133C2588 158 2591 185 2596 214C2613 218 2722 248 2747 259C2832 296 2871 342 2871 404C2871 451 2837 482 2787 482C2719 496 2609 423 2572 349C2542 299 2512 180 2512 113C2512 35 2556 -11 2628 -11C2685 -11 2741 17 2833 92ZM2610 274C2627 343 2647 386 2676 412C2694 428 2725 440 2749 440C2778 440 2797 420 2797 388C2797 344 2762 297 2710 272C2682 258 2646 247 2601 237ZM3253 365C3256 403 3261 435 3269 476C3258 481 3254 482 3249 482C3218 482 3187 458 3151 407C3112 351 3073 291 3057 256L3089 408C3093 425 3095 438 3095 450C3095 470 3087 482 3072 482C3051 482 3013 461 2939 408L2911 388L2918 368L2950 389C2978 407 2989 412 2998 412C3008 412 3015 403 3015 390C3015 332 2972 126 2932 -2L2942 -9C2957 -4 2973 -1 2996 4L3009 6L3035 126C3053 209 3076 262 3120 319C3154 363 3181 384 3203 384C3218 384 3228 379 3239 365ZM4003 103L3977 86C3948 67 3926 56 3916 56C3909 56 3903 65 3903 76C3903 86 3905 95 3910 116L3985 413C3989 430 3992 446 3992 454C3992 471 3982 482 3966 482C3937 482 3899 464 3838 421C3775 376 3740 341 3691 272L3721 409C3725 429 3728 444 3728 451C3728 470 3718 482 3702 482C3672 482 3626 460 3571 418C3527 384 3507 363 3442 275L3475 408C3479 424 3481 439 3481 451C3481 470 3472 482 3458 482C3437 482 3399 461 3325 408L3297 388L3304 368C3341 391 3376 414 3383 414C3394 414 3401 404 3401 389C3401 338 3360 145 3319 2L3322 -9L3390 6L3412 108C3436 219 3463 278 3518 338C3560 384 3605 414 3633 414C3640 414 3644 406 3644 393C3644 358 3622 244 3581 69L3565 2L3570 -9L3639 6L3660 113C3676 194 3710 269 3754 318C3809 379 3859 414 3891 414C3899 414 3904 405 3904 389C3904 365 3901 351 3879 264C3839 105 3823 84 3823 31C3823 6 3834 -9 3853 -9C3879 -9 3915 12 4013 85ZM4084 388L4091 368L4123 389C4160 412 4163 414 4170 414C4180 414 4188 404 4188 391C4188 384 4184 361 4180 347L4114 107C4106 76 4101 49 4101 30C4101 6 4112 -9 4131 -9C4157 -9 4193 12 4291 85L4281 103L4255 86C4226 67 4203 56 4194 56C4187 56 4181 66 4181 76C4181 86 4183 95 4188 116L4265 420C4269 437 4271 448 4271 456C4271 473 4262 482 4246 482C4224 482 4187 461 4112 408ZM4278 712C4249 712 4220 679 4220 645C4220 620 4235 604 4259 604C4290 604 4314 633 4314 671C4314 695 4299 712 4278 712ZM4351 388L4358 368L4390 389C4427 412 4430 414 4437 414C4448 414 4455 404 4455 389C4455 338 4414 145 4373 2L4380 -9C4405 -2 4428 4 4450 8C4469 134 4490 199 4536 268C4590 352 4665 414 4710 414C4721 414 4727 405 4727 390C4727 372 4724 351 4716 319L4664 107C4655 70 4651 47 4651 31C4651 6 4662 -9 4681 -9C4707 -9 4743 12 4841 85L4831 103L4805 86C4776 67 4754 56 4744 56C4737 56 4731 65 4731 76C4731 81 4732 92 4733 96L4799 372C4806 401 4810 429 4810 446C4810 469 4799 482 4779 482C4737 482 4668 444 4609 389C4571 354 4543 320 4491 247L4529 408C4533 426 4535 438 4535 449C4535 470 4527 482 4512 482C4491 482 4452 460 4379 408ZM5153 204L5124 77C5120 60 5118 42 5118 26C5118 4 5127 -9 5142 -9C5165 -9 5206 17 5288 85L5281 106C5257 86 5228 59 5206 59C5197 59 5191 68 5191 82C5191 87 5191 90 5192 93L5284 472L5274 481L5241 463C5200 478 5183 482 5156 482C5128 482 5108 477 5081 464C5019 433 4986 403 4961 354C4917 265 4886 145 4886 67C4886 23 4901 -11 4920 -11C4957 -11 5037 41 5153 204ZM5201 414C5179 305 5160 253 5126 201C5069 117 5008 59 4976 59C4964 59 4958 72 4958 99C4958 163 4986 280 5021 360C5045 415 5068 433 5116 433C5139 433 5157 429 5201 414ZM5576 722L5564 733C5512 707 5476 698 5404 691L5400 670L5448 670C5472 670 5482 663 5482 648C5482 645 5482 640 5479 622C5468 567 5395 182 5380 132C5367 82 5361 52 5361 31C5361 6 5372 -9 5391 -9C5417 -9 5453 12 5551 85L5541 103L5515 86C5486 67 5464 56 5454 56C5447 56 5441 66 5441 76C5441 82 5442 89 5445 104Z" stroke="rgb(0,0,0)" stroke-opacity="1" stroke-width="8" fill="rgb(0,0,0)" fill-opacity="1"></path></g></g></g></g><g><g><g><g transform="matrix(1,0,0,1,132.23748779296875,44.92498779296875)"><path transform="matrix(0.017,0,0,-0.017,0,0)" d="M146 266C146 526 243 632 301 700L282 726C225 675 60 542 60 266C60 159 85 58 133 -32C168 -99 200 -138 282 -215L301 -194C255 -137 146 -15 146 266Z" stroke="rgb(0,0,0)" stroke-opacity="1" stroke-width="8" fill="rgb(0,0,0)" fill-opacity="1"></path></g></g><g><g transform="matrix(1,0,0,1,137.88751220703125,44.92498779296875)"><path transform="matrix(0.017,0,0,-0.017,0,0)" d="M418 -3L418 27L366 30C311 33 301 44 301 96L301 700L60 598L67 548L217 614L217 96C217 44 206 33 152 30L96 27L96 -3C250 0 250 0 261 0C292 0 402 -3 418 -3Z" stroke="rgb(0,0,0)" stroke-opacity="1" stroke-width="8" fill="rgb(0,0,0)" fill-opacity="1"></path></g></g><g><g transform="matrix(1,0,0,1,154.01251220703125,44.92498779296875)"><path transform="matrix(0.017,0,0,-0.017,0,0)" d="M604 241L604 300L364 300L364 538L305 538L305 300L65 300L65 241L305 241L305 0L364 0L364 241Z" stroke="rgb(0,0,0)" stroke-opacity="1" stroke-width="8" fill="rgb(0,0,0)" fill-opacity="1"></path></g></g><g><g transform="matrix(1,0,0,1,168.77496337890625,44.92498779296875)"><path transform="matrix(0.017,0,0,-0.017,0,0)" d="M617 365C620 403 625 435 633 476C622 481 618 482 613 482C582 482 551 458 515 407C476 351 437 291 421 256L453 408C457 425 459 438 459 450C459 470 451 482 436 482C415 482 377 461 303 408L275 388L282 368L314 389C342 407 353 412 362 412C372 412 379 403 379 390C379 332 336 126 296 -2L306 -9C321 -4 337 -1 360 4L373 6L399 126C417 209 440 262 484 319C518 363 545 384 567 384C582 384 592 379 603 365Z" stroke="rgb(0,0,0)" stroke-opacity="1" stroke-width="8" fill="rgb(0,0,0)" fill-opacity="1"></path></g></g><g><g transform="matrix(1,0,0,1,179.61248779296875,44.92498779296875)"><path transform="matrix(0.017,0,0,-0.017,0,0)" d="M51 726L32 700C87 636 187 526 187 266C187 -10 83 -131 32 -194L51 -215C104 -165 273 -23 273 265C273 542 108 675 51 726Z" stroke="rgb(0,0,0)" stroke-opacity="1" stroke-width="8" fill="rgb(0,0,0)" fill-opacity="1"></path></g></g><g><g><g><g><g transform="matrix(1,0,0,1,186.23748779296875,38.10001220703125)"><path transform="matrix(0.0119,0,0,-0.0119,0,0)" d="M273 388L280 368L312 389C349 412 352 414 359 414C370 414 377 404 377 389C377 338 336 145 295 2L302 -9C327 -2 350 4 372 8C391 134 412 199 458 268C512 352 587 414 632 414C643 414 649 405 649 390C649 372 646 351 638 319L586 107C577 70 573 47 573 31C573 6 584 -9 603 -9C629 -9 665 12 763 85L753 103L727 86C698 67 676 56 666 56C659 56 653 65 653 76C653 81 654 92 655 96L721 372C728 401 732 429 732 446C732 469 721 482 701 482C659 482 590 444 531 389C493 354 465 320 413 247L451 408C455 426 457 438 457 449C457 470 449 482 434 482C413 482 374 460 301 408ZM1003 689C921 689 854 622 854 539C854 456 921 389 1004 389C1085 389 1154 457 1154 537C1154 621 1087 689 1003 689ZM1003 649C1064 649 1114 599 1114 537C1114 479 1064 429 1004 429C943 429 894 478 894 539C894 600 943 649 1003 649ZM1936 722L1924 733C1872 707 1836 698 1764 691L1760 670L1808 670C1832 670 1842 663 1842 646C1842 638 1841 629 1840 622L1812 468C1782 477 1755 482 1730 482C1661 482 1567 410 1521 323C1490 265 1470 170 1470 86C1470 21 1485 -11 1514 -11C1541 -11 1578 6 1612 33C1666 77 1699 116 1766 217L1743 126C1732 82 1727 50 1727 24C1727 3 1736 -9 1753 -9C1770 -9 1794 3 1828 28L1909 88L1899 107L1855 76C1841 66 1825 59 1816 59C1808 59 1802 68 1802 82C1802 90 1803 99 1810 128ZM1567 59C1551 59 1542 73 1542 98C1542 224 1588 380 1637 418C1650 428 1669 433 1696 433C1740 433 1769 427 1802 410L1790 351C1753 171 1612 59 1567 59ZM2280 111L2256 94C2203 56 2155 36 2119 36C2072 36 2043 73 2043 133C2043 158 2046 185 2051 214C2068 218 2177 248 2202 259C2287 296 2326 342 2326 404C2326 451 2292 482 2242 482C2174 496 2064 423 2027 349C1997 299 1967 180 1967 113C1967 35 2011 -11 2083 -11C2140 -11 2196 17 2288 92ZM2065 274C2082 343 2102 386 2131 412C2149 428 2180 440 2204 440C2233 440 2252 420 2252 388C2252 344 2217 297 2165 272C2137 258 2101 247 2056 237ZM2860 204L2831 77C2827 60 2825 42 2825 26C2825 4 2834 -9 2849 -9C2872 -9 2913 17 2995 85L2988 106C2964 86 2935 59 2913 59C2904 59 2898 68 2898 82C2898 87 2898 90 2899 93L2991 472L2981 481L2948 463C2907 478 2890 482 2863 482C2835 482 2815 477 2788 464C2726 433 2693 403 2668 354C2624 265 2593 145 2593 67C2593 23 2608 -11 2627 -11C2664 -11 2744 41 2860 204ZM2908 414C2886 305 2867 253 2833 201C2776 117 2715 59 2683 59C2671 59 2665 72 2665 99C2665 163 2693 280 2728 360C2752 415 2775 433 2823 433C2846 433 2864 429 2908 414ZM3056 388L3063 368L3095 389C3132 412 3135 414 3142 414C3153 414 3160 404 3160 389C3160 338 3119 145 3078 2L3085 -9C3110 -2 3133 4 3155 8C3174 134 3195 199 3241 268C3295 352 3370 414 3415 414C3426 414 3432 405 3432 390C3432 372 3429 351 3421 319L3369 107C3360 70 3356 47 3356 31C3356 6 3367 -9 3386 -9C3412 -9 3448 12 3546 85L3536 103L3510 86C3481 67 3459 56 3449 56C3442 56 3436 65 3436 76C3436 81 3437 92 3438 96L3504 372C3511 401 3515 429 3515 446C3515 469 3504 482 3484 482C3442 482 3373 444 3314 389C3276 354 3248 320 3196 247L3234 408C3238 426 3240 438 3240 449C3240 470 3232 482 3217 482C3196 482 3157 460 3084 408ZM3604 152C3604 46 3649 -11 3732 -11C3787 -11 3847 15 3892 57C3954 116 3998 230 3998 331C3998 425 3948 482 3865 482C3761 482 3604 382 3604 152ZM3828 444C3889 444 3922 399 3922 315C3922 219 3891 113 3847 60C3829 39 3803 27 3772 27C3714 27 3680 72 3680 151C3680 264 3719 387 3768 427C3781 438 3804 444 3828 444ZM4061 148C4056 97 4050 62 4039 16C4077 -2 4111 -11 4146 -11C4195 -11 4241 7 4292 47C4343 87 4364 124 4364 174C4364 228 4332 257 4258 271L4215 279C4155 290 4136 307 4136 348C4136 401 4181 442 4238 442C4279 442 4317 424 4333 397L4333 342L4356 342C4360 377 4364 404 4375 455C4336 474 4308 482 4275 482C4223 482 4162 452 4114 404C4088 377 4077 352 4077 316C4077 260 4108 228 4174 215L4237 203C4281 195 4297 177 4297 138C4297 73 4251 29 4180 29C4145 29 4114 40 4086 64L4086 148ZM4792 390L4736 107C4735 99 4723 61 4723 31C4723 6 4734 -9 4753 -9C4788 -9 4823 11 4901 74L4932 99L4922 117L4877 86C4848 66 4828 56 4817 56C4808 56 4803 64 4803 76C4803 102 4817 183 4846 328L4859 390L4966 390L4977 440C4939 436 4905 434 4867 434C4883 528 4894 577 4912 631L4901 646C4881 634 4854 622 4823 610L4798 440C4754 419 4728 408 4710 403L4708 390ZM5016 152C5016 46 5061 -11 5144 -11C5199 -11 5259 15 5304 57C5366 116 5410 230 5410 331C5410 425 5360 482 5277 482C5173 482 5016 382 5016 152ZM5240 444C5301 444 5334 399 5334 315C5334 219 5303 113 5259 60C5241 39 5215 27 5184 27C5126 27 5092 72 5092 151C5092 264 5131 387 5180 427C5193 438 5216 444 5240 444ZM5567 390L5511 107C5510 99 5498 61 5498 31C5498 6 5509 -9 5528 -9C5563 -9 5598 11 5676 74L5707 99L5697 117L5652 86C5623 66 5603 56 5592 56C5583 56 5578 64 5578 76C5578 102 5592 183 5621 328L5634 390L5741 390L5752 440C5714 436 5680 434 5642 434C5658 528 5669 577 5687 631L5676 646C5656 634 5629 622 5598 610L5573 440C5529 419 5503 408 5485 403L5483 390ZM6045 204L6016 77C6012 60 6010 42 6010 26C6010 4 6019 -9 6034 -9C6057 -9 6098 17 6180 85L6173 106C6149 86 6120 59 6098 59C6089 59 6083 68 6083 82C6083 87 6083 90 6084 93L6176 472L6166 481L6133 463C6092 478 6075 482 6048 482C6020 482 6000 477 5973 464C5911 433 5878 403 5853 354C5809 265 5778 145 5778 67C5778 23 5793 -11 5812 -11C5849 -11 5929 41 6045 204ZM6093 414C6071 305 6052 253 6018 201C5961 117 5900 59 5868 59C5856 59 5850 72 5850 99C5850 163 5878 280 5913 360C5937 415 5960 433 6008 433C6031 433 6049 429 6093 414ZM6468 722L6456 733C6404 707 6368 698 6296 691L6292 670L6340 670C6364 670 6374 663 6374 648C6374 645 6374 640 6371 622C6360 567 6287 182 6272 132C6259 82 6253 52 6253 31C6253 6 6264 -9 6283 -9C6309 -9 6345 12 6443 85L6433 103L6407 86C6378 67 6356 56 6346 56C6339 56 6333 66 6333 76C6333 82 6334 89 6337 104Z" stroke="rgb(0,0,0)" stroke-opacity="1" stroke-width="8" fill="rgb(0,0,0)" fill-opacity="1"></path></g></g></g></g></g></g></g><line style="fill:none;stroke-width:1px;stroke:rgb(0, 0, 0);" x1="132.23748779296875" y1="26.54998779296875" x2="264.5124969482422" y2="26.54998779296875"></line></g></g></g></svg>