<svg xmlns="http://www.w3.org/2000/svg" xmlns:xlink="http://www.w3.org/1999/xlink" width="616.6875381469727" height="79.9000015258789" style="width:616.6875381469727px;height:79.9000015258789px;font-family:Asana-Math, Asana;background:#FFF;"><g><g><g><g transform="matrix(1,0,0,1,2,32.712493896484375)"><path transform="matrix(0.017,0,0,-0.017,0,0)" d="M105 664L160 662C184 661 195 653 195 635L112 125C95 34 94 31 54 28L13 25L9 -3L51 -2C92 -1 123 0 141 0C158 0 187 -1 227 -2L280 -3L283 25L218 28C192 29 182 37 182 58C182 67 183 74 186 93L284 648C320 654 336 656 355 656C457 656 506 612 506 519C506 411 434 323 346 323C324 323 304 328 267 342L269 311C306 293 326 288 355 288C484 288 594 405 594 541C594 642 531 695 412 692L108 692ZM978 365C981 403 986 435 994 476C983 481 979 482 974 482C943 482 912 458 876 407C837 351 798 291 782 256L814 408C818 425 820 438 820 450C820 470 812 482 797 482C776 482 738 461 664 408L636 388L643 368L675 389C703 407 714 412 723 412C733 412 740 403 740 390C740 332 697 126 657 -2L667 -9C682 -4 698 -1 721 4L734 6L760 126C778 209 801 262 845 319C879 363 906 384 928 384C943 384 953 379 964 365ZM1326 111L1302 94C1249 56 1201 36 1165 36C1118 36 1089 73 1089 133C1089 158 1092 185 1097 214C1114 218 1223 248 1248 259C1333 296 1372 342 1372 404C1372 451 1338 482 1288 482C1220 496 1110 423 1073 349C1043 299 1013 180 1013 113C1013 35 1057 -11 1129 -11C1186 -11 1242 17 1334 92ZM1111 274C1128 343 1148 386 1177 412C1195 428 1226 440 1250 440C1279 440 1298 420 1298 388C1298 344 1263 297 1211 272C1183 258 1147 247 1102 237ZM1655 -20C1699 -19 1766 0 1778 14L1799 46L1789 61C1752 41 1720 32 1684 32C1573 32 1500 118 1500 250C1500 357 1550 417 1640 417C1684 417 1732 397 1750 372L1757 311L1785 311C1785 357 1790 398 1799 434C1759 458 1724 469 1683 469C1635 469 1579 450 1519 412C1449 368 1412 298 1412 210C1412 82 1496 -9 1621 -19L1583 -108L1590 -114C1609 -109 1618 -107 1631 -107C1655 -107 1671 -123 1671 -146C1671 -174 1652 -189 1617 -189C1599 -189 1585 -187 1552 -178L1538 -209C1581 -222 1595 -225 1622 -225C1698 -225 1746 -193 1746 -141C1746 -98 1713 -71 1661 -71C1651 -71 1644 -72 1634 -75ZM1846 152C1846 46 1891 -11 1974 -11C2029 -11 2089 15 2134 57C2196 116 2240 230 2240 331C2240 425 2190 482 2107 482C2003 482 1846 382 1846 152ZM2070 444C2131 444 2164 399 2164 315C2164 219 2133 113 2089 60C2071 39 2045 27 2014 27C1956 27 1922 72 1922 151C1922 264 1961 387 2010 427C2023 438 2046 444 2070 444ZM2876 664L2879 692L2765 689C2749 689 2731 689 2688 690L2624 692L2621 664L2668 662C2692 661 2703 653 2703 635C2703 630 2703 627 2702 622L2607 -21C2592 -124 2562 -174 2515 -174C2503 -174 2494 -173 2486 -170L2489 -196C2500 -203 2512 -206 2524 -206C2559 -206 2664 -178 2698 54L2783 613C2789 651 2796 658 2834 661ZM3345 473L3338 482L3270 465L3260 414C3245 336 3220 268 3189 221C3130 130 3052 59 3012 59C3004 59 2999 68 2999 85C2999 99 3001 112 3006 137L3063 408C3066 424 3068 438 3068 451C3068 470 3059 482 3045 482C3025 482 2987 461 2913 408L2885 388L2892 368L2924 389C2952 407 2963 412 2972 412C2981 412 2989 403 2989 392C2989 388 2988 378 2987 374L2924 77C2922 68 2920 44 2920 30C2920 7 2935 -11 2955 -11C3018 -11 3139 101 3223 239L3186 97C3179 73 3175 46 3175 31C3175 6 3186 -9 3205 -9C3231 -9 3267 12 3365 85L3355 103L3329 86C3305 70 3279 59 3268 59C3260 59 3255 66 3255 76C3255 112 3330 416 3345 473ZM3439 148C3434 97 3428 62 3417 16C3455 -2 3489 -11 3524 -11C3573 -11 3619 7 3670 47C3721 87 3742 124 3742 174C3742 228 3710 257 3636 271L3593 279C3533 290 3514 307 3514 348C3514 401 3559 442 3616 442C3657 442 3695 424 3711 397L3711 342L3734 342C3738 377 3742 404 3753 455C3714 474 3686 482 3653 482C3601 482 3540 452 3492 404C3466 377 3455 352 3455 316C3455 260 3486 228 3552 215L3615 203C3659 195 3675 177 3675 138C3675 73 3629 29 3558 29C3523 29 3492 40 3464 64L3464 148ZM3921 390L3865 107C3864 99 3852 61 3852 31C3852 6 3863 -9 3882 -9C3917 -9 3952 11 4030 74L4061 99L4051 117L4006 86C3977 66 3957 56 3946 56C3937 56 3932 64 3932 76C3932 102 3946 183 3975 328L3988 390L4095 390L4106 440C4068 436 4034 434 3996 434C4012 528 4023 577 4041 631L4030 646C4010 634 3983 622 3952 610L3927 440C3883 419 3857 408 3839 403L3837 390ZM4145 152C4145 46 4190 -11 4273 -11C4328 -11 4388 15 4433 57C4495 116 4539 230 4539 331C4539 425 4489 482 4406 482C4302 482 4145 382 4145 152ZM4369 444C4430 444 4463 399 4463 315C4463 219 4432 113 4388 60C4370 39 4344 27 4313 27C4255 27 4221 72 4221 151C4221 264 4260 387 4309 427C4322 438 4345 444 4369 444Z" stroke="rgb(0,0,0)" stroke-opacity="1" stroke-width="8" fill="rgb(0,0,0)" fill-opacity="1"></path></g></g><g><g transform="matrix(1,0,0,1,89.04998779296875,32.712493896484375)"><path transform="matrix(0.017,0,0,-0.017,0,0)" d="M604 347L604 406L65 406L65 347ZM604 134L604 193L65 193L65 134Z" stroke="rgb(0,0,0)" stroke-opacity="1" stroke-width="8" fill="rgb(0,0,0)" fill-opacity="1"></path></g></g><g><g><g><g><g><g><g><g transform="matrix(1,0,0,1,109.762451171875,19)"><path transform="matrix(0.017,0,0,-0.017,0,0)" d="M349 664L352 692L238 689C222 689 204 689 161 690L97 692L94 664L141 662C165 661 176 653 176 635L81 55C77 37 65 30 21 23L16 -3L57 -2C88 -1 150 0 170 0L467 -1L500 0C499 25 510 103 523 165L492 165L475 103C466 71 457 54 448 49C435 44 371 39 304 39C255 39 228 40 162 46C165 64 256 605 256 613C263 651 270 658 307 661ZM660 664L715 662C739 661 750 653 750 635L667 125C650 34 649 31 609 28L568 25L564 -3L606 -2C647 -1 678 0 696 0C713 0 742 -1 782 -2L835 -3L838 25L773 28C747 29 737 37 737 58C737 67 738 74 741 93L839 648C875 654 891 656 910 656C1012 656 1061 612 1061 519C1061 411 989 323 901 323C879 323 859 328 822 342L824 311C861 293 881 288 910 288C1039 288 1149 405 1149 541C1149 642 1086 695 967 692L663 692ZM1732 55C1732 39 1717 30 1689 28L1645 25L1645 -3C1747 0 1747 0 1767 0C1787 0 1787 0 1889 -3L1889 25L1863 28C1816 35 1815 35 1807 80L1720 705L1674 705L1301 112C1265 56 1247 40 1213 32L1193 27L1193 -3C1285 0 1285 0 1305 0C1324 0 1326 0 1412 -3L1412 25L1360 28C1344 29 1329 38 1329 47C1329 55 1336 69 1355 102L1457 277L1703 277L1728 89L1728 86C1728 84 1732 69 1732 55ZM1661 601L1698 313L1482 313Z" stroke="rgb(0,0,0)" stroke-opacity="1" stroke-width="8" fill="rgb(0,0,0)" fill-opacity="1"></path></g></g><g><g><g><g><g transform="matrix(1,0,0,1,142.83746337890625,21.2125)"><path transform="matrix(0.0119,0,0,-0.0119,0,0)" d="M125 390L69 107C68 99 56 61 56 31C56 6 67 -9 86 -9C121 -9 156 11 234 74L265 99L255 117L210 86C181 66 161 56 150 56C141 56 136 64 136 76C136 102 150 183 179 328L192 390L299 390L310 440C272 436 238 434 200 434C216 528 227 577 245 631L234 646C214 634 187 622 156 610L131 440C87 419 61 408 43 403L41 390ZM936 347L936 406L397 406L397 347ZM936 134L936 193L397 193L397 134ZM1263 689C1108 689 1029 566 1029 324C1029 207 1050 106 1085 57C1120 8 1176 -20 1238 -20C1389 -20 1465 110 1465 366C1465 585 1400 689 1263 689ZM1245 654C1342 654 1381 556 1381 316C1381 103 1343 15 1251 15C1154 15 1113 116 1113 360C1113 571 1150 654 1245 654Z" stroke="rgb(0,0,0)" stroke-opacity="1" stroke-width="8" fill="rgb(0,0,0)" fill-opacity="1"></path></g></g></g></g></g><g><g transform="matrix(1,0,0,1,165.08746337890625,19)"><path transform="matrix(0.017,0,0,-0.017,0,0)" d="M611 37L376 271L611 505L568 547L335 313L101 547L59 505L293 271L59 37L101 -5L335 229L568 -5Z" stroke="rgb(0,0,0)" stroke-opacity="1" stroke-width="8" fill="rgb(0,0,0)" fill-opacity="1"></path></g></g><g><g transform="matrix(1,0,0,1,179.8499755859375,19)"><path transform="matrix(0.017,0,0,-0.017,0,0)" d="M146 266C146 526 243 632 301 700L282 726C225 675 60 542 60 266C60 159 85 58 133 -32C168 -99 200 -138 282 -215L301 -194C255 -137 146 -15 146 266Z" stroke="rgb(0,0,0)" stroke-opacity="1" stroke-width="8" fill="rgb(0,0,0)" fill-opacity="1"></path></g></g><g><g transform="matrix(1,0,0,1,185.5,19)"><path transform="matrix(0.017,0,0,-0.017,0,0)" d="M418 -3L418 27L366 30C311 33 301 44 301 96L301 700L60 598L67 548L217 614L217 96C217 44 206 33 152 30L96 27L96 -3C250 0 250 0 261 0C292 0 402 -3 418 -3Z" stroke="rgb(0,0,0)" stroke-opacity="1" stroke-width="8" fill="rgb(0,0,0)" fill-opacity="1"></path></g></g><g><g transform="matrix(1,0,0,1,201.625,19)"><path transform="matrix(0.017,0,0,-0.017,0,0)" d="M604 241L604 300L364 300L364 538L305 538L305 300L65 300L65 241L305 241L305 0L364 0L364 241Z" stroke="rgb(0,0,0)" stroke-opacity="1" stroke-width="8" fill="rgb(0,0,0)" fill-opacity="1"></path></g></g><g><g transform="matrix(1,0,0,1,216.387451171875,19)"><path transform="matrix(0.017,0,0,-0.017,0,0)" d="M524 482C457 482 304 419 304 259C304 182 349 136 426 136C434 136 445 136 456 137L415 99C399 84 388 66 388 52C388 42 395 31 409 19C340 -4 212 -48 212 -159C212 -230 282 -276 391 -276C520 -276 633 -204 633 -121C633 -85 612 -49 569 -14L509 35C475 62 462 81 462 100C462 114 477 128 489 146C587 170 658 253 658 342C658 357 655 376 654 380C671 378 679 378 688 378C705 378 715 379 738 382L747 427L744 433C716 426 696 424 642 424C642 425 618 482 524 482ZM425 1L502 -58C548 -94 567 -121 567 -154C567 -206 498 -248 415 -248C333 -248 276 -206 276 -145C276 -43 386 -11 425 1ZM499 448C557 448 586 412 586 341C586 238 538 168 468 168C407 168 375 209 375 288C375 383 426 448 499 448Z" stroke="rgb(0,0,0)" stroke-opacity="1" stroke-width="8" fill="rgb(0,0,0)" fill-opacity="1"></path></g></g><g><g><g><g><g transform="matrix(1,0,0,1,229.61248779296875,21.2125)"><path transform="matrix(0.0119,0,0,-0.0119,0,0)" d="M125 390L69 107C68 99 56 61 56 31C56 6 67 -9 86 -9C121 -9 156 11 234 74L265 99L255 117L210 86C181 66 161 56 150 56C141 56 136 64 136 76C136 102 150 183 179 328L192 390L299 390L310 440C272 436 238 434 200 434C216 528 227 577 245 631L234 646C214 634 187 622 156 610L131 440C87 419 61 408 43 403L41 390ZM936 347L936 406L397 406L397 347ZM936 134L936 193L397 193L397 134ZM1418 -3L1418 27L1366 30C1311 33 1301 44 1301 96L1301 700L1060 598L1067 548L1217 614L1217 96C1217 44 1206 33 1152 30L1096 27L1096 -3C1250 0 1250 0 1261 0C1292 0 1402 -3 1418 -3Z" stroke="rgb(0,0,0)" stroke-opacity="1" stroke-width="8" fill="rgb(0,0,0)" fill-opacity="1"></path></g></g></g></g></g><g><g transform="matrix(1,0,0,1,248.46246337890625,19)"><path transform="matrix(0.017,0,0,-0.017,0,0)" d="M51 726L32 700C87 636 187 526 187 266C187 -10 83 -131 32 -194L51 -215C104 -165 273 -23 273 265C273 542 108 675 51 726Z" stroke="rgb(0,0,0)" stroke-opacity="1" stroke-width="8" fill="rgb(0,0,0)" fill-opacity="1"></path></g></g></g></g><g><g><g><g transform="matrix(1,0,0,1,161.074951171875,45.712493896484375)"><path transform="matrix(0.017,0,0,-0.017,0,0)" d="M418 -3L418 27L366 30C311 33 301 44 301 96L301 700L60 598L67 548L217 614L217 96C217 44 206 33 152 30L96 27L96 -3C250 0 250 0 261 0C292 0 402 -3 418 -3Z" stroke="rgb(0,0,0)" stroke-opacity="1" stroke-width="8" fill="rgb(0,0,0)" fill-opacity="1"></path></g></g><g><g transform="matrix(1,0,0,1,177.199951171875,45.712493896484375)"><path transform="matrix(0.017,0,0,-0.017,0,0)" d="M604 241L604 300L364 300L364 538L305 538L305 300L65 300L65 241L305 241L305 0L364 0L364 241Z" stroke="rgb(0,0,0)" stroke-opacity="1" stroke-width="8" fill="rgb(0,0,0)" fill-opacity="1"></path></g></g><g><g transform="matrix(1,0,0,1,191.96246337890625,45.712493896484375)"><path transform="matrix(0.017,0,0,-0.017,0,0)" d="M617 365C620 403 625 435 633 476C622 481 618 482 613 482C582 482 551 458 515 407C476 351 437 291 421 256L453 408C457 425 459 438 459 450C459 470 451 482 436 482C415 482 377 461 303 408L275 388L282 368L314 389C342 407 353 412 362 412C372 412 379 403 379 390C379 332 336 126 296 -2L306 -9C321 -4 337 -1 360 4L373 6L399 126C417 209 440 262 484 319C518 363 545 384 567 384C582 384 592 379 603 365Z" stroke="rgb(0,0,0)" stroke-opacity="1" stroke-width="8" fill="rgb(0,0,0)" fill-opacity="1"></path></g></g></g></g><line style="fill:none;stroke-width:1px;stroke:rgb(0, 0, 0);" x1="109.762451171875" y1="28.262481689453125" x2="254.11245727539062" y2="28.262481689453125"></line></g></g></g><g><g><g><g transform="matrix(1,0,0,1,155.574951171875,68.9625)"><path transform="matrix(0.0119,0,0,-0.0119,0,0)" d="M582 103L237 692L75 692L70 664L105 662C150 660 184 615 185 606L92 102C80 40 74 32 38 28L7 25L2 -3L113 0C125 0 126 0 223 -3L228 25L186 28C146 31 137 39 137 72C137 80 138 91 140 102L220 566L558 -11L608 -11L702 542C723 655 725 659 762 662L799 664L802 691L589 692L584 664L631 662C657 661 667 654 667 638C667 631 584 116 582 103ZM882 664L937 662C961 661 972 653 972 635L889 125C872 34 871 31 831 28L790 25L786 -3L828 -2C869 -1 900 0 918 0C935 0 964 -1 1004 -2L1057 -3L1060 25L995 28C969 29 959 37 959 58C959 67 960 74 963 93L1061 648C1097 654 1113 656 1132 656C1234 656 1283 612 1283 519C1283 411 1211 323 1123 323C1101 323 1081 328 1044 342L1046 311C1083 293 1103 288 1132 288C1261 288 1371 405 1371 541C1371 642 1308 695 1189 692L885 692ZM1697 96L1626 624C1624 646 1628 661 1668 662L1710 664L1710 692L1669 691C1632 690 1604 689 1586 689C1568 689 1540 690 1503 691L1462 692L1462 664L1487 662C1531 659 1539 651 1546 614L1634 -8L1683 -8L2061 611C2086 651 2094 658 2123 662L2141 664L2141 692L2111 691C2084 690 2061 689 2045 689C2035 689 2008 690 1967 691L1921 692L1921 664L1947 662C1985 659 2004 649 2004 630C2004 619 2000 608 1988 588Z" stroke="rgb(0,0,0)" stroke-opacity="1" stroke-width="8" fill="rgb(0,0,0)" fill-opacity="1"></path></g></g><g><g><g><g><g transform="matrix(1,0,0,1,181.012451171875,71.8674755859375)"><path transform="matrix(0.00833,0,0,-0.00833,0,0)" d="M125 390L69 107C68 99 56 61 56 31C56 6 67 -9 86 -9C121 -9 156 11 234 74L265 99L255 117L210 86C181 66 161 56 150 56C141 56 136 64 136 76C136 102 150 183 179 328L192 390L299 390L310 440C272 436 238 434 200 434C216 528 227 577 245 631L234 646C214 634 187 622 156 610L131 440C87 419 61 408 43 403L41 390ZM936 347L936 406L397 406L397 347ZM936 134L936 193L397 193L397 134ZM1271 204L1242 77C1238 60 1236 42 1236 26C1236 4 1245 -9 1260 -9C1283 -9 1324 17 1406 85L1399 106C1375 86 1346 59 1324 59C1315 59 1309 68 1309 82C1309 87 1309 90 1310 93L1402 472L1392 481L1359 463C1318 478 1301 482 1274 482C1246 482 1226 477 1199 464C1137 433 1104 403 1079 354C1035 265 1004 145 1004 67C1004 23 1019 -11 1038 -11C1075 -11 1155 41 1271 204ZM1319 414C1297 305 1278 253 1244 201C1187 117 1126 59 1094 59C1082 59 1076 72 1076 99C1076 163 1104 280 1139 360C1163 415 1186 433 1234 433C1257 433 1275 429 1319 414ZM1467 388L1474 368L1506 389C1543 412 1546 414 1553 414C1564 414 1571 404 1571 389C1571 338 1530 145 1489 2L1496 -9C1521 -2 1544 4 1566 8C1585 134 1606 199 1652 268C1706 352 1781 414 1826 414C1837 414 1843 405 1843 390C1843 372 1840 351 1832 319L1780 107C1771 70 1767 47 1767 31C1767 6 1778 -9 1797 -9C1823 -9 1859 12 1957 85L1947 103L1921 86C1892 67 1870 56 1860 56C1853 56 1847 65 1847 76C1847 81 1848 92 1849 96L1915 372C1922 401 1926 429 1926 446C1926 469 1915 482 1895 482C1853 482 1784 444 1725 389C1687 354 1659 320 1607 247L1645 408C1649 426 1651 438 1651 449C1651 470 1643 482 1628 482C1607 482 1568 460 1495 408ZM2015 152C2015 46 2060 -11 2143 -11C2198 -11 2258 15 2303 57C2365 116 2409 230 2409 331C2409 425 2359 482 2276 482C2172 482 2015 382 2015 152ZM2239 444C2300 444 2333 399 2333 315C2333 219 2302 113 2258 60C2240 39 2214 27 2183 27C2125 27 2091 72 2091 151C2091 264 2130 387 2179 427C2192 438 2215 444 2239 444ZM3108 -3L3108 27L3056 30C3001 33 2991 44 2991 96L2991 700L2750 598L2757 548L2907 614L2907 96C2907 44 2896 33 2842 30L2786 27L2786 -3C2940 0 2940 0 2951 0C2982 0 3092 -3 3108 -3Z" stroke="rgb(0,0,0)" stroke-opacity="1" stroke-width="8" fill="rgb(0,0,0)" fill-opacity="1"></path></g></g></g></g></g></g></g><svg xmlns="http://www.w3.org/2000/svg" x="105.4375" y="45.712493896484375" height="12.15000057220459" width="13.08750057220459"><defs><clipPath id="ccp0.5850862616472288"><rect x="-0.5" y="-0.5" width="13.58750057220459" height="12.65000057220459"></rect></clipPath></defs><g clip-path="url(#ccp0.5850862616472288)"><svg xmlns="http://www.w3.org/2000/svg" x="0" y="0" height="12.15000057220459" width="13.08750057220459"><defs><clipPath id="ccp0.9981038898308672"><rect x="-0.5" y="-0.5" width="13.58750057220459" height="12.65000057220459"></rect></clipPath></defs><g clip-path="url(#ccp0.9981038898308672)"><g><g transform="matrix(1,0,0,1,0,18.7)"><path transform="matrix(0.018699999999999998,0,0,-0.018699999999999998,0,0)" d="M27 918C35 918 47 900 54 890C171 732 432 725 626 725L739 725L739 630L686 630C326 630 127 703 32 881C30 885 22 902 22 911C22 915 24 918 27 918Z" stroke="rgb(0,0,0)" stroke-opacity="1" stroke-width="8" fill="rgb(0,0,0)" fill-opacity="1"></path></g></g></g></svg></g></svg><svg xmlns="http://www.w3.org/2000/svg" x="118.52496337890625" y="45.712493896484375" height="12.15000057220459" width="57.8125"><defs><clipPath id="ccp0.38250336775608007"><rect x="-0.5" y="-0.5" width="58.3125" height="12.65000057220459"></rect></clipPath></defs><g clip-path="url(#ccp0.38250336775608007)"><svg xmlns="http://www.w3.org/2000/svg" x="0" y="0" height="22.399999618530273" width="93.5"><defs><clipPath id="ccp0.41795152481380704"><rect x="-0.5" y="-0.5" width="94" height="22.899999618530273"></rect></clipPath></defs><g clip-path="url(#ccp0.41795152481380704)"><g><g transform="matrix(1,0,0,1,0,18.7)"><path transform="matrix(0.018699999999999998,0,0,-0.018699999999999998,0,0)" d="M-877 725L1877 725L1877 630L-877 630Z" stroke="rgb(0,0,0)" stroke-opacity="1" stroke-width="8" fill="rgb(0,0,0)" fill-opacity="1"></path></g></g></g></svg><svg xmlns="http://www.w3.org/2000/svg" x="0" y="0" height="22.399999618530273" width="93.5"><defs><clipPath id="ccp0.35623192162035844"><rect x="-0.5" y="-0.5" width="94" height="22.899999618530273"></rect></clipPath></defs><g clip-path="url(#ccp0.35623192162035844)"><g><g transform="matrix(1,0,0,1,18.70001220703125,18.7)"><path transform="matrix(0.018699999999999998,0,0,-0.018699999999999998,0,0)" d="M-877 725L1877 725L1877 630L-877 630Z" stroke="rgb(0,0,0)" stroke-opacity="1" stroke-width="8" fill="rgb(0,0,0)" fill-opacity="1"></path></g></g></g></svg><svg xmlns="http://www.w3.org/2000/svg" x="0" y="0" height="22.399999618530273" width="93.5"><defs><clipPath id="ccp0.8549296948611975"><rect x="-0.5" y="-0.5" width="94" height="22.899999618530273"></rect></clipPath></defs><g clip-path="url(#ccp0.8549296948611975)"><g><g transform="matrix(1,0,0,1,37.4000244140625,18.7)"><path transform="matrix(0.018699999999999998,0,0,-0.018699999999999998,0,0)" d="M-877 725L1877 725L1877 630L-877 630Z" stroke="rgb(0,0,0)" stroke-opacity="1" stroke-width="8" fill="rgb(0,0,0)" fill-opacity="1"></path></g></g></g></svg><svg xmlns="http://www.w3.org/2000/svg" x="0" y="0" height="22.399999618530273" width="93.5"><defs><clipPath id="ccp0.9590117141430676"><rect x="-0.5" y="-0.5" width="94" height="22.899999618530273"></rect></clipPath></defs><g clip-path="url(#ccp0.9590117141430676)"><g><g transform="matrix(1,0,0,1,56.10003662109375,18.7)"><path transform="matrix(0.018699999999999998,0,0,-0.018699999999999998,0,0)" d="M-877 725L1877 725L1877 630L-877 630Z" stroke="rgb(0,0,0)" stroke-opacity="1" stroke-width="8" fill="rgb(0,0,0)" fill-opacity="1"></path></g></g></g></svg><svg xmlns="http://www.w3.org/2000/svg" x="0" y="0" height="22.399999618530273" width="93.5"><defs><clipPath id="ccp0.8080288099241353"><rect x="-0.5" y="-0.5" width="94" height="22.899999618530273"></rect></clipPath></defs><g clip-path="url(#ccp0.8080288099241353)"><g><g transform="matrix(1,0,0,1,74.79998779296875,18.7)"><path transform="matrix(0.018699999999999998,0,0,-0.018699999999999998,0,0)" d="M-877 725L1877 725L1877 630L-877 630Z" stroke="rgb(0,0,0)" stroke-opacity="1" stroke-width="8" fill="rgb(0,0,0)" fill-opacity="1"></path></g></g></g></svg></g></svg><svg xmlns="http://www.w3.org/2000/svg" x="176.33746337890625" y="45.712493896484375" height="12.15000057220459" width="11.21250057220459"><defs><clipPath id="ccp0.8581709770080121"><rect x="-0.5" y="-0.5" width="11.71250057220459" height="12.65000057220459"></rect></clipPath></defs><g clip-path="url(#ccp0.8581709770080121)"><svg xmlns="http://www.w3.org/2000/svg" x="0" y="0" height="12.15000057220459" width="11.21250057220459"><defs><clipPath id="ccp0.20712588214641547"><rect x="-0.5" y="-0.5" width="11.71250057220459" height="12.65000057220459"></rect></clipPath></defs><g clip-path="url(#ccp0.20712588214641547)"><g><g transform="matrix(1,0,0,1,0,18.7)"><path transform="matrix(0.018699999999999998,0,0,-0.018699999999999998,0,0)" d="M-54 725L-2 725C92 725 253 690 324 521C397 690 557 725 650 725L703 725L703 630L650 630C389 630 323 439 323 438L321 438C321 439 260 630 -2 630L-54 630Z" stroke="rgb(0,0,0)" stroke-opacity="1" stroke-width="8" fill="rgb(0,0,0)" fill-opacity="1"></path></g></g></g></svg></g></svg><svg xmlns="http://www.w3.org/2000/svg" x="187.54998779296875" y="45.712493896484375" height="12.15000057220459" width="57.8125"><defs><clipPath id="ccp0.10589281004197293"><rect x="-0.5" y="-0.5" width="58.3125" height="12.65000057220459"></rect></clipPath></defs><g clip-path="url(#ccp0.10589281004197293)"><svg xmlns="http://www.w3.org/2000/svg" x="0" y="0" height="22.399999618530273" width="93.5"><defs><clipPath id="ccp0.20270650478981866"><rect x="-0.5" y="-0.5" width="94" height="22.899999618530273"></rect></clipPath></defs><g clip-path="url(#ccp0.20270650478981866)"><g><g transform="matrix(1,0,0,1,0,18.7)"><path transform="matrix(0.018699999999999998,0,0,-0.018699999999999998,0,0)" d="M-877 725L1877 725L1877 630L-877 630Z" stroke="rgb(0,0,0)" stroke-opacity="1" stroke-width="8" fill="rgb(0,0,0)" fill-opacity="1"></path></g></g></g></svg><svg xmlns="http://www.w3.org/2000/svg" x="0" y="0" height="22.399999618530273" width="93.5"><defs><clipPath id="ccp0.6066362770659306"><rect x="-0.5" y="-0.5" width="94" height="22.899999618530273"></rect></clipPath></defs><g clip-path="url(#ccp0.6066362770659306)"><g><g transform="matrix(1,0,0,1,18.70001220703125,18.7)"><path transform="matrix(0.018699999999999998,0,0,-0.018699999999999998,0,0)" d="M-877 725L1877 725L1877 630L-877 630Z" stroke="rgb(0,0,0)" stroke-opacity="1" stroke-width="8" fill="rgb(0,0,0)" fill-opacity="1"></path></g></g></g></svg><svg xmlns="http://www.w3.org/2000/svg" x="0" y="0" height="22.399999618530273" width="93.5"><defs><clipPath id="ccp0.2652010704175203"><rect x="-0.5" y="-0.5" width="94" height="22.899999618530273"></rect></clipPath></defs><g clip-path="url(#ccp0.2652010704175203)"><g><g transform="matrix(1,0,0,1,37.39996337890625,18.7)"><path transform="matrix(0.018699999999999998,0,0,-0.018699999999999998,0,0)" d="M-877 725L1877 725L1877 630L-877 630Z" stroke="rgb(0,0,0)" stroke-opacity="1" stroke-width="8" fill="rgb(0,0,0)" fill-opacity="1"></path></g></g></g></svg><svg xmlns="http://www.w3.org/2000/svg" x="0" y="0" height="22.399999618530273" width="93.5"><defs><clipPath id="ccp0.44489382019817425"><rect x="-0.5" y="-0.5" width="94" height="22.899999618530273"></rect></clipPath></defs><g clip-path="url(#ccp0.44489382019817425)"><g><g transform="matrix(1,0,0,1,56.0999755859375,18.7)"><path transform="matrix(0.018699999999999998,0,0,-0.018699999999999998,0,0)" d="M-877 725L1877 725L1877 630L-877 630Z" stroke="rgb(0,0,0)" stroke-opacity="1" stroke-width="8" fill="rgb(0,0,0)" fill-opacity="1"></path></g></g></g></svg><svg xmlns="http://www.w3.org/2000/svg" x="0" y="0" height="22.399999618530273" width="93.5"><defs><clipPath id="ccp0.8531490933936781"><rect x="-0.5" y="-0.5" width="94" height="22.899999618530273"></rect></clipPath></defs><g clip-path="url(#ccp0.8531490933936781)"><g><g transform="matrix(1,0,0,1,74.79998779296875,18.7)"><path transform="matrix(0.018699999999999998,0,0,-0.018699999999999998,0,0)" d="M-877 725L1877 725L1877 630L-877 630Z" stroke="rgb(0,0,0)" stroke-opacity="1" stroke-width="8" fill="rgb(0,0,0)" fill-opacity="1"></path></g></g></g></svg></g></svg><svg xmlns="http://www.w3.org/2000/svg" x="245.36248779296875" y="45.712493896484375" height="12.15000057220459" width="13.08750057220459"><defs><clipPath id="ccp0.45478467788105426"><rect x="-0.5" y="-0.5" width="13.58750057220459" height="12.65000057220459"></rect></clipPath></defs><g clip-path="url(#ccp0.45478467788105426)"><svg xmlns="http://www.w3.org/2000/svg" x="0" y="0" height="12.15000057220459" width="13.08750057220459"><defs><clipPath id="ccp0.8454442038623444"><rect x="-0.5" y="-0.5" width="13.58750057220459" height="12.65000057220459"></rect></clipPath></defs><g clip-path="url(#ccp0.8454442038623444)"><g><g transform="matrix(1,0,0,1,0,18.7)"><path transform="matrix(0.018699999999999998,0,0,-0.018699999999999998,0,0)" d="M682 918C685 918 687 915 687 911C687 902 679 885 676 881C582 703 383 630 23 630L-30 630L-30 725L83 725C276 725 537 732 654 890C661 900 673 918 682 918Z" stroke="rgb(0,0,0)" stroke-opacity="1" stroke-width="8" fill="rgb(0,0,0)" fill-opacity="1"></path></g></g></g></svg></g></svg></g><g><g transform="matrix(1,0,0,1,258.36248779296875,32.712493896484375)"><path transform="matrix(0.017,0,0,-0.017,0,0)" d="" stroke="rgb(0,0,0)" stroke-opacity="1" stroke-width="8" fill="rgb(0,0,0)" fill-opacity="1"></path></g></g><g><g transform="matrix(1,0,0,1,270.23748779296875,32.712493896484375)"><path transform="matrix(0.017,0,0,-0.017,0,0)" d="M604 241L604 300L364 300L364 538L305 538L305 300L65 300L65 241L305 241L305 0L364 0L364 241Z" stroke="rgb(0,0,0)" stroke-opacity="1" stroke-width="8" fill="rgb(0,0,0)" fill-opacity="1"></path></g></g><g><g transform="matrix(1,0,0,1,285,32.712493896484375)"><path transform="matrix(0.017,0,0,-0.017,0,0)" d="" stroke="rgb(0,0,0)" stroke-opacity="1" stroke-width="8" fill="rgb(0,0,0)" fill-opacity="1"></path></g></g><g><g><g><g><g><g><g><g transform="matrix(1,0,0,1,293.48748779296875,19)"><path transform="matrix(0.017,0,0,-0.017,0,0)" d="M349 664L352 692L238 689C222 689 204 689 161 690L97 692L94 664L141 662C165 661 176 653 176 635L81 55C77 37 65 30 21 23L16 -3L57 -2C88 -1 150 0 170 0L467 -1L500 0C499 25 510 103 523 165L492 165L475 103C466 71 457 54 448 49C435 44 371 39 304 39C255 39 228 40 162 46C165 64 256 605 256 613C263 651 270 658 307 661ZM660 664L715 662C739 661 750 653 750 635L667 125C650 34 649 31 609 28L568 25L564 -3L606 -2C647 -1 678 0 696 0C713 0 742 -1 782 -2L835 -3L838 25L773 28C747 29 737 37 737 58C737 67 738 74 741 93L839 648C875 654 891 656 910 656C1012 656 1061 612 1061 519C1061 411 989 323 901 323C879 323 859 328 822 342L824 311C861 293 881 288 910 288C1039 288 1149 405 1149 541C1149 642 1086 695 967 692L663 692ZM1732 55C1732 39 1717 30 1689 28L1645 25L1645 -3C1747 0 1747 0 1767 0C1787 0 1787 0 1889 -3L1889 25L1863 28C1816 35 1815 35 1807 80L1720 705L1674 705L1301 112C1265 56 1247 40 1213 32L1193 27L1193 -3C1285 0 1285 0 1305 0C1324 0 1326 0 1412 -3L1412 25L1360 28C1344 29 1329 38 1329 47C1329 55 1336 69 1355 102L1457 277L1703 277L1728 89L1728 86C1728 84 1732 69 1732 55ZM1661 601L1698 313L1482 313Z" stroke="rgb(0,0,0)" stroke-opacity="1" stroke-width="8" fill="rgb(0,0,0)" fill-opacity="1"></path></g></g><g><g><g><g><g transform="matrix(1,0,0,1,326.5625,21.2125)"><path transform="matrix(0.0119,0,0,-0.0119,0,0)" d="M125 390L69 107C68 99 56 61 56 31C56 6 67 -9 86 -9C121 -9 156 11 234 74L265 99L255 117L210 86C181 66 161 56 150 56C141 56 136 64 136 76C136 102 150 183 179 328L192 390L299 390L310 440C272 436 238 434 200 434C216 528 227 577 245 631L234 646C214 634 187 622 156 610L131 440C87 419 61 408 43 403L41 390ZM936 347L936 406L397 406L397 347ZM936 134L936 193L397 193L397 134ZM1418 -3L1418 27L1366 30C1311 33 1301 44 1301 96L1301 700L1060 598L1067 548L1217 614L1217 96C1217 44 1206 33 1152 30L1096 27L1096 -3C1250 0 1250 0 1261 0C1292 0 1402 -3 1418 -3Z" stroke="rgb(0,0,0)" stroke-opacity="1" stroke-width="8" fill="rgb(0,0,0)" fill-opacity="1"></path></g></g></g></g></g><g><g transform="matrix(1,0,0,1,348.8125,19)"><path transform="matrix(0.017,0,0,-0.017,0,0)" d="M611 37L376 271L611 505L568 547L335 313L101 547L59 505L293 271L59 37L101 -5L335 229L568 -5Z" stroke="rgb(0,0,0)" stroke-opacity="1" stroke-width="8" fill="rgb(0,0,0)" fill-opacity="1"></path></g></g><g><g transform="matrix(1,0,0,1,363.574951171875,19)"><path transform="matrix(0.017,0,0,-0.017,0,0)" d="M146 266C146 526 243 632 301 700L282 726C225 675 60 542 60 266C60 159 85 58 133 -32C168 -99 200 -138 282 -215L301 -194C255 -137 146 -15 146 266Z" stroke="rgb(0,0,0)" stroke-opacity="1" stroke-width="8" fill="rgb(0,0,0)" fill-opacity="1"></path></g></g><g><g transform="matrix(1,0,0,1,369.2249755859375,19)"><path transform="matrix(0.017,0,0,-0.017,0,0)" d="M418 -3L418 27L366 30C311 33 301 44 301 96L301 700L60 598L67 548L217 614L217 96C217 44 206 33 152 30L96 27L96 -3C250 0 250 0 261 0C292 0 402 -3 418 -3Z" stroke="rgb(0,0,0)" stroke-opacity="1" stroke-width="8" fill="rgb(0,0,0)" fill-opacity="1"></path></g></g><g><g transform="matrix(1,0,0,1,385.3499755859375,19)"><path transform="matrix(0.017,0,0,-0.017,0,0)" d="M604 241L604 300L364 300L364 538L305 538L305 300L65 300L65 241L305 241L305 0L364 0L364 241Z" stroke="rgb(0,0,0)" stroke-opacity="1" stroke-width="8" fill="rgb(0,0,0)" fill-opacity="1"></path></g></g><g><g transform="matrix(1,0,0,1,400.11248779296875,19)"><path transform="matrix(0.017,0,0,-0.017,0,0)" d="M524 482C457 482 304 419 304 259C304 182 349 136 426 136C434 136 445 136 456 137L415 99C399 84 388 66 388 52C388 42 395 31 409 19C340 -4 212 -48 212 -159C212 -230 282 -276 391 -276C520 -276 633 -204 633 -121C633 -85 612 -49 569 -14L509 35C475 62 462 81 462 100C462 114 477 128 489 146C587 170 658 253 658 342C658 357 655 376 654 380C671 378 679 378 688 378C705 378 715 379 738 382L747 427L744 433C716 426 696 424 642 424C642 425 618 482 524 482ZM425 1L502 -58C548 -94 567 -121 567 -154C567 -206 498 -248 415 -248C333 -248 276 -206 276 -145C276 -43 386 -11 425 1ZM499 448C557 448 586 412 586 341C586 238 538 168 468 168C407 168 375 209 375 288C375 383 426 448 499 448Z" stroke="rgb(0,0,0)" stroke-opacity="1" stroke-width="8" fill="rgb(0,0,0)" fill-opacity="1"></path></g></g><g><g><g><g><g transform="matrix(1,0,0,1,413.33746337890625,21.2125)"><path transform="matrix(0.0119,0,0,-0.0119,0,0)" d="M125 390L69 107C68 99 56 61 56 31C56 6 67 -9 86 -9C121 -9 156 11 234 74L265 99L255 117L210 86C181 66 161 56 150 56C141 56 136 64 136 76C136 102 150 183 179 328L192 390L299 390L310 440C272 436 238 434 200 434C216 528 227 577 245 631L234 646C214 634 187 622 156 610L131 440C87 419 61 408 43 403L41 390ZM936 347L936 406L397 406L397 347ZM936 134L936 193L397 193L397 134ZM1016 23L1016 -3C1203 -3 1203 0 1239 0C1275 0 1275 -3 1468 -3L1468 82C1353 77 1307 81 1122 77L1304 270C1401 373 1431 428 1431 503C1431 618 1353 689 1226 689C1154 689 1105 669 1056 619L1039 483L1068 483L1081 529C1097 587 1133 612 1200 612C1286 612 1341 558 1341 473C1341 398 1299 324 1186 204Z" stroke="rgb(0,0,0)" stroke-opacity="1" stroke-width="8" fill="rgb(0,0,0)" fill-opacity="1"></path></g></g></g></g></g><g><g transform="matrix(1,0,0,1,432.1875,19)"><path transform="matrix(0.017,0,0,-0.017,0,0)" d="M51 726L32 700C87 636 187 526 187 266C187 -10 83 -131 32 -194L51 -215C104 -165 273 -23 273 265C273 542 108 675 51 726Z" stroke="rgb(0,0,0)" stroke-opacity="1" stroke-width="8" fill="rgb(0,0,0)" fill-opacity="1"></path></g></g></g></g><g><g><g><g transform="matrix(1,0,0,1,332.4124755859375,47.4749755859375)"><path transform="matrix(0.017,0,0,-0.017,0,0)" d="M146 266C146 526 243 632 301 700L282 726C225 675 60 542 60 266C60 159 85 58 133 -32C168 -99 200 -138 282 -215L301 -194C255 -137 146 -15 146 266Z" stroke="rgb(0,0,0)" stroke-opacity="1" stroke-width="8" fill="rgb(0,0,0)" fill-opacity="1"></path></g></g><g><g transform="matrix(1,0,0,1,338.0625,47.4749755859375)"><path transform="matrix(0.017,0,0,-0.017,0,0)" d="M418 -3L418 27L366 30C311 33 301 44 301 96L301 700L60 598L67 548L217 614L217 96C217 44 206 33 152 30L96 27L96 -3C250 0 250 0 261 0C292 0 402 -3 418 -3Z" stroke="rgb(0,0,0)" stroke-opacity="1" stroke-width="8" fill="rgb(0,0,0)" fill-opacity="1"></path></g></g><g><g transform="matrix(1,0,0,1,354.1875,47.4749755859375)"><path transform="matrix(0.017,0,0,-0.017,0,0)" d="M604 241L604 300L364 300L364 538L305 538L305 300L65 300L65 241L305 241L305 0L364 0L364 241Z" stroke="rgb(0,0,0)" stroke-opacity="1" stroke-width="8" fill="rgb(0,0,0)" fill-opacity="1"></path></g></g><g><g transform="matrix(1,0,0,1,368.949951171875,47.4749755859375)"><path transform="matrix(0.017,0,0,-0.017,0,0)" d="M617 365C620 403 625 435 633 476C622 481 618 482 613 482C582 482 551 458 515 407C476 351 437 291 421 256L453 408C457 425 459 438 459 450C459 470 451 482 436 482C415 482 377 461 303 408L275 388L282 368L314 389C342 407 353 412 362 412C372 412 379 403 379 390C379 332 336 126 296 -2L306 -9C321 -4 337 -1 360 4L373 6L399 126C417 209 440 262 484 319C518 363 545 384 567 384C582 384 592 379 603 365Z" stroke="rgb(0,0,0)" stroke-opacity="1" stroke-width="8" fill="rgb(0,0,0)" fill-opacity="1"></path></g></g><g><g transform="matrix(1,0,0,1,379.7874755859375,47.4749755859375)"><path transform="matrix(0.017,0,0,-0.017,0,0)" d="M51 726L32 700C87 636 187 526 187 266C187 -10 83 -131 32 -194L51 -215C104 -165 273 -23 273 265C273 542 108 675 51 726Z" stroke="rgb(0,0,0)" stroke-opacity="1" stroke-width="8" fill="rgb(0,0,0)" fill-opacity="1"></path></g></g><g><g><g><g><g><g></g></g></g><g><g transform="matrix(1,0,0,1,391.96246337890625,40.65)"><path transform="matrix(0.0119,0,0,-0.0119,0,0)" d="M16 23L16 -3C203 -3 203 0 239 0C275 0 275 -3 468 -3L468 82C353 77 307 81 122 77L304 270C401 373 431 428 431 503C431 618 353 689 226 689C154 689 105 669 56 619L39 483L68 483L81 529C97 587 133 612 200 612C286 612 341 558 341 473C341 398 299 324 186 204Z" stroke="rgb(0,0,0)" stroke-opacity="1" stroke-width="8" fill="rgb(0,0,0)" fill-opacity="1"></path></g></g></g></g></g></g></g><line style="fill:none;stroke-width:1px;stroke:rgb(0, 0, 0);" x1="293.48748779296875" y1="28.262481689453125" x2="437.8374938964844" y2="28.262481689453125"></line></g></g></g><g><g><g><g transform="matrix(1,0,0,1,339.29998779296875,73.72498168945313)"><path transform="matrix(0.0119,0,0,-0.0119,0,0)" d="M582 103L237 692L75 692L70 664L105 662C150 660 184 615 185 606L92 102C80 40 74 32 38 28L7 25L2 -3L113 0C125 0 126 0 223 -3L228 25L186 28C146 31 137 39 137 72C137 80 138 91 140 102L220 566L558 -11L608 -11L702 542C723 655 725 659 762 662L799 664L802 691L589 692L584 664L631 662C657 661 667 654 667 638C667 631 584 116 582 103ZM882 664L937 662C961 661 972 653 972 635L889 125C872 34 871 31 831 28L790 25L786 -3L828 -2C869 -1 900 0 918 0C935 0 964 -1 1004 -2L1057 -3L1060 25L995 28C969 29 959 37 959 58C959 67 960 74 963 93L1061 648C1097 654 1113 656 1132 656C1234 656 1283 612 1283 519C1283 411 1211 323 1123 323C1101 323 1081 328 1044 342L1046 311C1083 293 1103 288 1132 288C1261 288 1371 405 1371 541C1371 642 1308 695 1189 692L885 692ZM1697 96L1626 624C1624 646 1628 661 1668 662L1710 664L1710 692L1669 691C1632 690 1604 689 1586 689C1568 689 1540 690 1503 691L1462 692L1462 664L1487 662C1531 659 1539 651 1546 614L1634 -8L1683 -8L2061 611C2086 651 2094 658 2123 662L2141 664L2141 692L2111 691C2084 690 2061 689 2045 689C2035 689 2008 690 1967 691L1921 692L1921 664L1947 662C1985 659 2004 649 2004 630C2004 619 2000 608 1988 588Z" stroke="rgb(0,0,0)" stroke-opacity="1" stroke-width="8" fill="rgb(0,0,0)" fill-opacity="1"></path></g></g><g><g><g><g><g transform="matrix(1,0,0,1,364.73748779296875,76.62998779296875)"><path transform="matrix(0.00833,0,0,-0.00833,0,0)" d="M125 390L69 107C68 99 56 61 56 31C56 6 67 -9 86 -9C121 -9 156 11 234 74L265 99L255 117L210 86C181 66 161 56 150 56C141 56 136 64 136 76C136 102 150 183 179 328L192 390L299 390L310 440C272 436 238 434 200 434C216 528 227 577 245 631L234 646C214 634 187 622 156 610L131 440C87 419 61 408 43 403L41 390ZM936 347L936 406L397 406L397 347ZM936 134L936 193L397 193L397 134ZM1271 204L1242 77C1238 60 1236 42 1236 26C1236 4 1245 -9 1260 -9C1283 -9 1324 17 1406 85L1399 106C1375 86 1346 59 1324 59C1315 59 1309 68 1309 82C1309 87 1309 90 1310 93L1402 472L1392 481L1359 463C1318 478 1301 482 1274 482C1246 482 1226 477 1199 464C1137 433 1104 403 1079 354C1035 265 1004 145 1004 67C1004 23 1019 -11 1038 -11C1075 -11 1155 41 1271 204ZM1319 414C1297 305 1278 253 1244 201C1187 117 1126 59 1094 59C1082 59 1076 72 1076 99C1076 163 1104 280 1139 360C1163 415 1186 433 1234 433C1257 433 1275 429 1319 414ZM1467 388L1474 368L1506 389C1543 412 1546 414 1553 414C1564 414 1571 404 1571 389C1571 338 1530 145 1489 2L1496 -9C1521 -2 1544 4 1566 8C1585 134 1606 199 1652 268C1706 352 1781 414 1826 414C1837 414 1843 405 1843 390C1843 372 1840 351 1832 319L1780 107C1771 70 1767 47 1767 31C1767 6 1778 -9 1797 -9C1823 -9 1859 12 1957 85L1947 103L1921 86C1892 67 1870 56 1860 56C1853 56 1847 65 1847 76C1847 81 1848 92 1849 96L1915 372C1922 401 1926 429 1926 446C1926 469 1915 482 1895 482C1853 482 1784 444 1725 389C1687 354 1659 320 1607 247L1645 408C1649 426 1651 438 1651 449C1651 470 1643 482 1628 482C1607 482 1568 460 1495 408ZM2015 152C2015 46 2060 -11 2143 -11C2198 -11 2258 15 2303 57C2365 116 2409 230 2409 331C2409 425 2359 482 2276 482C2172 482 2015 382 2015 152ZM2239 444C2300 444 2333 399 2333 315C2333 219 2302 113 2258 60C2240 39 2214 27 2183 27C2125 27 2091 72 2091 151C2091 264 2130 387 2179 427C2192 438 2215 444 2239 444ZM2706 23L2706 -3C2893 -3 2893 0 2929 0C2965 0 2965 -3 3158 -3L3158 82C3043 77 2997 81 2812 77L2994 270C3091 373 3121 428 3121 503C3121 618 3043 689 2916 689C2844 689 2795 669 2746 619L2729 483L2758 483L2771 529C2787 587 2823 612 2890 612C2976 612 3031 558 3031 473C3031 398 2989 324 2876 204Z" stroke="rgb(0,0,0)" stroke-opacity="1" stroke-width="8" fill="rgb(0,0,0)" fill-opacity="1"></path></g></g></g></g></g></g></g><svg xmlns="http://www.w3.org/2000/svg" x="289.1624755859375" y="50.4749755859375" height="12.15000057220459" width="13.08750057220459"><defs><clipPath id="ccp0.9759017264295138"><rect x="-0.5" y="-0.5" width="13.58750057220459" height="12.65000057220459"></rect></clipPath></defs><g clip-path="url(#ccp0.9759017264295138)"><svg xmlns="http://www.w3.org/2000/svg" x="0" y="0" height="12.15000057220459" width="13.08750057220459"><defs><clipPath id="ccp0.7991729175370748"><rect x="-0.5" y="-0.5" width="13.58750057220459" height="12.65000057220459"></rect></clipPath></defs><g clip-path="url(#ccp0.7991729175370748)"><g><g transform="matrix(1,0,0,1,0,18.7)"><path transform="matrix(0.018699999999999998,0,0,-0.018699999999999998,0,0)" d="M27 918C35 918 47 900 54 890C171 732 432 725 626 725L739 725L739 630L686 630C326 630 127 703 32 881C30 885 22 902 22 911C22 915 24 918 27 918Z" stroke="rgb(0,0,0)" stroke-opacity="1" stroke-width="8" fill="rgb(0,0,0)" fill-opacity="1"></path></g></g></g></svg></g></svg><svg xmlns="http://www.w3.org/2000/svg" x="302.25" y="50.4749755859375" height="12.15000057220459" width="57.8125"><defs><clipPath id="ccp0.7428183147632654"><rect x="-0.5" y="-0.5" width="58.3125" height="12.65000057220459"></rect></clipPath></defs><g clip-path="url(#ccp0.7428183147632654)"><svg xmlns="http://www.w3.org/2000/svg" x="0" y="0" height="22.399999618530273" width="93.5"><defs><clipPath id="ccp0.5675681924114178"><rect x="-0.5" y="-0.5" width="94" height="22.899999618530273"></rect></clipPath></defs><g clip-path="url(#ccp0.5675681924114178)"><g><g transform="matrix(1,0,0,1,0,18.7)"><path transform="matrix(0.018699999999999998,0,0,-0.018699999999999998,0,0)" d="M-877 725L1877 725L1877 630L-877 630Z" stroke="rgb(0,0,0)" stroke-opacity="1" stroke-width="8" fill="rgb(0,0,0)" fill-opacity="1"></path></g></g></g></svg><svg xmlns="http://www.w3.org/2000/svg" x="0" y="0" height="22.399999618530273" width="93.5"><defs><clipPath id="ccp0.8753675320834522"><rect x="-0.5" y="-0.5" width="94" height="22.899999618530273"></rect></clipPath></defs><g clip-path="url(#ccp0.8753675320834522)"><g><g transform="matrix(1,0,0,1,18.699951171875,18.7)"><path transform="matrix(0.018699999999999998,0,0,-0.018699999999999998,0,0)" d="M-877 725L1877 725L1877 630L-877 630Z" stroke="rgb(0,0,0)" stroke-opacity="1" stroke-width="8" fill="rgb(0,0,0)" fill-opacity="1"></path></g></g></g></svg><svg xmlns="http://www.w3.org/2000/svg" x="0" y="0" height="22.399999618530273" width="93.5"><defs><clipPath id="ccp0.09710456775394283"><rect x="-0.5" y="-0.5" width="94" height="22.899999618530273"></rect></clipPath></defs><g clip-path="url(#ccp0.09710456775394283)"><g><g transform="matrix(1,0,0,1,37.39996337890625,18.7)"><path transform="matrix(0.018699999999999998,0,0,-0.018699999999999998,0,0)" d="M-877 725L1877 725L1877 630L-877 630Z" stroke="rgb(0,0,0)" stroke-opacity="1" stroke-width="8" fill="rgb(0,0,0)" fill-opacity="1"></path></g></g></g></svg><svg xmlns="http://www.w3.org/2000/svg" x="0" y="0" height="22.399999618530273" width="93.5"><defs><clipPath id="ccp0.42007264472425465"><rect x="-0.5" y="-0.5" width="94" height="22.899999618530273"></rect></clipPath></defs><g clip-path="url(#ccp0.42007264472425465)"><g><g transform="matrix(1,0,0,1,56.0999755859375,18.7)"><path transform="matrix(0.018699999999999998,0,0,-0.018699999999999998,0,0)" d="M-877 725L1877 725L1877 630L-877 630Z" stroke="rgb(0,0,0)" stroke-opacity="1" stroke-width="8" fill="rgb(0,0,0)" fill-opacity="1"></path></g></g></g></svg><svg xmlns="http://www.w3.org/2000/svg" x="0" y="0" height="22.399999618530273" width="93.5"><defs><clipPath id="ccp0.4514332857455361"><rect x="-0.5" y="-0.5" width="94" height="22.899999618530273"></rect></clipPath></defs><g clip-path="url(#ccp0.4514332857455361)"><g><g transform="matrix(1,0,0,1,74.79998779296875,18.7)"><path transform="matrix(0.018699999999999998,0,0,-0.018699999999999998,0,0)" d="M-877 725L1877 725L1877 630L-877 630Z" stroke="rgb(0,0,0)" stroke-opacity="1" stroke-width="8" fill="rgb(0,0,0)" fill-opacity="1"></path></g></g></g></svg></g></svg><svg xmlns="http://www.w3.org/2000/svg" x="360.0625" y="50.4749755859375" height="12.15000057220459" width="11.21250057220459"><defs><clipPath id="ccp0.12583082255936584"><rect x="-0.5" y="-0.5" width="11.71250057220459" height="12.65000057220459"></rect></clipPath></defs><g clip-path="url(#ccp0.12583082255936584)"><svg xmlns="http://www.w3.org/2000/svg" x="0" y="0" height="12.15000057220459" width="11.21250057220459"><defs><clipPath id="ccp0.818235782016558"><rect x="-0.5" y="-0.5" width="11.71250057220459" height="12.65000057220459"></rect></clipPath></defs><g clip-path="url(#ccp0.818235782016558)"><g><g transform="matrix(1,0,0,1,0,18.7)"><path transform="matrix(0.018699999999999998,0,0,-0.018699999999999998,0,0)" d="M-54 725L-2 725C92 725 253 690 324 521C397 690 557 725 650 725L703 725L703 630L650 630C389 630 323 439 323 438L321 438C321 439 260 630 -2 630L-54 630Z" stroke="rgb(0,0,0)" stroke-opacity="1" stroke-width="8" fill="rgb(0,0,0)" fill-opacity="1"></path></g></g></g></svg></g></svg><svg xmlns="http://www.w3.org/2000/svg" x="371.27496337890625" y="50.4749755859375" height="12.15000057220459" width="57.8125"><defs><clipPath id="ccp0.488316706085852"><rect x="-0.5" y="-0.5" width="58.3125" height="12.65000057220459"></rect></clipPath></defs><g clip-path="url(#ccp0.488316706085852)"><svg xmlns="http://www.w3.org/2000/svg" x="0" y="0" height="22.399999618530273" width="93.5"><defs><clipPath id="ccp0.4444729939063392"><rect x="-0.5" y="-0.5" width="94" height="22.899999618530273"></rect></clipPath></defs><g clip-path="url(#ccp0.4444729939063392)"><g><g transform="matrix(1,0,0,1,0,18.7)"><path transform="matrix(0.018699999999999998,0,0,-0.018699999999999998,0,0)" d="M-877 725L1877 725L1877 630L-877 630Z" stroke="rgb(0,0,0)" stroke-opacity="1" stroke-width="8" fill="rgb(0,0,0)" fill-opacity="1"></path></g></g></g></svg><svg xmlns="http://www.w3.org/2000/svg" x="0" y="0" height="22.399999618530273" width="93.5"><defs><clipPath id="ccp0.9508038281724158"><rect x="-0.5" y="-0.5" width="94" height="22.899999618530273"></rect></clipPath></defs><g clip-path="url(#ccp0.9508038281724158)"><g><g transform="matrix(1,0,0,1,18.70001220703125,18.7)"><path transform="matrix(0.018699999999999998,0,0,-0.018699999999999998,0,0)" d="M-877 725L1877 725L1877 630L-877 630Z" stroke="rgb(0,0,0)" stroke-opacity="1" stroke-width="8" fill="rgb(0,0,0)" fill-opacity="1"></path></g></g></g></svg><svg xmlns="http://www.w3.org/2000/svg" x="0" y="0" height="22.399999618530273" width="93.5"><defs><clipPath id="ccp0.5665557955213696"><rect x="-0.5" y="-0.5" width="94" height="22.899999618530273"></rect></clipPath></defs><g clip-path="url(#ccp0.5665557955213696)"><g><g transform="matrix(1,0,0,1,37.4000244140625,18.7)"><path transform="matrix(0.018699999999999998,0,0,-0.018699999999999998,0,0)" d="M-877 725L1877 725L1877 630L-877 630Z" stroke="rgb(0,0,0)" stroke-opacity="1" stroke-width="8" fill="rgb(0,0,0)" fill-opacity="1"></path></g></g></g></svg><svg xmlns="http://www.w3.org/2000/svg" x="0" y="0" height="22.399999618530273" width="93.5"><defs><clipPath id="ccp0.15221630065072622"><rect x="-0.5" y="-0.5" width="94" height="22.899999618530273"></rect></clipPath></defs><g clip-path="url(#ccp0.15221630065072622)"><g><g transform="matrix(1,0,0,1,56.10003662109375,18.7)"><path transform="matrix(0.018699999999999998,0,0,-0.018699999999999998,0,0)" d="M-877 725L1877 725L1877 630L-877 630Z" stroke="rgb(0,0,0)" stroke-opacity="1" stroke-width="8" fill="rgb(0,0,0)" fill-opacity="1"></path></g></g></g></svg><svg xmlns="http://www.w3.org/2000/svg" x="0" y="0" height="22.399999618530273" width="93.5"><defs><clipPath id="ccp0.8757002262713536"><rect x="-0.5" y="-0.5" width="94" height="22.899999618530273"></rect></clipPath></defs><g clip-path="url(#ccp0.8757002262713536)"><g><g transform="matrix(1,0,0,1,74.79998779296875,18.7)"><path transform="matrix(0.018699999999999998,0,0,-0.018699999999999998,0,0)" d="M-877 725L1877 725L1877 630L-877 630Z" stroke="rgb(0,0,0)" stroke-opacity="1" stroke-width="8" fill="rgb(0,0,0)" fill-opacity="1"></path></g></g></g></svg></g></svg><svg xmlns="http://www.w3.org/2000/svg" x="429.08746337890625" y="50.4749755859375" height="12.15000057220459" width="13.08750057220459"><defs><clipPath id="ccp0.06061874850804916"><rect x="-0.5" y="-0.5" width="13.58750057220459" height="12.65000057220459"></rect></clipPath></defs><g clip-path="url(#ccp0.06061874850804916)"><svg xmlns="http://www.w3.org/2000/svg" x="0" y="0" height="12.15000057220459" width="13.08750057220459"><defs><clipPath id="ccp0.8409901590981748"><rect x="-0.5" y="-0.5" width="13.58750057220459" height="12.65000057220459"></rect></clipPath></defs><g clip-path="url(#ccp0.8409901590981748)"><g><g transform="matrix(1,0,0,1,0,18.7)"><path transform="matrix(0.018699999999999998,0,0,-0.018699999999999998,0,0)" d="M682 918C685 918 687 915 687 911C687 902 679 885 676 881C582 703 383 630 23 630L-30 630L-30 725L83 725C276 725 537 732 654 890C661 900 673 918 682 918Z" stroke="rgb(0,0,0)" stroke-opacity="1" stroke-width="8" fill="rgb(0,0,0)" fill-opacity="1"></path></g></g></g></svg></g></svg></g><g><g transform="matrix(1,0,0,1,442.08746337890625,32.712493896484375)"><path transform="matrix(0.017,0,0,-0.017,0,0)" d="" stroke="rgb(0,0,0)" stroke-opacity="1" stroke-width="8" fill="rgb(0,0,0)" fill-opacity="1"></path></g></g><g><g transform="matrix(1,0,0,1,449.7249755859375,32.712493896484375)"><path transform="matrix(0.017,0,0,-0.017,0,0)" d="M604 241L604 300L364 300L364 538L305 538L305 300L65 300L65 241L305 241L305 0L364 0L364 241Z" stroke="rgb(0,0,0)" stroke-opacity="1" stroke-width="8" fill="rgb(0,0,0)" fill-opacity="1"></path></g></g><g><g transform="matrix(1,0,0,1,464.48748779296875,32.712493896484375)"><path transform="matrix(0.017,0,0,-0.017,0,0)" d="" stroke="rgb(0,0,0)" stroke-opacity="1" stroke-width="8" fill="rgb(0,0,0)" fill-opacity="1"></path></g></g><g><g transform="matrix(1,0,0,1,468.72503662109375,32.712493896484375)"><path transform="matrix(0.017,0,0,-0.017,0,0)" d="M124 111C94 111 67 83 67 53C67 23 94 -5 123 -5C155 -5 183 22 183 53C183 83 155 111 124 111ZM373 111C343 111 316 83 316 53C316 23 343 -5 372 -5C404 -5 432 22 432 53C432 83 404 111 373 111ZM622 111C592 111 565 83 565 53C565 23 592 -5 621 -5C653 -5 681 22 681 53C681 83 653 111 622 111Z" stroke="rgb(0,0,0)" stroke-opacity="1" stroke-width="8" fill="rgb(0,0,0)" fill-opacity="1"></path></g></g><g><g transform="matrix(1,0,0,1,484.82501220703125,32.712493896484375)"><path transform="matrix(0.017,0,0,-0.017,0,0)" d="" stroke="rgb(0,0,0)" stroke-opacity="1" stroke-width="8" fill="rgb(0,0,0)" fill-opacity="1"></path></g></g><g><g transform="matrix(1,0,0,1,492.46246337890625,32.712493896484375)"><path transform="matrix(0.017,0,0,-0.017,0,0)" d="M604 241L604 300L364 300L364 538L305 538L305 300L65 300L65 241L305 241L305 0L364 0L364 241Z" stroke="rgb(0,0,0)" stroke-opacity="1" stroke-width="8" fill="rgb(0,0,0)" fill-opacity="1"></path></g></g><g><g transform="matrix(1,0,0,1,507.22503662109375,32.712493896484375)"><path transform="matrix(0.017,0,0,-0.017,0,0)" d="M831 103L486 692L324 692L319 664L354 662C399 660 433 615 434 606L341 102C329 40 323 32 287 28L256 25L251 -3L362 0C374 0 375 0 472 -3L477 25L435 28C395 31 386 39 386 72C386 80 387 91 389 102L469 566L807 -11L857 -11L951 542C972 655 974 659 1011 662L1048 664L1051 691L838 692L833 664L880 662C906 661 916 654 916 638C916 631 833 116 831 103ZM1131 664L1186 662C1210 661 1221 653 1221 635L1138 125C1121 34 1120 31 1080 28L1039 25L1035 -3L1077 -2C1118 -1 1149 0 1167 0C1184 0 1213 -1 1253 -2L1306 -3L1309 25L1244 28C1218 29 1208 37 1208 58C1208 67 1209 74 1212 93L1310 648C1346 654 1362 656 1381 656C1483 656 1532 612 1532 519C1532 411 1460 323 1372 323C1350 323 1330 328 1293 342L1295 311C1332 293 1352 288 1381 288C1510 288 1620 405 1620 541C1620 642 1557 695 1438 692L1134 692ZM1946 96L1875 624C1873 646 1877 661 1917 662L1959 664L1959 692L1918 691C1881 690 1853 689 1835 689C1817 689 1789 690 1752 691L1711 692L1711 664L1736 662C1780 659 1788 651 1795 614L1883 -8L1932 -8L2310 611C2335 651 2343 658 2372 662L2390 664L2390 692L2360 691C2333 690 2310 689 2294 689C2284 689 2257 690 2216 691L2170 692L2170 664L2196 662C2234 659 2253 649 2253 630C2253 619 2249 608 2237 588ZM2996 646L3069 646C3147 646 3183 641 3186 629C3189 621 3191 602 3190 592L3186 528L3214 528L3241 692L3150 691C3062 690 2994 689 2959 689C2922 689 2858 690 2772 691L2677 692L2659 528L2688 528L2703 588C2708 610 2715 626 2721 633C2727 640 2765 646 2802 646L2914 646L2828 125C2812 34 2810 31 2770 28L2719 25L2715 -3L2772 -2C2812 -1 2841 0 2857 0C2876 0 2907 -1 2946 -2L2990 -3L2993 25L2934 28C2908 29 2898 37 2898 58C2898 67 2899 74 2902 93ZM3544 111L3520 94C3467 56 3419 36 3383 36C3336 36 3307 73 3307 133C3307 158 3310 185 3315 214C3332 218 3441 248 3466 259C3551 296 3590 342 3590 404C3590 451 3556 482 3506 482C3438 496 3328 423 3291 349C3261 299 3231 180 3231 113C3231 35 3275 -11 3347 -11C3404 -11 3460 17 3552 92ZM3329 274C3346 343 3366 386 3395 412C3413 428 3444 440 3468 440C3497 440 3516 420 3516 388C3516 344 3481 297 3429 272C3401 258 3365 247 3320 237ZM3972 365C3975 403 3980 435 3988 476C3977 481 3973 482 3968 482C3937 482 3906 458 3870 407C3831 351 3792 291 3776 256L3808 408C3812 425 3814 438 3814 450C3814 470 3806 482 3791 482C3770 482 3732 461 3658 408L3630 388L3637 368L3669 389C3697 407 3708 412 3717 412C3727 412 3734 403 3734 390C3734 332 3691 126 3651 -2L3661 -9C3676 -4 3692 -1 3715 4L3728 6L3754 126C3772 209 3795 262 3839 319C3873 363 3900 384 3922 384C3937 384 3947 379 3958 365ZM4722 103L4696 86C4667 67 4645 56 4635 56C4628 56 4622 65 4622 76C4622 86 4624 95 4629 116L4704 413C4708 430 4711 446 4711 454C4711 471 4701 482 4685 482C4656 482 4618 464 4557 421C4494 376 4459 341 4410 272L4440 409C4444 429 4447 444 4447 451C4447 470 4437 482 4421 482C4391 482 4345 460 4290 418C4246 384 4226 363 4161 275L4194 408C4198 424 4200 439 4200 451C4200 470 4191 482 4177 482C4156 482 4118 461 4044 408L4016 388L4023 368C4060 391 4095 414 4102 414C4113 414 4120 404 4120 389C4120 338 4079 145 4038 2L4041 -9L4109 6L4131 108C4155 219 4182 278 4237 338C4279 384 4324 414 4352 414C4359 414 4363 406 4363 393C4363 358 4341 244 4300 69L4284 2L4289 -9L4358 6L4379 113C4395 194 4429 269 4473 318C4528 379 4578 414 4610 414C4618 414 4623 405 4623 389C4623 365 4620 351 4598 264C4558 105 4542 84 4542 31C4542 6 4553 -9 4572 -9C4598 -9 4634 12 4732 85ZM4803 388L4810 368L4842 389C4879 412 4882 414 4889 414C4899 414 4907 404 4907 391C4907 384 4903 361 4899 347L4833 107C4825 76 4820 49 4820 30C4820 6 4831 -9 4850 -9C4876 -9 4912 12 5010 85L5000 103L4974 86C4945 67 4922 56 4913 56C4906 56 4900 66 4900 76C4900 86 4902 95 4907 116L4984 420C4988 437 4990 448 4990 456C4990 473 4981 482 4965 482C4943 482 4906 461 4831 408ZM4997 712C4968 712 4939 679 4939 645C4939 620 4954 604 4978 604C5009 604 5033 633 5033 671C5033 695 5018 712 4997 712ZM5070 388L5077 368L5109 389C5146 412 5149 414 5156 414C5167 414 5174 404 5174 389C5174 338 5133 145 5092 2L5099 -9C5124 -2 5147 4 5169 8C5188 134 5209 199 5255 268C5309 352 5384 414 5429 414C5440 414 5446 405 5446 390C5446 372 5443 351 5435 319L5383 107C5374 70 5370 47 5370 31C5370 6 5381 -9 5400 -9C5426 -9 5462 12 5560 85L5550 103L5524 86C5495 67 5473 56 5463 56C5456 56 5450 65 5450 76C5450 81 5451 92 5452 96L5518 372C5525 401 5529 429 5529 446C5529 469 5518 482 5498 482C5456 482 5387 444 5328 389C5290 354 5262 320 5210 247L5248 408C5252 426 5254 438 5254 449C5254 470 5246 482 5231 482C5210 482 5171 460 5098 408ZM5872 204L5843 77C5839 60 5837 42 5837 26C5837 4 5846 -9 5861 -9C5884 -9 5925 17 6007 85L6000 106C5976 86 5947 59 5925 59C5916 59 5910 68 5910 82C5910 87 5910 90 5911 93L6003 472L5993 481L5960 463C5919 478 5902 482 5875 482C5847 482 5827 477 5800 464C5738 433 5705 403 5680 354C5636 265 5605 145 5605 67C5605 23 5620 -11 5639 -11C5676 -11 5756 41 5872 204ZM5920 414C5898 305 5879 253 5845 201C5788 117 5727 59 5695 59C5683 59 5677 72 5677 99C5677 163 5705 280 5740 360C5764 415 5787 433 5835 433C5858 433 5876 429 5920 414ZM6295 722L6283 733C6231 707 6195 698 6123 691L6119 670L6167 670C6191 670 6201 663 6201 648C6201 645 6201 640 6198 622C6187 567 6114 182 6099 132C6086 82 6080 52 6080 31C6080 6 6091 -9 6110 -9C6136 -9 6172 12 6270 85L6260 103L6234 86C6205 67 6183 56 6173 56C6166 56 6160 66 6160 76C6160 82 6161 89 6164 104Z" stroke="rgb(0,0,0)" stroke-opacity="1" stroke-width="8" fill="rgb(0,0,0)" fill-opacity="1"></path></g></g></g></g></svg>