<svg xmlns="http://www.w3.org/2000/svg" xmlns:xlink="http://www.w3.org/1999/xlink" width="535.7000122070312" height="49.92499923706055" style="width:535.7000122070312px;height:49.92499923706055px;font-family:Asana-Math, Asana;background:#FFF;"><g><g><g><g transform="matrix(1,0,0,1,2,31.92498779296875)"><path transform="matrix(0.017,0,0,-0.017,0,0)" d="M105 664L160 662C184 661 195 653 195 635L112 125C95 34 94 31 54 28L13 25L9 -3L51 -2C92 -1 123 0 141 0C158 0 187 -1 227 -2L280 -3L283 25L218 28C192 29 182 37 182 58C182 67 183 74 186 93L284 648C320 654 336 656 355 656C457 656 506 612 506 519C506 411 434 323 346 323C324 323 304 328 267 342L269 311C306 293 326 288 355 288C484 288 594 405 594 541C594 642 531 695 412 692L108 692ZM718 471C718 386 756 339 840 319L935 296C989 283 1016 248 1016 191C1016 96 945 30 842 30C788 30 750 42 706 73L706 172L676 172C670 117 663 72 652 20C701 -5 754 -18 807 -18C962 -18 1095 99 1095 234C1095 313 1052 355 951 377L886 391C820 405 790 442 790 508C790 595 857 658 949 658C998 658 1031 645 1061 613L1061 537L1091 537C1095 591 1102 629 1116 672C1071 696 1031 706 984 706C860 706 718 614 718 471ZM1708 227C1708 337 1624 353 1542 365C1599 385 1624 397 1655 425C1701 464 1724 511 1724 562C1724 644 1666 692 1566 692C1564 692 1554 692 1539 691L1476 690C1464 689 1428 689 1416 689C1397 689 1366 690 1317 691L1265 692L1262 664L1315 662C1339 661 1350 653 1350 635C1350 621 1346 589 1341 559L1254 55C1250 37 1238 30 1196 23L1191 -3L1228 -2C1255 0 1270 0 1282 0C1293 0 1319 -1 1345 -2L1382 -3L1402 -4C1421 -5 1434 -6 1442 -6C1557 -6 1708 87 1708 227ZM1331 41L1382 340L1467 340C1570 340 1620 298 1620 211C1620 108 1547 34 1447 34C1393 34 1372 38 1331 41ZM1517 655C1598 655 1638 619 1638 544C1638 439 1564 376 1440 376L1388 376L1437 650C1453 650 1494 655 1517 655ZM2103 111L2079 94C2026 56 1978 36 1942 36C1895 36 1866 73 1866 133C1866 158 1869 185 1874 214C1891 218 2000 248 2025 259C2110 296 2149 342 2149 404C2149 451 2115 482 2065 482C1997 496 1887 423 1850 349C1820 299 1790 180 1790 113C1790 35 1834 -11 1906 -11C1963 -11 2019 17 2111 92ZM1888 274C1905 343 1925 386 1954 412C1972 428 2003 440 2027 440C2056 440 2075 420 2075 388C2075 344 2040 297 1988 272C1960 258 1924 247 1879 237Z" stroke="rgb(0,0,0)" stroke-opacity="1" stroke-width="8" fill="rgb(0,0,0)" fill-opacity="1"></path></g></g><g><g transform="matrix(1,0,0,1,48.11248779296875,31.92498779296875)"><path transform="matrix(0.017,0,0,-0.017,0,0)" d="M604 347L604 406L65 406L65 347ZM604 134L604 193L65 193L65 134Z" stroke="rgb(0,0,0)" stroke-opacity="1" stroke-width="8" fill="rgb(0,0,0)" fill-opacity="1"></path></g></g><g><g transform="matrix(1,0,0,1,64.57501220703125,31.92498779296875)"><path transform="matrix(0.017,0,0,-0.017,0,0)" d="" stroke="rgb(0,0,0)" stroke-opacity="1" stroke-width="8" fill="rgb(0,0,0)" fill-opacity="1"></path></g></g><g><g><g><g><g transform="matrix(1,0,0,1,70.51251220703125,19.92498779296875)"><path transform="matrix(0.017,0,0,-0.017,0,0)" d="M105 664L160 662C184 661 195 653 195 635L112 125C95 34 94 31 54 28L13 25L9 -3L51 -2C92 -1 123 0 141 0C158 0 187 -1 227 -2L280 -3L283 25L218 28C192 29 182 37 182 58C182 67 183 74 186 93L284 648C320 654 336 656 355 656C457 656 506 612 506 519C506 411 434 323 346 323C324 323 304 328 267 342L269 311C306 293 326 288 355 288C484 288 594 405 594 541C594 642 531 695 412 692L108 692ZM959 664L962 692L848 689C832 689 814 689 771 690L707 692L704 664L751 662C775 661 786 653 786 635L691 55C687 37 675 30 631 23L626 -3L667 -2C698 -1 760 0 780 0L1077 -1L1110 0C1109 25 1120 103 1133 165L1102 165L1085 103C1076 71 1067 54 1058 49C1045 44 981 39 914 39C865 39 838 40 772 46C775 64 866 605 866 613C873 651 880 658 917 661Z" stroke="rgb(0,0,0)" stroke-opacity="1" stroke-width="8" fill="rgb(0,0,0)" fill-opacity="1"></path></g></g><g><g transform="matrix(1,0,0,1,97.9625244140625,19.92498779296875)"><path transform="matrix(0.017,0,0,-0.017,0,0)" d="M604 241L604 300L364 300L364 538L305 538L305 300L65 300L65 241L305 241L305 0L364 0L364 241Z" stroke="rgb(0,0,0)" stroke-opacity="1" stroke-width="8" fill="rgb(0,0,0)" fill-opacity="1"></path></g></g><g><g transform="matrix(1,0,0,1,112.72503662109375,19.92498779296875)"><path transform="matrix(0.017,0,0,-0.017,0,0)" d="M354 664L410 662C434 661 445 653 445 635C445 621 441 589 436 559L361 125C345 34 343 32 303 28L262 25L258 -3L300 -2C347 0 366 0 390 0L487 -3L513 -3L516 25L467 28C440 30 431 38 431 58C431 67 432 76 435 93L536 648C565 654 585 656 612 656C699 656 745 617 745 543C745 448 667 378 563 378L519 378L516 367C650 172 681 124 756 -3L841 0C842 0 856 -1 875 -3L888 -3L888 24C848 29 837 37 808 79L624 354C679 364 708 376 744 402C802 444 833 499 833 560C833 646 769 693 658 691L357 691ZM1264 664L1267 692L1153 689C1137 689 1119 689 1076 690L1012 692L1009 664L1056 662C1080 661 1091 653 1091 635L996 55C992 37 980 30 936 23L931 -3L972 -2C1003 -1 1065 0 1085 0L1382 -1L1415 0C1414 25 1425 103 1438 165L1407 165L1390 103C1381 71 1372 54 1363 49C1350 44 1286 39 1219 39C1170 39 1143 40 1077 46C1080 64 1171 605 1171 613C1178 651 1185 658 1222 661Z" stroke="rgb(0,0,0)" stroke-opacity="1" stroke-width="8" fill="rgb(0,0,0)" fill-opacity="1"></path></g></g><g><g transform="matrix(1,0,0,1,145.35003662109375,19.92498779296875)"><path transform="matrix(0.017,0,0,-0.017,0,0)" d="M604 241L604 300L364 300L364 538L305 538L305 300L65 300L65 241L305 241L305 0L364 0L364 241Z" stroke="rgb(0,0,0)" stroke-opacity="1" stroke-width="8" fill="rgb(0,0,0)" fill-opacity="1"></path></g></g><g><g transform="matrix(1,0,0,1,160.11248779296875,19.92498779296875)"><path transform="matrix(0.017,0,0,-0.017,0,0)" d="M354 664L410 662C434 661 445 653 445 635C445 621 441 589 436 559L361 125C345 34 343 32 303 28L262 25L258 -3L300 -2C347 0 366 0 390 0L487 -3L513 -3L516 25L467 28C440 30 431 38 431 58C431 67 432 76 435 93L536 648C565 654 585 656 612 656C699 656 745 617 745 543C745 448 667 378 563 378L519 378L516 367C650 172 681 124 756 -3L841 0C842 0 856 -1 875 -3L888 -3L888 24C848 29 837 37 808 79L624 354C679 364 708 376 744 402C802 444 833 499 833 560C833 646 769 693 658 691L357 691ZM1497 103L1152 692L990 692L985 664L1020 662C1065 660 1099 615 1100 606L1007 102C995 40 989 32 953 28L922 25L917 -3L1028 0C1040 0 1041 0 1138 -3L1143 25L1101 28C1061 31 1052 39 1052 72C1052 80 1053 91 1055 102L1135 566L1473 -11L1523 -11L1617 542C1638 655 1640 659 1677 662L1714 664L1717 691L1504 692L1499 664L1546 662C1572 661 1582 654 1582 638C1582 631 1499 116 1497 103ZM2440 425C2440 603 2336 706 2156 706C1919 706 1745 523 1745 272C1745 83 1839 -18 2015 -18C2287 -18 2440 207 2440 425ZM2352 409C2352 221 2263 24 2052 24C1908 24 1833 110 1833 277C1833 425 1891 664 2125 664C2241 664 2352 610 2352 409Z" stroke="rgb(0,0,0)" stroke-opacity="1" stroke-width="8" fill="rgb(0,0,0)" fill-opacity="1"></path></g></g><g><g transform="matrix(1,0,0,1,209.72503662109375,19.92498779296875)"><path transform="matrix(0.017,0,0,-0.017,0,0)" d="M604 241L604 300L364 300L364 538L305 538L305 300L65 300L65 241L305 241L305 0L364 0L364 241Z" stroke="rgb(0,0,0)" stroke-opacity="1" stroke-width="8" fill="rgb(0,0,0)" fill-opacity="1"></path></g></g><g><g transform="matrix(1,0,0,1,224.48748779296875,19.92498779296875)"><path transform="matrix(0.017,0,0,-0.017,0,0)" d="" stroke="rgb(0,0,0)" stroke-opacity="1" stroke-width="8" fill="rgb(0,0,0)" fill-opacity="1"></path></g></g><g><g transform="matrix(1,0,0,1,228.72503662109375,19.92498779296875)"><path transform="matrix(0.017,0,0,-0.017,0,0)" d="M146 266C146 526 243 632 301 700L282 726C225 675 60 542 60 266C60 159 85 58 133 -32C168 -99 200 -138 282 -215L301 -194C255 -137 146 -15 146 266Z" stroke="rgb(0,0,0)" stroke-opacity="1" stroke-width="8" fill="rgb(0,0,0)" fill-opacity="1"></path></g></g><g><g transform="matrix(1,0,0,1,234.375,19.92498779296875)"><path transform="matrix(0.017,0,0,-0.017,0,0)" d="M349 664L352 692L238 689C222 689 204 689 161 690L97 692L94 664L141 662C165 661 176 653 176 635L81 55C77 37 65 30 21 23L16 -3L57 -2C88 -1 150 0 170 0L467 -1L500 0C499 25 510 103 523 165L492 165L475 103C466 71 457 54 448 49C435 44 371 39 304 39C255 39 228 40 162 46C165 64 256 605 256 613C263 651 270 658 307 661ZM904 664L907 692L793 689C777 689 759 689 716 690L652 692L649 664L696 662C720 661 731 653 731 635L636 55C632 37 620 30 576 23L571 -3L612 -2C643 -1 705 0 725 0L1022 -1L1055 0C1054 25 1065 103 1078 165L1047 165L1030 103C1021 71 1012 54 1003 49C990 44 926 39 859 39C810 39 783 40 717 46C720 64 811 605 811 613C818 651 825 658 862 661Z" stroke="rgb(0,0,0)" stroke-opacity="1" stroke-width="8" fill="rgb(0,0,0)" fill-opacity="1"></path></g></g><g><g transform="matrix(1,0,0,1,256.6500244140625,19.92498779296875)"><path transform="matrix(0.017,0,0,-0.017,0,0)" d="M555 243L555 299L51 299L51 243Z" stroke="rgb(0,0,0)" stroke-opacity="1" stroke-width="8" fill="rgb(0,0,0)" fill-opacity="1"></path></g></g><g><g transform="matrix(1,0,0,1,270.3375244140625,19.92498779296875)"><path transform="matrix(0.017,0,0,-0.017,0,0)" d="M105 664L161 662C185 661 196 653 196 635C196 621 192 589 187 559L112 125C96 34 94 32 54 28L13 25L9 -3L51 -2C98 0 117 0 141 0L238 -3L264 -3L267 25L218 28C191 30 182 38 182 58C182 67 183 76 186 93L287 648C316 654 336 656 363 656C450 656 496 617 496 543C496 448 418 378 314 378L270 378L267 367C401 172 432 124 507 -3L592 0C593 0 607 -1 626 -3L639 -3L639 24C599 29 588 37 559 79L375 354C430 364 459 376 495 402C553 444 584 499 584 560C584 646 520 693 409 691L108 691ZM1248 103L903 692L741 692L736 664L771 662C816 660 850 615 851 606L758 102C746 40 740 32 704 28L673 25L668 -3L779 0C791 0 792 0 889 -3L894 25L852 28C812 31 803 39 803 72C803 80 804 91 806 102L886 566L1224 -11L1274 -11L1368 542C1389 655 1391 659 1428 662L1465 664L1468 691L1255 692L1250 664L1297 662C1323 661 1333 654 1333 638C1333 631 1250 116 1248 103ZM2191 425C2191 603 2087 706 1907 706C1670 706 1496 523 1496 272C1496 83 1590 -18 1766 -18C2038 -18 2191 207 2191 425ZM2103 409C2103 221 2014 24 1803 24C1659 24 1584 110 1584 277C1584 425 1642 664 1876 664C1992 664 2103 610 2103 409Z" stroke="rgb(0,0,0)" stroke-opacity="1" stroke-width="8" fill="rgb(0,0,0)" fill-opacity="1"></path></g></g><g><g transform="matrix(1,0,0,1,308.0875244140625,19.92498779296875)"><path transform="matrix(0.017,0,0,-0.017,0,0)" d="M51 726L32 700C87 636 187 526 187 266C187 -10 83 -131 32 -194L51 -215C104 -165 273 -23 273 265C273 542 108 675 51 726Z" stroke="rgb(0,0,0)" stroke-opacity="1" stroke-width="8" fill="rgb(0,0,0)" fill-opacity="1"></path></g></g><g><g transform="matrix(1,0,0,1,317.13751220703125,19.92498779296875)"><path transform="matrix(0.017,0,0,-0.017,0,0)" d="M611 37L376 271L611 505L568 547L335 313L101 547L59 505L293 271L59 37L101 -5L335 229L568 -5Z" stroke="rgb(0,0,0)" stroke-opacity="1" stroke-width="8" fill="rgb(0,0,0)" fill-opacity="1"></path></g></g><g><g transform="matrix(1,0,0,1,331.9000244140625,19.92498779296875)"><path transform="matrix(0.017,0,0,-0.017,0,0)" d="M328 111L304 94C251 56 203 36 167 36C120 36 91 73 91 133C91 158 94 185 99 214C116 218 225 248 250 259C335 296 374 342 374 404C374 451 340 482 290 482C222 496 112 423 75 349C45 299 15 180 15 113C15 35 59 -11 131 -11C188 -11 244 17 336 92ZM113 274C130 343 150 386 179 412C197 428 228 440 252 440C281 440 300 420 300 388C300 344 265 297 213 272C185 258 149 247 104 237Z" stroke="rgb(0,0,0)" stroke-opacity="1" stroke-width="8" fill="rgb(0,0,0)" fill-opacity="1"></path></g></g><g><g><g><g><g transform="matrix(1,0,0,1,339.47503662109375,13.099996948242188)"><path transform="matrix(0.0119,0,0,-0.0119,0,0)" d="M937 664L950 695C922 699 775 701 773 692L688 536L442 114L292 692C269 686 146 690 125 692L122 664L148 662C200 658 218 648 218 622C218 616 72 100 70 93C54 41 39 28 -16 23L-19 -3L20 -2C54 -1 79 0 93 0C107 0 133 -1 168 -2L203 -3L206 25L168 28C136 30 119 40 119 55C119 65 121 78 126 96L250 560L399 -18L422 -18L479 86L718 500L770 587L733 67C729 39 717 32 666 28L635 25L632 -3L679 -2C721 -1 751 0 766 0C782 0 812 -1 853 -2L899 -3L902 25L865 28C829 31 811 42 811 63L812 100L853 631C855 650 870 660 899 662ZM1302 664L1305 692L1191 689C1175 689 1157 689 1114 690L1050 692L1047 664L1094 662C1118 661 1129 653 1129 635L1034 55C1030 37 1018 30 974 23L969 -3L1010 -2C1041 -1 1103 0 1123 0L1420 -1L1453 0C1452 25 1463 103 1476 165L1445 165L1428 103C1419 71 1410 54 1401 49C1388 44 1324 39 1257 39C1208 39 1181 40 1115 46C1118 64 1209 605 1209 613C1216 651 1223 658 1260 661ZM2119 37L1884 271L2119 505L2076 547L1843 313L1609 547L1567 505L1801 271L1567 37L1609 -5L1843 229L2076 -5Z" stroke="rgb(0,0,0)" stroke-opacity="1" stroke-width="8" fill="rgb(0,0,0)" fill-opacity="1"></path></g></g><g><g transform="matrix(1,0,0,1,365.36248779296875,13.9)"><path transform="matrix(0.0119,0,0,-0.0119,0,0)" d="M146 266C146 526 243 632 301 700L282 726C225 675 60 542 60 266C60 159 85 58 133 -32C168 -99 200 -138 282 -215L301 -194C255 -137 146 -15 146 266Z" stroke="rgb(0,0,0)" stroke-opacity="1" stroke-width="8" fill="rgb(0,0,0)" fill-opacity="1"></path></g></g><g><g transform="matrix(1,0,0,1,369.3125,13.099996948242188)"><path transform="matrix(0.0119,0,0,-0.0119,0,0)" d="M555 243L555 299L51 299L51 243Z" stroke="rgb(0,0,0)" stroke-opacity="1" stroke-width="8" fill="rgb(0,0,0)" fill-opacity="1"></path></g></g><g><g><g transform="matrix(1,0,0,1,376.51251220703125,13.099996948242188)"><path transform="matrix(0.0119,0,0,-0.0119,0,0)" d="M23 661L79 661C97 661 104 650 104 620L104 102C104 39 101 32 67 30L21 27L21 -3C121 0 121 0 146 0C171 0 171 0 271 -3L271 27L225 30C191 32 188 39 188 102L188 718L179 726C135 709 102 701 23 689ZM569 469C423 469 322 366 322 217C322 76 411 -20 540 -20C694 -20 804 87 804 237C804 372 706 469 569 469ZM551 436C643 436 711 336 711 200C711 85 660 13 579 13C481 13 415 109 415 251C415 371 463 436 551 436ZM890 289C890 215 936 164 1010 156L931 95C921 80 916 67 916 52C916 24 934 8 982 -6L895 -53C881 -61 867 -98 867 -129C867 -220 956 -283 1083 -283C1234 -283 1353 -188 1353 -66C1353 6 1305 56 1235 56L1075 56C1023 56 999 68 999 95C999 118 1028 135 1045 152C1055 151 1061 150 1069 150C1130 150 1273 197 1273 324C1273 344 1270 357 1262 378L1354 378L1379 419L1375 431L1233 427C1196 457 1160 469 1111 469C1036 469 890 424 890 289ZM1075 435C1143 435 1189 379 1189 294C1189 229 1147 184 1086 184C1019 184 974 236 974 313C974 390 1011 435 1075 435ZM1122 -14C1235 -14 1274 -37 1274 -102C1274 -188 1195 -252 1090 -252C1003 -252 943 -201 943 -127C943 -82 969 -41 1009 -24C1025 -16 1053 -14 1122 -14Z" stroke="rgb(0,0,0)" stroke-opacity="1" stroke-width="8" fill="rgb(0,0,0)" fill-opacity="1"></path></g></g></g><g><g transform="matrix(1,0,0,1,393.04998779296875,13.9)"><path transform="matrix(0.0119,0,0,-0.0119,0,0)" d="M146 266C146 526 243 632 301 700L282 726C225 675 60 542 60 266C60 159 85 58 133 -32C168 -99 200 -138 282 -215L301 -194C255 -137 146 -15 146 266Z" stroke="rgb(0,0,0)" stroke-opacity="1" stroke-width="8" fill="rgb(0,0,0)" fill-opacity="1"></path></g></g><g><g transform="matrix(1,0,0,1,397,13.099996948242188)"><path transform="matrix(0.0119,0,0,-0.0119,0,0)" d="M937 664L950 695C922 699 775 701 773 692L688 536L442 114L292 692C269 686 146 690 125 692L122 664L148 662C200 658 218 648 218 622C218 616 72 100 70 93C54 41 39 28 -16 23L-19 -3L20 -2C54 -1 79 0 93 0C107 0 133 -1 168 -2L203 -3L206 25L168 28C136 30 119 40 119 55C119 65 121 78 126 96L250 560L399 -18L422 -18L479 86L718 500L770 587L733 67C729 39 717 32 666 28L635 25L632 -3L679 -2C721 -1 751 0 766 0C782 0 812 -1 853 -2L899 -3L902 25L865 28C829 31 811 42 811 63L812 100L853 631C855 650 870 660 899 662ZM1302 664L1305 692L1191 689C1175 689 1157 689 1114 690L1050 692L1047 664L1094 662C1118 661 1129 653 1129 635L1034 55C1030 37 1018 30 974 23L969 -3L1010 -2C1041 -1 1103 0 1123 0L1420 -1L1453 0C1452 25 1463 103 1476 165L1445 165L1428 103C1419 71 1410 54 1401 49C1388 44 1324 39 1257 39C1208 39 1181 40 1115 46C1118 64 1209 605 1209 613C1216 651 1223 658 1260 661Z" stroke="rgb(0,0,0)" stroke-opacity="1" stroke-width="8" fill="rgb(0,0,0)" fill-opacity="1"></path></g></g><g><g transform="matrix(1,0,0,1,414.95001220703125,13.9)"><path transform="matrix(0.0119,0,0,-0.0119,0,0)" d="M51 726L32 700C87 636 187 526 187 266C187 -10 83 -131 32 -194L51 -215C104 -165 273 -23 273 265C273 542 108 675 51 726Z" stroke="rgb(0,0,0)" stroke-opacity="1" stroke-width="8" fill="rgb(0,0,0)" fill-opacity="1"></path></g></g><g><g transform="matrix(1,0,0,1,418.9000244140625,13.9)"><path transform="matrix(0.0119,0,0,-0.0119,0,0)" d="M51 726L32 700C87 636 187 526 187 266C187 -10 83 -131 32 -194L51 -215C104 -165 273 -23 273 265C273 542 108 675 51 726Z" stroke="rgb(0,0,0)" stroke-opacity="1" stroke-width="8" fill="rgb(0,0,0)" fill-opacity="1"></path></g></g><g><g transform="matrix(1,0,0,1,422.8499755859375,13.099996948242188)"><path transform="matrix(0.0119,0,0,-0.0119,0,0)" d="M168 267L37 213L32 204L68 153L78 153L184 241L202 99L212 95L280 121L280 131L212 253L350 233L359 241L359 303L353 307L214 283L283 408L280 423L218 442L209 438L183 295L88 393L78 393L34 341L37 331ZM698 96L627 624C625 646 629 661 669 662L711 664L711 692L670 691C633 690 605 689 587 689C569 689 541 690 504 691L463 692L463 664L488 662C532 659 540 651 547 614L635 -8L684 -8L1062 611C1087 651 1095 658 1124 662L1142 664L1142 692L1112 691C1085 690 1062 689 1046 689C1036 689 1009 690 968 691L922 692L922 664L948 662C986 659 1005 649 1005 630C1005 619 1001 608 989 588ZM2046 664L2059 695C2031 699 1884 701 1882 692L1797 536L1551 114L1401 692C1378 686 1255 690 1234 692L1231 664L1257 662C1309 658 1327 648 1327 622C1327 616 1181 100 1179 93C1163 41 1148 28 1093 23L1090 -3L1129 -2C1163 -1 1188 0 1202 0C1216 0 1242 -1 1277 -2L1312 -3L1315 25L1277 28C1245 30 1228 40 1228 55C1228 65 1230 78 1235 96L1359 560L1508 -18L1531 -18L1588 86L1827 500L1879 587L1842 67C1838 39 1826 32 1775 28L1744 25L1741 -3L1788 -2C1830 -1 1860 0 1875 0C1891 0 1921 -1 1962 -2L2008 -3L2011 25L1974 28C1938 31 1920 42 1920 63L1921 100L1962 631C1964 650 1979 660 2008 662ZM2107 284C2107 90 2214 -18 2405 -18C2501 -18 2572 5 2662 67L2672 103L2662 110C2568 53 2516 35 2438 35C2281 35 2195 131 2195 309C2195 447 2252 653 2480 653C2551 653 2603 639 2659 603L2659 519L2686 519C2691 576 2699 619 2713 665C2637 694 2580 706 2518 706C2338 706 2107 578 2107 284ZM3686 664L3699 695C3671 699 3524 701 3522 692L3437 536L3191 114L3041 692C3018 686 2895 690 2874 692L2871 664L2897 662C2949 658 2967 648 2967 622C2967 616 2821 100 2819 93C2803 41 2788 28 2733 23L2730 -3L2769 -2C2803 -1 2828 0 2842 0C2856 0 2882 -1 2917 -2L2952 -3L2955 25L2917 28C2885 30 2868 40 2868 55C2868 65 2870 78 2875 96L2999 560L3148 -18L3171 -18L3228 86L3467 500L3519 587L3482 67C3478 39 3466 32 3415 28L3384 25L3381 -3L3428 -2C3470 -1 3500 0 3515 0C3531 0 3561 -1 3602 -2L3648 -3L3651 25L3614 28C3578 31 3560 42 3560 63L3561 100L3602 631C3604 650 3619 660 3648 662ZM3870 267L3739 213L3734 204L3770 153L3780 153L3886 241L3904 99L3914 95L3982 121L3982 131L3914 253L4052 233L4061 241L4061 303L4055 307L3916 283L3985 408L3982 423L3920 442L3911 438L3885 295L3790 393L3780 393L3736 341L3739 331ZM4198 471C4198 386 4236 339 4320 319L4415 296C4469 283 4496 248 4496 191C4496 96 4425 30 4322 30C4268 30 4230 42 4186 73L4186 172L4156 172C4150 117 4143 72 4132 20C4181 -5 4234 -18 4287 -18C4442 -18 4575 99 4575 234C4575 313 4532 355 4431 377L4366 391C4300 405 4270 442 4270 508C4270 595 4337 658 4429 658C4478 658 4511 645 4541 613L4541 537L4571 537C4575 591 4582 629 4596 672C4551 696 4511 706 4464 706C4340 706 4198 614 4198 471ZM4748 664L4795 662C4819 661 4830 653 4830 636C4830 629 4824 576 4821 559L4749 125C4734 36 4731 31 4691 28L4655 25L4652 -3L4684 -3L4778 0L4872 -3L4904 -3L4907 25L4855 28C4829 30 4819 37 4819 57C4819 63 4820 74 4821 78L4910 613C4917 652 4922 657 4961 661L4996 664L4999 692L4893 689C4876 689 4858 689 4815 690L4751 692ZM5559 103L5214 692L5052 692L5047 664L5082 662C5127 660 5161 615 5162 606L5069 102C5057 40 5051 32 5015 28L4984 25L4979 -3L5090 0C5102 0 5103 0 5200 -3L5205 25L5163 28C5123 31 5114 39 5114 72C5114 80 5115 91 5117 102L5197 566L5535 -11L5585 -11L5679 542C5700 655 5702 659 5739 662L5776 664L5779 691L5566 692L5561 664L5608 662C5634 661 5644 654 5644 638C5644 631 5561 116 5559 103ZM6321 55C6321 39 6306 30 6278 28L6234 25L6234 -3C6336 0 6336 0 6356 0C6376 0 6376 0 6478 -3L6478 25L6452 28C6405 35 6404 35 6396 80L6309 705L6263 705L5890 112C5854 56 5836 40 5802 32L5782 27L5782 -3C5874 0 5874 0 5894 0C5913 0 5915 0 6001 -3L6001 25L5949 28C5933 29 5918 38 5918 47C5918 55 5925 69 5944 102L6046 277L6292 277L6317 89L6317 86C6317 84 6321 69 6321 55ZM6250 601L6287 313L6071 313ZM6854 664L6857 692L6743 689C6727 689 6709 689 6666 690L6602 692L6599 664L6646 662C6670 661 6681 653 6681 635L6586 55C6582 37 6570 30 6526 23L6521 -3L6562 -2C6593 -1 6655 0 6675 0L6972 -1L7005 0C7004 25 7015 103 7028 165L6997 165L6980 103C6971 71 6962 54 6953 49C6940 44 6876 39 6809 39C6760 39 6733 40 6667 46C6670 64 6761 605 6761 613C6768 651 6775 658 6812 661Z" stroke="rgb(0,0,0)" stroke-opacity="1" stroke-width="8" fill="rgb(0,0,0)" fill-opacity="1"></path></g></g><g><g transform="matrix(1,0,0,1,506.8375244140625,13.9)"><path transform="matrix(0.0119,0,0,-0.0119,0,0)" d="M146 266C146 526 243 632 301 700L282 726C225 675 60 542 60 266C60 159 85 58 133 -32C168 -99 200 -138 282 -215L301 -194C255 -137 146 -15 146 266Z" stroke="rgb(0,0,0)" stroke-opacity="1" stroke-width="8" fill="rgb(0,0,0)" fill-opacity="1"></path></g></g><g><g transform="matrix(1,0,0,1,510.7874755859375,13.099996948242188)"><path transform="matrix(0.0119,0,0,-0.0119,0,0)" d="M937 664L950 695C922 699 775 701 773 692L688 536L442 114L292 692C269 686 146 690 125 692L122 664L148 662C200 658 218 648 218 622C218 616 72 100 70 93C54 41 39 28 -16 23L-19 -3L20 -2C54 -1 79 0 93 0C107 0 133 -1 168 -2L203 -3L206 25L168 28C136 30 119 40 119 55C119 65 121 78 126 96L250 560L399 -18L422 -18L479 86L718 500L770 587L733 67C729 39 717 32 666 28L635 25L632 -3L679 -2C721 -1 751 0 766 0C782 0 812 -1 853 -2L899 -3L902 25L865 28C829 31 811 42 811 63L812 100L853 631C855 650 870 660 899 662ZM1302 664L1305 692L1191 689C1175 689 1157 689 1114 690L1050 692L1047 664L1094 662C1118 661 1129 653 1129 635L1034 55C1030 37 1018 30 974 23L969 -3L1010 -2C1041 -1 1103 0 1123 0L1420 -1L1453 0C1452 25 1463 103 1476 165L1445 165L1428 103C1419 71 1410 54 1401 49C1388 44 1324 39 1257 39C1208 39 1181 40 1115 46C1118 64 1209 605 1209 613C1216 651 1223 658 1260 661Z" stroke="rgb(0,0,0)" stroke-opacity="1" stroke-width="8" fill="rgb(0,0,0)" fill-opacity="1"></path></g></g><g><g transform="matrix(1,0,0,1,528.737548828125,13.9)"><path transform="matrix(0.0119,0,0,-0.0119,0,0)" d="M51 726L32 700C87 636 187 526 187 266C187 -10 83 -131 32 -194L51 -215C104 -165 273 -23 273 265C273 542 108 675 51 726Z" stroke="rgb(0,0,0)" stroke-opacity="1" stroke-width="8" fill="rgb(0,0,0)" fill-opacity="1"></path></g></g></g></g></g></g></g><g><g><g><g transform="matrix(1,0,0,1,242.875,44.92498779296875)"><path transform="matrix(0.017,0,0,-0.017,0,0)" d="M582 103L237 692L75 692L70 664L105 662C150 660 184 615 185 606L92 102C80 40 74 32 38 28L7 25L2 -3L113 0C125 0 126 0 223 -3L228 25L186 28C146 31 137 39 137 72C137 80 138 91 140 102L220 566L558 -11L608 -11L702 542C723 655 725 659 762 662L799 664L802 691L589 692L584 664L631 662C657 661 667 654 667 638C667 631 584 116 582 103ZM1060 49C973 49 960 104 960 170L960 465L951 469C900 448 848 434 795 428L795 400L832 400C872 400 876 393 876 327L876 159C876 70 881 -12 1017 -12C1062 -12 1102 2 1129 27L1196 89C1196 60 1195 44 1192 -3C1259 0 1260 0 1275 0C1289 0 1289 0 1358 -3L1358 27L1317 30C1283 32 1280 38 1280 102L1280 465L1271 469C1220 448 1168 434 1115 428L1115 400L1152 400C1192 400 1196 393 1196 327L1196 164C1196 126 1147 49 1060 49ZM990 506L1030 506L1174 596C1207 617 1214 625 1214 643C1214 662 1200 677 1183 677C1168 677 1150 666 1128 644ZM2109 103L2083 86C2054 67 2032 56 2022 56C2015 56 2009 65 2009 76C2009 86 2011 95 2016 116L2091 413C2095 430 2098 446 2098 454C2098 471 2088 482 2072 482C2043 482 2005 464 1944 421C1881 376 1846 341 1797 272L1827 409C1831 429 1834 444 1834 451C1834 470 1824 482 1808 482C1778 482 1732 460 1677 418C1633 384 1613 363 1548 275L1581 408C1585 424 1587 439 1587 451C1587 470 1578 482 1564 482C1543 482 1505 461 1431 408L1403 388L1410 368C1447 391 1482 414 1489 414C1500 414 1507 404 1507 389C1507 338 1466 145 1425 2L1428 -9L1496 6L1518 108C1542 219 1569 278 1624 338C1666 384 1711 414 1739 414C1746 414 1750 406 1750 393C1750 358 1728 244 1687 69L1671 2L1676 -9L1745 6L1766 113C1782 194 1816 269 1860 318C1915 379 1965 414 1997 414C2005 414 2010 405 2010 389C2010 365 2007 351 1985 264C1945 105 1929 84 1929 31C1929 6 1940 -9 1959 -9C1985 -9 2021 12 2119 85ZM2484 111L2460 94C2407 56 2359 36 2323 36C2276 36 2247 73 2247 133C2247 158 2250 185 2255 214C2272 218 2381 248 2406 259C2491 296 2530 342 2530 404C2530 451 2496 482 2446 482C2378 496 2268 423 2231 349C2201 299 2171 180 2171 113C2171 35 2215 -11 2287 -11C2344 -11 2400 17 2492 92ZM2269 274C2286 343 2306 386 2335 412C2353 428 2384 440 2408 440C2437 440 2456 420 2456 388C2456 344 2421 297 2369 272C2341 258 2305 247 2260 237ZM2912 365C2915 403 2920 435 2928 476C2917 481 2913 482 2908 482C2877 482 2846 458 2810 407C2771 351 2732 291 2716 256L2748 408C2752 425 2754 438 2754 450C2754 470 2746 482 2731 482C2710 482 2672 461 2598 408L2570 388L2577 368L2609 389C2637 407 2648 412 2657 412C2667 412 2674 403 2674 390C2674 332 2631 126 2591 -2L2601 -9C2616 -4 2632 -1 2655 4L2668 6L2694 126C2712 209 2735 262 2779 319C2813 363 2840 384 2862 384C2877 384 2887 379 2898 365ZM2949 152C2949 46 2994 -11 3077 -11C3132 -11 3192 15 3237 57C3299 116 3343 230 3343 331C3343 425 3293 482 3210 482C3106 482 2949 382 2949 152ZM3173 444C3234 444 3267 399 3267 315C3267 219 3236 113 3192 60C3174 39 3148 27 3117 27C3059 27 3025 72 3025 151C3025 264 3064 387 3113 427C3126 438 3149 444 3173 444ZM4107 722L4095 733C4043 707 4007 698 3935 691L3931 670L3979 670C4003 670 4013 663 4013 646C4013 638 4012 629 4011 622L3983 468C3953 477 3926 482 3901 482C3832 482 3738 410 3692 323C3661 265 3641 170 3641 86C3641 21 3656 -11 3685 -11C3712 -11 3749 6 3783 33C3837 77 3870 116 3937 217L3914 126C3903 82 3898 50 3898 24C3898 3 3907 -9 3924 -9C3941 -9 3965 3 3999 28L4080 88L4070 107L4026 76C4012 66 3996 59 3987 59C3979 59 3973 68 3973 82C3973 90 3974 99 3981 128ZM3738 59C3722 59 3713 73 3713 98C3713 224 3759 380 3808 418C3821 428 3840 433 3867 433C3911 433 3940 427 3973 410L3961 351C3924 171 3783 59 3738 59ZM4451 111L4427 94C4374 56 4326 36 4290 36C4243 36 4214 73 4214 133C4214 158 4217 185 4222 214C4239 218 4348 248 4373 259C4458 296 4497 342 4497 404C4497 451 4463 482 4413 482C4345 496 4235 423 4198 349C4168 299 4138 180 4138 113C4138 35 4182 -11 4254 -11C4311 -11 4367 17 4459 92ZM4236 274C4253 343 4273 386 4302 412C4320 428 4351 440 4375 440C4404 440 4423 420 4423 388C4423 344 4388 297 4336 272C4308 258 4272 247 4227 237ZM5031 204L5002 77C4998 60 4996 42 4996 26C4996 4 5005 -9 5020 -9C5043 -9 5084 17 5166 85L5159 106C5135 86 5106 59 5084 59C5075 59 5069 68 5069 82C5069 87 5069 90 5070 93L5162 472L5152 481L5119 463C5078 478 5061 482 5034 482C5006 482 4986 477 4959 464C4897 433 4864 403 4839 354C4795 265 4764 145 4764 67C4764 23 4779 -11 4798 -11C4835 -11 4915 41 5031 204ZM5079 414C5057 305 5038 253 5004 201C4947 117 4886 59 4854 59C4842 59 4836 72 4836 99C4836 163 4864 280 4899 360C4923 415 4946 433 4994 433C5017 433 5035 429 5079 414ZM5472 -20C5516 -19 5583 0 5595 14L5616 46L5606 61C5569 41 5537 32 5501 32C5390 32 5317 118 5317 250C5317 357 5367 417 5457 417C5501 417 5549 397 5567 372L5574 311L5602 311C5602 357 5607 398 5616 434C5576 458 5541 469 5500 469C5452 469 5396 450 5336 412C5266 368 5229 298 5229 210C5229 82 5313 -9 5438 -19L5400 -108L5407 -114C5426 -109 5435 -107 5448 -107C5472 -107 5488 -123 5488 -146C5488 -174 5469 -189 5434 -189C5416 -189 5402 -187 5369 -178L5355 -209C5398 -222 5412 -225 5439 -225C5515 -225 5563 -193 5563 -141C5563 -98 5530 -71 5478 -71C5468 -71 5461 -72 5451 -75ZM5925 469C5779 469 5678 366 5678 217C5678 76 5767 -20 5896 -20C6050 -20 6160 87 6160 237C6160 372 6062 469 5925 469ZM5907 436C5999 436 6067 336 6067 200C6067 85 6016 13 5935 13C5837 13 5771 109 5771 251C5771 371 5819 436 5907 436ZM5855 635C5800 635 5763 600 5749 535L5778 535C5791 566 5807 580 5831 580C5869 580 5916 535 5970 535C6027 535 6075 582 6079 640L6050 640C6035 603 6019 590 5991 590C5954 590 5908 635 5855 635ZM6519 111L6495 94C6442 56 6394 36 6358 36C6311 36 6282 73 6282 133C6282 158 6285 185 6290 214C6307 218 6416 248 6441 259C6526 296 6565 342 6565 404C6565 451 6531 482 6481 482C6413 496 6303 423 6266 349C6236 299 6206 180 6206 113C6206 35 6250 -11 6322 -11C6379 -11 6435 17 6527 92ZM6304 274C6321 343 6341 386 6370 412C6388 428 6419 440 6443 440C6472 440 6491 420 6491 388C6491 344 6456 297 6404 272C6376 258 6340 247 6295 237ZM6610 148C6605 97 6599 62 6588 16C6626 -2 6660 -11 6695 -11C6744 -11 6790 7 6841 47C6892 87 6913 124 6913 174C6913 228 6881 257 6807 271L6764 279C6704 290 6685 307 6685 348C6685 401 6730 442 6787 442C6828 442 6866 424 6882 397L6882 342L6905 342C6909 377 6913 404 6924 455C6885 474 6857 482 6824 482C6772 482 6711 452 6663 404C6637 377 6626 352 6626 316C6626 260 6657 228 6723 215L6786 203C6830 195 6846 177 6846 138C6846 73 6800 29 6729 29C6694 29 6663 40 6635 64L6635 148Z" stroke="rgb(0,0,0)" stroke-opacity="1" stroke-width="8" fill="rgb(0,0,0)" fill-opacity="1"></path></g></g></g></g><line style="fill:none;stroke-width:1px;stroke:rgb(0, 0, 0);" x1="70.51251220703125" y1="27.474990844726562" x2="533.7000122070312" y2="27.474990844726562"></line></g></g></g></svg>